<?xml version="1.0" standalone="no"?>
<!DOCTYPE svg PUBLIC "-//W3C//DTD SVG 1.1//EN" "http://www.w3.org/Graphics/SVG/1.1/DTD/svg11.dtd" >
<svg>
<metadata>
Created by FontForge 20090622 at Thu Oct 10 04:47:34 2019
 By deploy user
Copyright &#194;&#169; 2007 Linotype GmbH, www.linotype.com. All rights reserved. This font software may not be reproduced, modified, disclosed or transferred without the express written approval of Linotype GmbH. Frutiger Next is a trademark of Linotype GmbH and may be registered in certain jurisdictions. This typeface is original artwork of Adrian Frutiger and Linotype Design Studio. The design may be protected in certain jurisdictions. 
</metadata>
<defs>
<font id="FrutigerNextPro-LightCn" horiz-adv-x="198" >
  <font-face 
    font-family="Frutiger Next Pro Light Cn"
    font-weight="300"
    font-stretch="condensed"
    units-per-em="1000"
    panose-1="2 11 3 6 4 2 4 2 2 3"
    ascent="721"
    descent="-279"
    x-height="497"
    cap-height="667"
    bbox="-79 -239 1000 905"
    underline-thickness="50"
    underline-position="-50"
    unicode-range="U+000D-U+FB02"
  />
<missing-glyph horiz-adv-x="512" 
d="M269 117h-59v64h59v-64zM263 241h-47v9q0 34 11.5 61t28 45.5l33 36t28 41t11.5 52.5q0 34 -22 55.5t-60 21.5q-46 0 -98 -21l-4 47q51 20 102 20q61 0 97.5 -32.5t36.5 -91.5q0 -38 -18.5 -70t-40 -50.5t-40 -48t-18.5 -64.5v-11zM512 0h-512v718h512v-718zM50 667v-617
h412v617h-412z" />
    <glyph glyph-name="IJ" unicode="IJ" horiz-adv-x="479" 
d="M142 0h-56v667h56v-667zM220 -2l6 57q26 -12 41 -12q19 0 33 5.5t22 17t13 22.5t7 29.5t2.5 29.5t0.5 31v489h56v-492q0 -42 -5 -72t-18.5 -58t-41.5 -42t-71 -14q-9 0 -45 9z" />
    <glyph glyph-name="ij" unicode="ij" horiz-adv-x="390" 
d="M124 0h-50v497h50v-497zM126 611h-54v79h54v-79zM186 -220l6 49q12 -6 23 -6q26 0 38.5 12.5t12.5 53.5v608h50v-600q0 -123 -94 -123q-22 0 -36 6zM318 611h-54v79h54v-79z" />
    <glyph glyph-name="napostrophe" unicode="&#x22;n" horiz-adv-x="468" 
d="M142 0h-50v342q0 30 -2 83.5t-2 71.5h47l2 -71q17 35 49.5 58t74.5 23q69 0 101 -46t32 -117v-344h-50v345q0 50 -22 81.5t-68 31.5q-52 0 -82 -44.5t-30 -96.5v-317zM26 513h-45l49 208h64z" />
    <glyph glyph-name="fi" unicode="fi" horiz-adv-x="428" 
d="M145 0h-50v451h-75v46h75v99q0 72 26.5 103.5t89.5 31.5q4 0 39 -7l-6 -49q-15 7 -37 7q-62 0 -62 -77v-108h86v-46h-86v-451zM354 0h-50v497h50v-497zM356 611h-54v79h54v-79z" />
    <glyph glyph-name="fl" unicode="fl" horiz-adv-x="428" 
d="M145 0h-50v451h-75v46h75v99q0 72 26.5 103.5t89.5 31.5q4 0 39 -7l-6 -49q-15 7 -37 7q-62 0 -62 -77v-108h86v-46h-86v-451zM354 0h-50v721h50v-721z" />
    <glyph glyph-name=".notdef" horiz-adv-x="512" 
d="M269 117h-59v64h59v-64zM263 241h-47v9q0 34 11.5 61t28 45.5l33 36t28 41t11.5 52.5q0 34 -22 55.5t-60 21.5q-46 0 -98 -21l-4 47q51 20 102 20q61 0 97.5 -32.5t36.5 -91.5q0 -38 -18.5 -70t-40 -50.5t-40 -48t-18.5 -64.5v-11zM512 0h-512v718h512v-718zM50 667v-617
h412v617h-412z" />
    <glyph glyph-name=".null" horiz-adv-x="1000" 
 />
    <glyph glyph-name=".null" horiz-adv-x="1000" 
 />
    <glyph glyph-name="nonmarkingreturn" horiz-adv-x="333" 
 />
    <glyph glyph-name="CR" unicode="&#xd;" horiz-adv-x="0" 
 />
    <glyph glyph-name="space" unicode=" " horiz-adv-x="230" 
 />
    <glyph glyph-name="exclam" unicode="!" horiz-adv-x="257" 
d="M152 156h-47l-8 511h63zM163 0h-69v80h69v-80z" />
    <glyph glyph-name="quotedbl" unicode="&#x22;" horiz-adv-x="357" 
d="M271 459h-58v208h58v-208zM144 459h-58v208h58v-208z" />
    <glyph glyph-name="numbersign" unicode="#" horiz-adv-x="460" 
d="M134 0h-46l24 213h-80v46h86l17 149h-80v46h86l24 213h46l-24 -213h111l24 213h46l-24 -213h84v-46h-90l-17 -149h84v-46h-90l-24 -213h-46l24 213h-111zM181 408l-17 -149h111l17 149h-111z" />
    <glyph glyph-name="dollar" unicode="$" horiz-adv-x="460" 
d="M247 -108h-43v97q-77 0 -127 33l6 67q49 -46 121 -46q38 0 64.5 14t38 36t16 39t4.5 32q0 49 -18.5 73.5t-77.5 69.5l-59 45q-51 39 -73 74.5t-22 87.5q0 131 135 159v101h41v-97q42 -1 108 -21l-6 -65q-51 32 -108 32q-39 0 -75 -25t-36 -77q0 -42 18.5 -68.5
t58.5 -56.5l59 -44q68 -52 91 -87t23 -92q0 -71 -38.5 -119.5t-100.5 -60.5v-101z" />
    <glyph glyph-name="percent" unicode="%" horiz-adv-x="730" 
d="M493 11q-58 53 -58 184q0 33 4.5 64t16.5 65.5t38.5 55.5t63.5 21q31 0 53.5 -14.5t35 -36t20.5 -51.5t10 -54t2 -50t-2 -50t-10 -54t-20.5 -51.5t-35 -36t-53.5 -14.5q-40 0 -65 22zM252 -24h-48l276 715h48zM109 287q-58 53 -58 184q0 33 4.5 64t16.5 65.5t38.5 55.5
t63.5 21q31 0 53.5 -14.5t35 -36t20.5 -51.5t10 -54t2 -50t-2 -50t-10 -54t-20.5 -51.5t-35 -36t-53.5 -14.5q-40 0 -65 22zM518 52q15 -17 40 -17q69 0 69 160t-69 160q-71 0 -71 -160q0 -103 31 -143zM134 328q15 -17 40 -17q69 0 69 160t-69 160q-71 0 -71 -160
q0 -103 31 -143z" />
    <glyph glyph-name="ampersand" unicode="&#x26;" horiz-adv-x="515" 
d="M416 321v-303q-87 -29 -174 -29q-86 0 -136 50t-50 138q0 71 42.5 118.5t110.5 51.5q-67 5 -102 47t-35 109q0 79 48 126.5t124 47.5q53 0 122 -26l-6 -59q-35 18 -58 24.5t-60 6.5q-51 0 -81 -33.5t-30 -85.5q0 -62 33.5 -96.5t95.5 -34.5h102v83h54v-83h79v-52h-79z
M362 321h-102q-64 0 -104.5 -40t-40.5 -105q0 -60 34.5 -96.5t94.5 -36.5t118 19v259z" />
    <glyph glyph-name="quotesingle" unicode="'" horiz-adv-x="230" 
d="M144 459h-58v208h58v-208z" />
    <glyph glyph-name="parenleft" unicode="(" horiz-adv-x="241" 
d="M233 -128h-41q-139 217 -139 425q0 207 139 424h41q-121 -227 -121 -424q0 -198 121 -425z" />
    <glyph glyph-name="parenright" unicode=")" horiz-adv-x="241" 
d="M49 -128h-41q121 227 121 424q0 198 -121 425h41q139 -217 139 -425q0 -207 -139 -424z" />
    <glyph glyph-name="asterisk" unicode="*" horiz-adv-x="363" 
d="M124 363l-47 27l69 111l-114 39l19 53l110 -50l-8 124h58l-7 -124l108 50l19 -53l-113 -39l69 -111l-47 -27l-59 111z" />
    <glyph glyph-name="plus" unicode="+" horiz-adv-x="530" 
d="M238 217h-221v49h221v217h54v-217h222v-49h-222v-217h-54v217z" />
    <glyph glyph-name="comma" unicode="," horiz-adv-x="230" 
d="M83 -128h-46l49 208h64z" />
    <glyph glyph-name="hyphen" unicode="-" horiz-adv-x="278" 
d="M234 283h-190v54h190v-54z" />
    <glyph glyph-name="period" unicode="." horiz-adv-x="230" 
d="M150 0h-70v80h70v-80z" />
    <glyph glyph-name="slash" unicode="/" horiz-adv-x="236" 
d="M62 0h-52l164 667h52z" />
    <glyph glyph-name="zero" unicode="0" horiz-adv-x="460" 
d="M161 6q-112 69 -112 327q0 52 7 104t25 110t56.5 94t93.5 36q46 0 80 -25.5t52.5 -61.5t30 -86.5t14.5 -89.5t3 -81q0 -41 -3.5 -81t-15 -89.5t-30.5 -86.5t-53 -62t-78 -25q-39 0 -70 17zM146 99q32 -56 85 -56q121 0 121 290t-121 290q-123 0 -123 -290q0 -159 38 -234
z" />
    <glyph glyph-name="one" unicode="1" horiz-adv-x="460" 
d="M281 0h-56v604l-87 -98l-30 41l115 120h58v-667z" />
    <glyph glyph-name="two" unicode="2" horiz-adv-x="460" 
d="M380 0h-324v52l57 73q101 130 150 215t49 162q0 56 -26.5 88.5t-78.5 32.5q-59 0 -120 -41l-6 60q57 35 129 35q46 0 79 -15.5t50 -42t24.5 -54t7.5 -57.5q0 -140 -193 -382l-58 -74h260v-52z" />
    <glyph glyph-name="three" unicode="3" horiz-adv-x="460" 
d="M47 11l6 60q57 -28 122 -28q61 0 102.5 37.5t41.5 110.5q0 65 -45.5 98t-110.5 33h-42v52h40q69 0 111.5 35.5t42.5 104.5q0 57 -37.5 83t-90.5 26q-58 0 -111 -32l-6 57q53 29 119 29q81 0 133 -40.5t52 -122.5q0 -123 -120 -163q124 -29 124 -156q0 -98 -60 -152
t-148 -54q-69 0 -123 22z" />
    <glyph glyph-name="four" unicode="4" horiz-adv-x="460" 
d="M296 156h-258v57l239 454h75v-459h69v-52h-69v-156h-56v156zM296 606l-208 -398h208v398z" />
    <glyph glyph-name="five" unicode="5" horiz-adv-x="460" 
d="M67 12l8 60q53 -29 111 -29q74 0 112.5 47t38.5 120q0 68 -34.5 107t-104.5 39q-49 0 -110 -26l11 337h261v-52h-205l-9 -221q36 14 72 14q87 0 132.5 -53t45.5 -139q0 -99 -56 -163t-158 -64q-57 0 -115 23z" />
    <glyph glyph-name="six" unicode="6" horiz-adv-x="460" 
d="M390 659l-6 -60q-51 24 -99 24q-30 0 -55.5 -11.5t-42 -27t-30.5 -44t-21.5 -50t-14 -58.5t-9 -55.5t-6.5 -54.5q46 97 138 97q84 0 129 -61t45 -148q0 -91 -48.5 -156t-135.5 -65q-55 0 -94 28.5t-57 76.5t-25.5 94.5t-7.5 98.5q0 51 5.5 99.5t21 103t40 94.5t66.5 66.5
t97 26.5q51 0 110 -18zM143 99q33 -56 91 -56q61 0 93 51.5t32 115.5q0 65 -30 110t-91 45q-58 0 -88.5 -47t-30.5 -108q0 -64 24 -111z" />
    <glyph glyph-name="seven" unicode="7" horiz-adv-x="460" 
d="M177 0h-61l205 615h-259v52h320v-54z" />
    <glyph glyph-name="eight" unicode="8" horiz-adv-x="460" 
d="M272 297q-16 10 -50 28q-52 -26 -84.5 -67t-32.5 -92q0 -54 34.5 -88.5t90.5 -34.5q55 0 90 34t35 88q0 79 -83 132zM190 400q20 -13 44 -24q103 53 103 146q0 45 -30 73t-77 28t-77 -30.5t-30 -73.5q0 -72 67 -119zM124 318q22 18 51 34q-57 32 -84 70t-27 97
q0 68 48.5 113t117.5 45q70 0 118 -41.5t48 -111.5q0 -109 -115 -173q68 -37 100.5 -79t32.5 -106q0 -80 -52 -128.5t-132 -48.5q-85 0 -134.5 45.5t-49.5 126.5q0 93 78 157z" />
    <glyph glyph-name="nine" unicode="9" horiz-adv-x="460" 
d="M77 7l6 62q62 -26 104 -26q50 0 84.5 29.5t51 80t23.5 94.5t8 95q-40 -96 -138 -96q-84 0 -129 64.5t-45 151.5q0 91 49 153t135 62q55 0 94 -28t57.5 -76t26 -94t7.5 -99q0 -36 -2 -68.5t-7.5 -73t-15 -74.5t-26.5 -67.5t-39.5 -56.5t-55.5 -37t-73 -14q-58 0 -115 18z
M130 352q34 -52 95 -52q57 0 87 47.5t30 108.5q0 65 -28.5 116t-88.5 51q-64 0 -94 -47t-30 -114q0 -65 29 -110z" />
    <glyph glyph-name="colon" unicode=":" horiz-adv-x="230" 
d="M150 417h-70v80h70v-80zM150 0h-70v80h70v-80z" />
    <glyph glyph-name="semicolon" unicode=";" horiz-adv-x="230" 
d="M149 417h-69v80h69v-80zM83 -128h-46l49 208h64z" />
    <glyph glyph-name="less" unicode="&#x3c;" horiz-adv-x="530" 
d="M512 15l-497 198v54l497 200v-54l-435 -173l435 -172v-53z" />
    <glyph glyph-name="equal" unicode="=" horiz-adv-x="530" 
d="M514 308h-497v48h497v-48zM514 125h-497v48h497v-48z" />
    <glyph glyph-name="greater" unicode="&#x3e;" horiz-adv-x="530" 
d="M515 213l-497 -198v53l435 172l-435 173v54l497 -200v-54z" />
    <glyph glyph-name="question" unicode="?" horiz-adv-x="342" 
d="M165 156h-54v14q0 62 20.5 114t44.5 81t44.5 68t20.5 79q0 50 -28.5 80.5t-78.5 30.5t-94 -30l-6 62q54 22 97 22q78 0 123.5 -42t45.5 -120q0 -39 -14 -72.5t-33.5 -59.5l-39.5 -54t-34 -68t-14 -88v-17zM173 0h-70v80h70v-80z" />
    <glyph glyph-name="at" unicode="@" horiz-adv-x="860" 
d="M526 267l40 183q-22 9 -61 9q-51 0 -93 -30t-67 -76.5t-38.5 -97.5t-13.5 -98q0 -56 21.5 -88t57.5 -32q103 0 154 230zM669 -134l7 -50q-104 -42 -219 -42q-183 0 -289 122.5t-106 324.5q0 137 45 251t138 186.5t219 72.5q154 0 244 -112t90 -294q0 -86 -23.5 -161.5
t-69.5 -125t-106 -49.5q-40 0 -66.5 25.5t-28.5 74.5q-57 -100 -138 -100q-58 0 -92.5 45t-34.5 123q0 82 31 161t95 134t146 55q59 0 112 -20l-70 -317q-7 -29 -7 -64q0 -71 60 -71q59 0 100 87t41 203q0 162 -76.5 261t-212.5 99q-105 0 -184.5 -67t-119 -171t-39.5 -226
q0 -182 91 -291.5t257 -109.5q105 0 206 46z" />
    <glyph glyph-name="A" unicode="A" horiz-adv-x="521" 
d="M68 0h-56l220 667h58l219 -667h-59l-57 186h-267zM260 611l-119 -375h236z" />
    <glyph glyph-name="B" unicode="B" horiz-adv-x="480" 
d="M219 0h-133v667h150q80 0 127 -45.5t47 -124.5q0 -115 -106 -149q60 -12 91 -57t31 -108q0 -183 -207 -183zM142 615v-244h89q58 0 89 34.5t31 92.5q0 57 -31 87t-88 30h-90zM142 321v-269h93q132 0 132 131q0 65 -33 101.5t-97 36.5h-95z" />
    <glyph glyph-name="C" unicode="C" horiz-adv-x="474" 
d="M436 71l6 -62q-60 -20 -113 -20q-94 0 -158.5 51t-91.5 126.5t-27 166.5t28 166.5t93.5 126.5t160.5 51q57 0 107 -23l-6 -62q-42 31 -108 31q-58 0 -101.5 -26t-67.5 -69.5t-35.5 -93t-11.5 -102.5q0 -52 12 -101t36 -92.5t67.5 -69.5t99.5 -26q55 0 110 28z" />
    <glyph glyph-name="D" unicode="D" horiz-adv-x="542" 
d="M183 0h-97v667h102q154 0 228 -85.5t74 -241.5q0 -159 -80.5 -249.5t-226.5 -90.5zM142 615v-563h45q64 0 112.5 22t76.5 62t41.5 91t13.5 113q0 123 -56 199t-174 76h-59z" />
    <glyph glyph-name="E" unicode="E" horiz-adv-x="421" 
d="M375 0h-289v667h278v-52h-222v-243h211v-50h-211v-270h233v-52z" />
    <glyph glyph-name="F" unicode="F" horiz-adv-x="393" 
d="M142 0h-56v667h271v-52h-215v-243h204v-50h-204v-322z" />
    <glyph glyph-name="G" unicode="G" horiz-adv-x="544" 
d="M482 354v-327q-66 -38 -147 -38q-58 0 -106 19.5t-80.5 52t-54.5 77t-32 93.5t-10 102q0 88 30 164.5t95.5 128t154.5 51.5q77 0 138 -34l-6 -63q-26 20 -65 31.5t-73 11.5q-45 0 -82 -17.5t-61 -46t-40.5 -67t-24 -78.5t-7.5 -81q0 -55 13 -105t39 -92.5t71 -67.5
t104 -25q52 0 90 22v237h-119v52h173z" />
    <glyph glyph-name="H" unicode="H" horiz-adv-x="543" 
d="M142 0h-56v667h56v-293h259v293h56v-667h-56v322h-259v-322z" />
    <glyph glyph-name="I" unicode="I" horiz-adv-x="228" 
d="M142 0h-56v667h56v-667z" />
    <glyph glyph-name="J" unicode="J" horiz-adv-x="259" 
d="M0 -2l6 57q26 -12 41 -12q19 0 33 5.5t22 17t13 22.5t7 29.5t2.5 29.5t0.5 31v489h56v-492q0 -42 -5 -72t-18.5 -58t-41.5 -42t-71 -14q-9 0 -45 9z" />
    <glyph glyph-name="K" unicode="K" horiz-adv-x="477" 
d="M142 0h-56v667h56v-304l241 304h68l-260 -317l282 -350h-72l-259 332v-332z" />
    <glyph glyph-name="L" unicode="L" horiz-adv-x="373" 
d="M355 0h-269v667h56v-615h213v-52z" />
    <glyph glyph-name="M" unicode="M" horiz-adv-x="717" 
d="M140 0h-54v667h90l184 -597l181 597h90v-667h-56v615l-193 -615h-49l-193 615v-615z" />
    <glyph glyph-name="N" unicode="N" horiz-adv-x="579" 
d="M140 0h-54v667h80l273 -599v599h54v-667h-80l-273 597v-597z" />
    <glyph glyph-name="O" unicode="O" horiz-adv-x="563" 
d="M164 21q-112 84 -112 312q0 61 11 117t35.5 109.5t71.5 85.5t111 32q46 0 83.5 -14.5t62 -41t41.5 -59t26 -73t13 -78t4 -78.5q0 -61 -10.5 -117t-35 -109.5t-72 -85.5t-112.5 -32q-71 0 -117 32zM170 92q40 -50 111 -50q43 0 75 20t50 49.5t29 71t14 76.5t3 74
q0 291 -171 291q-53 0 -89 -28.5t-52.5 -76.5t-22.5 -92t-6 -94q0 -169 59 -241z" />
    <glyph glyph-name="P" unicode="P" horiz-adv-x="443" 
d="M142 0h-56v667h123q96 0 150 -47t54 -141q0 -87 -49 -137t-136 -50h-86v-292zM142 615v-271h67q73 0 109 31.5t36 103.5q0 74 -40.5 105t-119.5 31h-52z" />
    <glyph glyph-name="Q" unicode="Q" horiz-adv-x="563" 
d="M494 -128h-71l-106 120q-17 -3 -36 -3q-55 0 -97 21.5t-66.5 55.5t-40 81t-20.5 91.5t-5 94.5q0 61 11 117t35.5 109.5t71.5 85.5t111 32q46 0 83.5 -14.5t62 -41t41.5 -59t26 -73t13 -78t4 -78.5q0 -49 -6.5 -95t-21.5 -92t-43.5 -82t-67.5 -55zM170 92q40 -50 111 -50
q43 0 75 20t50 49.5t29 71t14 76.5t3 74q0 291 -171 291q-53 0 -89 -28.5t-52.5 -76.5t-22.5 -92t-6 -94q0 -169 59 -241z" />
    <glyph glyph-name="R" unicode="R" horiz-adv-x="477" 
d="M142 0h-56v667h152q79 0 126.5 -46t47.5 -126q0 -66 -33.5 -108t-96.5 -53q28 -5 41.5 -18t23.5 -41l104 -275h-60l-83 230q-8 21 -13 32t-15 24.5t-24 19.5t-34 6h-80v-312zM142 615v-251h84q127 0 127 130q0 121 -131 121h-80z" />
    <glyph glyph-name="S" unicode="S" horiz-adv-x="405" 
d="M40 16l6 63q60 -36 123 -36q61 0 94.5 32.5t33.5 94.5q0 47 -23.5 77.5t-81.5 71.5l-37 26q-53 38 -76 72.5t-23 86.5q0 48 18 83.5t46.5 54t56.5 27t56 8.5q59 0 107 -19l-6 -60q-47 25 -104 25q-45 0 -80 -28.5t-35 -83.5q0 -42 19 -66t62 -56l37 -25q65 -44 95 -85.5
t30 -102.5q0 -91 -54 -139t-134 -48q-72 0 -130 27z" />
    <glyph glyph-name="T" unicode="T" horiz-adv-x="382" 
d="M219 0h-56v615h-151v52h358v-52h-151v-615z" />
    <glyph glyph-name="U" unicode="U" horiz-adv-x="543" 
d="M134 667v-424q0 -34 2.5 -59.5t10.5 -53.5t22.5 -46.5t40 -30.5t61.5 -12q43 0 72 17t42.5 48.5t18.5 63t5 73.5v424h56v-425q0 -52 -9.5 -94.5t-30.5 -79.5t-60.5 -58t-93.5 -21q-57 0 -96 20t-59.5 57t-29 79.5t-8.5 96.5v425h56z" />
    <glyph glyph-name="V" unicode="V" horiz-adv-x="466" 
d="M264 0h-60l-194 667h59l167 -603l166 603h54z" />
    <glyph glyph-name="W" unicode="W" horiz-adv-x="734" 
d="M233 0h-65l-154 667h59l128 -606l135 606h66l135 -606l127 606h56l-153 -667h-65l-135 606z" />
    <glyph glyph-name="X" unicode="X" horiz-adv-x="477" 
d="M74 0h-62l195 354l-175 313h64l145 -271l147 271h59l-176 -313l194 -354h-63l-165 313z" />
    <glyph glyph-name="Y" unicode="Y" horiz-adv-x="394" 
d="M225 0h-56v291l-167 376h60l137 -327l137 327h56l-167 -376v-291z" />
    <glyph glyph-name="Z" unicode="Z" horiz-adv-x="407" 
d="M377 0h-347v57l283 558h-272v52h330v-54l-284 -561h290v-52z" />
    <glyph glyph-name="bracketleft" unicode="[" horiz-adv-x="241" 
d="M201 -128h-124v849h124v-49h-74v-751h74v-49z" />
    <glyph glyph-name="backslash" unicode="\" horiz-adv-x="236" 
d="M226 0h-52l-164 667h52z" />
    <glyph glyph-name="bracketright" unicode="]" horiz-adv-x="241" 
d="M164 -128h-124v49h74v751h-74v49h124v-849z" />
    <glyph glyph-name="asciicircum" unicode="^" horiz-adv-x="530" 
d="M129 252h-58l168 415h53l167 -415h-57l-138 352z" />
    <glyph glyph-name="underscore" unicode="_" horiz-adv-x="500" 
d="M500 -125h-500v50h500v-50z" />
    <glyph glyph-name="grave" unicode="`" 
d="M138 585h-46l-93 136h64z" />
    <glyph glyph-name="a" unicode="a" horiz-adv-x="428" 
d="M304 251h-28q-187 0 -187 -118q0 -44 23 -70.5t64 -26.5q60 0 94 45.5t34 113.5v56zM360 0h-49l-4 74q-17 -37 -52.5 -61t-81.5 -24q-64 0 -101.5 38t-37.5 109q0 46 21 79t56.5 50t74 24.5t82.5 7.5h36v37q0 61 -22.5 92.5t-81.5 31.5q-63 0 -117 -34l-6 52
q60 31 126 31q151 0 151 -161v-238q0 -36 6 -108z" />
    <glyph glyph-name="b" unicode="b" horiz-adv-x="451" 
d="M121 0h-47v721h50v-292q46 78 118 78q47 0 81.5 -24.5t51.5 -65t24.5 -82t7.5 -85.5q0 -43 -8 -85t-25 -83.5t-51.5 -67t-80.5 -25.5q-76 0 -119 78zM141 111q28 -73 98 -73q34 0 58.5 22t35 58t15 67.5t4.5 64.5q0 208 -113 208q-35 0 -60 -20t-36.5 -53t-16.5 -66
t-5 -69q0 -85 20 -139z" />
    <glyph glyph-name="c" unicode="c" horiz-adv-x="366" 
d="M332 57l4 -52q-35 -16 -85 -16q-71 0 -119.5 40t-68 97t-19.5 124q0 109 56.5 183t147.5 74q46 0 83 -16l-6 -56q-32 23 -77 23q-40 0 -70 -19.5t-46.5 -51t-24.5 -66.5t-8 -71q0 -86 37.5 -149t119.5 -63q45 0 76 19z" />
    <glyph glyph-name="d" unicode="d" horiz-adv-x="451" 
d="M381 0h-46l-3 72q-44 -83 -123 -83q-46 0 -80.5 25.5t-51.5 67t-25 83.5t-8 85q0 44 7.5 85.5t25 82t51.5 65t82 24.5q71 0 117 -78v292h50v-567v-41q0 -25 4 -113zM153 61q23 -23 59 -23q118 0 118 212q0 36 -5 69t-16.5 66t-36.5 53t-60 20q-113 0 -113 -208
q0 -133 54 -189z" />
    <glyph glyph-name="e" unicode="e" horiz-adv-x="406" 
d="M97 286h216q-1 36 -5.5 63t-14 54.5t-29.5 42t-49 14.5q-56 0 -84.5 -53.5t-33.5 -120.5zM367 240h-270q0 -53 13 -96t48.5 -74.5t89.5 -31.5q58 0 98 27l4 -54q-47 -22 -103 -22t-97.5 22.5t-64 60.5t-33.5 82.5t-11 95.5q0 63 16.5 118.5t58 97t102.5 41.5
q46 0 77.5 -21.5t46 -61.5t20 -79.5t5.5 -91.5v-13z" />
    <glyph glyph-name="f" unicode="f" horiz-adv-x="246" 
d="M145 0h-50v451h-75v46h75v99q0 72 26.5 103.5t89.5 31.5q4 0 39 -7l-6 -49q-15 7 -37 7q-62 0 -62 -77v-108h86v-46h-86v-451z" />
    <glyph glyph-name="g" unicode="g" horiz-adv-x="451" 
d="M66 -199l6 59q63 -37 129 -37q30 0 52.5 9.5t36 29t21.5 38t11 48.5t4 48.5t1 49.5v27q-45 -73 -118 -73q-47 0 -81 22.5t-51 61t-25 79.5t-8 87q0 44 8 85.5t25.5 82t51.5 65t81 24.5q77 0 120 -78v68h47v-488q0 -48 -8.5 -88t-28 -74t-54.5 -53.5t-84 -19.5
q-55 0 -136 27zM117 120q27 -71 93 -71q120 0 120 201q0 36 -5 69t-16.5 66t-36.5 53t-60 20q-113 0 -113 -208q0 -81 18 -130z" />
    <glyph glyph-name="h" unicode="h" horiz-adv-x="450" 
d="M124 0h-50v721h50v-295q17 35 49 58t70 23q69 0 101 -46t32 -117v-344h-50v345q0 50 -22 81.5t-68 31.5q-50 0 -81 -45t-31 -96v-317z" />
    <glyph glyph-name="i" unicode="i" 
d="M124 0h-50v497h50v-497zM126 611h-54v79h54v-79z" />
    <glyph glyph-name="j" unicode="j" horiz-adv-x="202" 
d="M-2 -220l6 49q12 -6 23 -6q26 0 38.5 12.5t12.5 53.5v608h50v-600q0 -123 -94 -123q-22 0 -36 6zM130 611h-54v79h54v-79z" />
    <glyph glyph-name="k" unicode="k" horiz-adv-x="390" 
d="M124 0h-50v721h50v-430l177 206h63l-194 -219l212 -278h-63l-195 263v-263z" />
    <glyph glyph-name="l" unicode="l" 
d="M124 0h-50v721h50v-721z" />
    <glyph glyph-name="m" unicode="m" horiz-adv-x="658" 
d="M124 0h-50v342q0 29 -2 83.5t-2 71.5h47l2 -71q16 35 46 58t67 23q80 0 112 -81q53 81 118 81q122 0 122 -156v-351h-50v345q0 113 -80 113q-44 0 -72 -45t-28 -95v-318h-50v345q0 113 -80 113q-43 0 -71.5 -45t-28.5 -95v-318z" />
    <glyph glyph-name="n" unicode="n" horiz-adv-x="450" 
d="M124 0h-50v342q0 30 -2 83.5t-2 71.5h47l2 -71q17 35 49.5 58t74.5 23q69 0 101 -46t32 -117v-344h-50v345q0 50 -22 81.5t-68 31.5q-52 0 -82 -44.5t-30 -96.5v-317z" />
    <glyph glyph-name="o" unicode="o" horiz-adv-x="444" 
d="M135 13q-91 67 -91 237q0 46 9.5 89t29 82t55.5 62.5t84 23.5q51 0 88 -23t55.5 -62.5t26.5 -81.5t8 -90q0 -47 -8.5 -90t-27.5 -83t-55.5 -64t-86.5 -24q-52 0 -87 24zM121 114q30 -76 101 -76q37 0 63 21t38 56t17 67.5t5 67.5q0 208 -123 208q-36 0 -61.5 -21t-38 -55
t-18 -66.5t-5.5 -65.5q0 -80 22 -136z" />
    <glyph glyph-name="p" unicode="p" horiz-adv-x="451" 
d="M124 -216h-50v558v40q0 27 -4 115h47l2 -73q44 83 123 83q47 0 81.5 -24.5t51.5 -65t24.5 -82t7.5 -85.5q0 -43 -8 -85t-25 -83.5t-51.5 -67t-80.5 -25.5q-77 0 -118 76v-281zM141 110q28 -72 98 -72q34 0 58.5 22t35 58t15 67.5t4.5 64.5q0 208 -113 208q-35 0 -60 -19
t-36.5 -52t-16.5 -66t-5 -71q0 -86 20 -140z" />
    <glyph glyph-name="q" unicode="q" horiz-adv-x="451" 
d="M377 -216h-50v281q-41 -76 -118 -76q-46 0 -80.5 25.5t-51.5 67t-25 83.5t-8 85q0 44 7.5 85.5t25 82t51.5 65t82 24.5q77 0 120 -78v68h47v-713zM153 61q23 -23 59 -23q118 0 118 212q0 36 -5 69t-16.5 66t-36.5 53t-60 20q-113 0 -113 -208q0 -133 54 -189z" />
    <glyph glyph-name="r" unicode="r" horiz-adv-x="268" 
d="M124 0h-50v342q0 30 -2 83.5t-2 71.5h47l2 -74q16 36 46.5 60t66.5 24q11 0 20 -3l-6 -54q-14 2 -15 2q-48 0 -77.5 -44t-29.5 -97v-311z" />
    <glyph glyph-name="s" unicode="s" horiz-adv-x="333" 
d="M33 7l6 57q54 -26 108 -26q46 0 71.5 23t25.5 65q0 33 -21 57.5t-51 40.5l-59.5 33t-50.5 46t-21 70q0 64 43 99t102 35q51 0 90 -14l-6 -54q-37 19 -83 19q-37 0 -64 -20t-27 -59q0 -33 21 -56t51 -38t59.5 -32t50.5 -46.5t21 -71.5q0 -68 -43 -107t-111 -39
q-62 0 -112 18z" />
    <glyph glyph-name="t" unicode="t" horiz-adv-x="259" 
d="M233 54l6 -54q-35 -11 -64 -11q-87 0 -87 103v359h-72v46h72v115l50 18v-133h99v-46h-99v-339q0 -24 2 -37t14 -25t35 -12q14 0 44 16z" />
    <glyph glyph-name="u" unicode="u" horiz-adv-x="446" 
d="M122 497v-345q0 -50 22 -82t67 -32q52 0 81.5 45t29.5 97v317h50v-342q0 -30 2 -83.5t2 -71.5h-47l-2 70q-40 -81 -123 -81q-69 0 -100.5 46t-31.5 118v344h50z" />
    <glyph glyph-name="v" unicode="v" horiz-adv-x="364" 
d="M215 0h-62l-141 497h56l117 -441l115 441h52z" />
    <glyph glyph-name="w" unicode="w" horiz-adv-x="608" 
d="M204 0h-63l-127 497h57l102 -443l103 443h62l101 -443l104 443h51l-126 -497h-63l-100 429z" />
    <glyph glyph-name="x" unicode="x" horiz-adv-x="371" 
d="M72 0h-58l140 262l-128 235h60l101 -197l99 197h58l-129 -237l142 -260h-61l-112 222z" />
    <glyph glyph-name="y" unicode="y" horiz-adv-x="352" 
d="M35 -222l5 50q11 -5 27 -5q24 0 38.5 15t27.5 62l24 89l-141 508h55l112 -419l104 419h53l-155 -588q-7 -29 -14.5 -49.5t-20.5 -42t-33 -32.5t-46 -11q-24 0 -36 4z" />
    <glyph glyph-name="z" unicode="z" horiz-adv-x="340" 
d="M312 0h-284v50l228 401h-221v46h274v-50l-226 -401h229v-46z" />
    <glyph glyph-name="braceleft" unicode="{" horiz-adv-x="242" 
d="M225 -128h-41q-51 0 -73 25t-22 84v174q0 73 -12 97t-45 24v42q32 0 44.5 25t12.5 100v169q0 59 22 84t73 25h41v-43h-27q-32 0 -46.5 -14.5t-14.5 -51.5v-201q0 -95 -60 -114q60 -19 60 -113v-202q0 -38 14.5 -52.5t46.5 -14.5h27v-43z" />
    <glyph glyph-name="bar" unicode="|" horiz-adv-x="206" 
d="M130 -216h-54v991h54v-991z" />
    <glyph glyph-name="braceright" unicode="}" horiz-adv-x="243" 
d="M58 -128h-41v43h27q32 0 47 15t15 52v202q0 94 61 113q-61 19 -61 114v201q0 37 -15 51.5t-47 14.5h-27v43h41q51 0 73 -25t22 -84v-169q0 -75 12.5 -100t45.5 -25v-42q-33 0 -45.5 -23.5t-12.5 -97.5v-174q0 -59 -22 -84t-73 -25z" />
    <glyph glyph-name="asciitilde" unicode="~" horiz-adv-x="530" 
d="M43 172h-39q21 131 121 131q47 0 146 -37.5t136 -37.5q34 0 55 23t28 59h36q-4 -55 -34 -92t-84 -37q-49 0 -146.5 37t-136.5 37q-33 0 -54.5 -24t-27.5 -59z" />
    <glyph glyph-name="uni00A0" unicode="&#xa0;" horiz-adv-x="230" 
 />
    <glyph glyph-name="exclamdown" unicode="&#xa1;" horiz-adv-x="257" 
d="M160 -170h-63l8 511h47zM163 417h-69v80h69v-80z" />
    <glyph glyph-name="cent" unicode="&#xa2;" horiz-adv-x="460" 
d="M283 0h-39v93q-81 13 -120 82.5t-39 160.5q0 94 43 160.5t116 78.5v92h39v-90q39 -2 74 -17l-6 -57q-30 24 -79 24q-47 0 -78.5 -31.5t-42.5 -72t-11 -87.5q0 -37 7 -69.5t22 -62t43 -47t67 -17.5q41 0 75 27l6 -58q-39 -16 -77 -18v-91z" />
    <glyph glyph-name="sterling" unicode="&#xa3;" horiz-adv-x="460" 
d="M406 0h-350v52h74v288h-70v52h70v85q0 83 48.5 141.5t129.5 58.5q63 0 104 -25l-6 -59q-40 30 -95 30q-53 0 -89 -41t-36 -111v-79h154v-52h-154v-288h220v-52z" />
    <glyph glyph-name="currency" unicode="&#xa4;" horiz-adv-x="460" 
d="M113 168l-57 -63l-30 34l56 63q-41 61 -41 131q0 71 41 130l-57 64l30 34l57 -64q51 45 118 45q62 0 118 -44l57 62l30 -34l-57 -63q41 -61 41 -131t-41 -129l57 -65l-30 -34l-58 65q-49 -47 -117 -47q-63 0 -117 46zM133 220q41 -46 97 -46t96.5 46.5t40.5 111.5
t-40 111.5t-97 46.5t-97 -46t-40 -112q0 -64 40 -112z" />
    <glyph glyph-name="yen" unicode="&#xa5;" horiz-adv-x="460" 
d="M258 0h-56v158h-121v46h121v71h-121v46h108l-153 346h59l135 -325l135 325h59l-153 -346h107v-46h-120v-71h120v-46h-120v-158z" />
    <glyph glyph-name="brokenbar" unicode="&#xa6;" horiz-adv-x="206" 
d="M130 379h-54v396h54v-396zM130 -216h-54v397h54v-397z" />
    <glyph glyph-name="section" unicode="&#xa7;" horiz-adv-x="460" 
d="M88 -89l6 55q20 -16 51.5 -28.5t53.5 -12.5q45 0 77 26t32 70q0 59 -53 92l-98 61q-72 45 -72 118q0 78 82 133q-63 36 -63 121q0 60 45 95.5t105 35.5q57 0 107 -26l-6 -49q-6 2 -23 8.5t-25.5 9t-23 5.5t-26.5 3q-39 0 -68.5 -22.5t-29.5 -60.5q0 -50 70 -102l78 -57
q69 -50 69 -122q0 -67 -71 -129q30 -27 44 -52.5t14 -62.5q0 -66 -49.5 -105t-115.5 -39q-15 0 -31 3.5t-24 7l-28.5 12.5t-26.5 12zM182 222l88 -58q19 22 26.5 31.5t16 29t8.5 40.5q0 45 -58 89l-63 48q-24 -15 -42.5 -44.5t-18.5 -55.5q0 -53 43 -80z" />
    <glyph glyph-name="dieresis" unicode="&#xa8;" 
d="M194 611h-52v79h52v-79zM56 611h-52v79h52v-79z" />
    <glyph glyph-name="copyright" unicode="&#xa9;" horiz-adv-x="792" 
d="M262 16q-94 40 -152 126t-58 192q0 142 101 242.5t243 100.5t243 -100.5t101 -242.5q0 -143 -101 -244t-243 -101q-71 0 -134 27zM192 126q85 -87 204 -87q121 0 204.5 87t83.5 208q0 120 -84 206.5t-204 86.5t-204 -86.5t-84 -206.5q0 -119 84 -208zM523 199l4 -51
q-45 -20 -97 -20q-102 0 -162.5 56t-60.5 150q0 92 62 149t161 57q50 0 97 -18l-4 -51q-45 20 -91 20q-80 0 -125 -43.5t-45 -113.5q0 -72 44.5 -114.5t125.5 -42.5q39 0 91 22z" />
    <glyph glyph-name="ordfeminine" unicode="&#xaa;" horiz-adv-x="300" 
d="M254 372h-49l-2 42q-35 -49 -89 -49q-45 0 -68.5 26.5t-23.5 59.5q0 58 47 82.5t110 24.5h22v14q0 59 -67 59q-43 0 -82 -29l-4 51q50 24 91 24q56 0 83.5 -26.5t27.5 -73.5v-140q0 -37 4 -65zM201 515h-11q-116 0 -116 -62q0 -42 53 -42q35 0 54.5 23t19.5 57v24z" />
    <glyph glyph-name="guillemotleft" unicode="&#xab;" horiz-adv-x="360" 
d="M318 55h-49l-109 198l109 199h49l-102 -199zM190 55h-49l-109 198l109 199h49l-102 -199z" />
    <glyph glyph-name="logicalnot" unicode="&#xac;" horiz-adv-x="530" 
d="M462 308h-447v48h497v-231h-50v183z" />
    <glyph glyph-name="uni00AD" unicode="&#xad;" horiz-adv-x="278" 
d="M234 283h-190v54h190v-54z" />
    <glyph glyph-name="registered" unicode="&#xae;" horiz-adv-x="792" 
d="M262 16q-94 40 -152 126t-58 192q0 142 101 242.5t243 100.5t243 -100.5t101 -242.5q0 -143 -101 -244t-243 -101q-71 0 -134 27zM192 126q85 -87 204 -87t203.5 87t84.5 208q0 120 -84.5 206.5t-203.5 86.5q-120 0 -204 -86.5t-84 -206.5q0 -119 84 -208zM319 140h-52
v401h122q59 0 97 -26t38 -79q0 -37 -29.5 -64t-70.5 -33q42 -9 61 -51l68 -148h-56l-58 128q-15 31 -31 42t-53 11h-36v-181zM319 495v-128h46q104 0 104 68q0 60 -106 60h-44z" />
    <glyph glyph-name="macron" unicode="&#xaf;" 
d="M212 632h-226v43h226v-43z" />
    <glyph glyph-name="degree" unicode="&#xb0;" horiz-adv-x="400" 
d="M146 412q-37 17 -60 51t-23 76q0 57 40 97.5t97 40.5t97 -40.5t40 -97.5t-40 -97.5t-97 -40.5q-27 0 -54 11zM104 539q0 -40 28 -67.5t68 -27.5t68 27.5t28 67.5q0 39 -28 67t-68 28q-39 0 -67.5 -28t-28.5 -67z" />
    <glyph glyph-name="plusminus" unicode="&#xb1;" horiz-adv-x="530" 
d="M239 264h-222v48h222v177h53v-177h222v-48h-222v-178h-53v178zM514 -8h-497v48h497v-48z" />
    <glyph glyph-name="twosuperior" unicode="&#xb2;" horiz-adv-x="350" 
d="M273 368h-210v44l60 73q96 115 96 184q0 64 -64 64q-30 0 -74 -25l-4 49q40 23 89 23q51 0 78.5 -31.5t27.5 -76.5q0 -88 -105 -208l-44 -51h150v-45z" />
    <glyph glyph-name="threesuperior" unicode="&#xb3;" horiz-adv-x="350" 
d="M59 375l4 49q34 -15 74 -15q41 0 62.5 20.5t21.5 56.5q0 35 -25.5 52.5t-66.5 17.5h-22v46h21q90 0 90 71q0 29 -20.5 44.5t-53.5 15.5q-38 0 -69 -18l-3 49q37 16 81 16q48 0 82.5 -28.5t34.5 -76.5q0 -69 -67 -94q31 -8 50.5 -34t19.5 -61q0 -58 -37.5 -91.5
t-100.5 -33.5q-43 0 -76 14z" />
    <glyph glyph-name="acute" unicode="&#xb4;" 
d="M106 585h-46l75 136h64z" />
    <glyph glyph-name="mu" unicode="&#xb5;" horiz-adv-x="460" 
d="M128 -216h-50v713h50v-345q0 -50 22 -82t67 -32q52 0 81.5 45t29.5 97v317h50v-342q0 -30 2 -83.5t2 -71.5h-47l-2 70q-40 -81 -123 -81q-50 0 -82 29v-234z" />
    <glyph glyph-name="paragraph" unicode="&#xb6;" horiz-adv-x="530" 
d="M292 -108h-45v430q-80 2 -135.5 49t-55.5 124q0 171 202 171h171v-774h-45v732h-92v-732z" />
    <glyph glyph-name="periodcentered" unicode="&#xb7;" horiz-adv-x="230" 
d="M150 270h-70v80h70v-80z" />
    <glyph glyph-name="cedilla" unicode="&#xb8;" 
d="M10 -161l11 32q34 -14 69 -14q22 0 34.5 9.5t12.5 24.5q0 31 -35 31q-19 0 -37 -6l-12 18l49 66h34l-41 -54q9 3 29 3q27 0 45 -15.5t18 -39.5q0 -33 -25.5 -51.5t-68.5 -18.5q-47 0 -83 15z" />
    <glyph glyph-name="onesuperior" unicode="&#xb9;" horiz-adv-x="350" 
d="M216 368h-49v347l-65 -57l-26 34l96 82h44v-406z" />
    <glyph glyph-name="ordmasculine" unicode="&#xba;" horiz-adv-x="300" 
d="M91 379q-64 41 -64 143q0 63 30 109t93 46q64 0 93.5 -45.5t29.5 -109.5q0 -63 -29.5 -110t-93.5 -47q-34 0 -59 14zM91 451q19 -40 59 -40t55.5 34t15.5 77q0 109 -71 109q-39 0 -55 -34t-16 -75q0 -40 12 -71z" />
    <glyph glyph-name="guillemotright" unicode="&#xbb;" horiz-adv-x="360" 
d="M219 55h-49l102 199l-102 198h49l109 -198zM91 55h-49l102 199l-102 198h49l109 -198z" />
    <glyph glyph-name="onequarter" unicode="&#xbc;" horiz-adv-x="730" 
d="M529 91h-166v49l153 261h62v-267h44v-43h-44v-91h-49v91zM228 -24h-48l276 715h48zM214 266h-49v349l-56 -57l-25 33l84 76h46v-401zM530 353l-128 -219h128v219z" />
    <glyph glyph-name="onehalf" unicode="&#xbd;" horiz-adv-x="730" 
d="M629 0h-220v42l31 34q132 145 132 223q0 62 -65 62q-42 0 -80 -23l-4 45q44 24 94 24q54 0 80.5 -30.5t26.5 -74.5q0 -83 -109 -202l-51 -57h165v-43zM212 -24h-48l276 715h48zM198 266h-49v349l-56 -57l-25 33l84 76h46v-401z" />
    <glyph glyph-name="threequarters" unicode="&#xbe;" horiz-adv-x="730" 
d="M572 91h-166v49l153 261h62v-267h44v-43h-44v-91h-49v91zM271 -24h-48l276 715h48zM78 281l4 48q39 -18 79 -18q42 0 66 21t24 58q0 34 -28 51.5t-70 17.5h-26v43h25q97 0 97 70q0 28 -23.5 43.5t-58.5 15.5q-36 0 -72 -19l-4 46q40 19 86 19q52 0 88 -28t36 -74
q0 -72 -82 -94q38 -5 61 -31.5t23 -64.5q0 -56 -39 -88t-106 -32q-52 0 -80 16zM573 353l-128 -219h128v219z" />
    <glyph glyph-name="questiondown" unicode="&#xbf;" horiz-adv-x="342" 
d="M238 417h-70v80h70v-80zM301 -96l6 -62q-54 -22 -97 -22q-78 0 -123.5 42t-45.5 120q0 39 14 72.5t33.5 59.5l39.5 54t34 68t14 88v17h54v-14q0 -63 -20.5 -115t-44.5 -81t-44.5 -67.5t-20.5 -78.5q0 -50 28.5 -80.5t78.5 -30.5q51 0 94 30z" />
    <glyph glyph-name="Agrave" unicode="&#xc0;" horiz-adv-x="521" 
d="M68 0h-56l220 667h58l219 -667h-59l-57 186h-267zM260 611l-119 -375h236zM295 724h-46l-93 136h64z" />
    <glyph glyph-name="Aacute" unicode="&#xc1;" horiz-adv-x="521" 
d="M68 0h-56l220 667h58l219 -667h-59l-57 186h-267zM260 611l-119 -375h236zM272 724h-46l75 136h64z" />
    <glyph glyph-name="Acircumflex" unicode="&#xc2;" horiz-adv-x="521" 
d="M68 0h-56l220 667h58l219 -667h-59l-57 186h-267zM260 611l-119 -375h236zM197 724h-54l91 136h53l92 -136h-54l-65 99z" />
    <glyph glyph-name="Atilde" unicode="&#xc3;" horiz-adv-x="521" 
d="M68 0h-56l220 667h58l219 -667h-59l-57 186h-267zM260 611l-119 -375h236zM172 742h-37q0 37 20.5 65t56.5 28q22 0 56.5 -20.5t45.5 -20.5q16 0 25.5 15.5t9.5 31.5h38q0 -33 -21 -63t-53 -30q-25 0 -55 20.5t-46 20.5t-28 -15t-12 -32z" />
    <glyph glyph-name="Adieresis" unicode="&#xc4;" horiz-adv-x="521" 
d="M68 0h-56l220 667h58l219 -667h-59l-57 186h-267zM260 611l-119 -375h236zM217 750h-52v79h52v-79zM355 750h-52v79h52v-79z" />
    <glyph glyph-name="Aring" unicode="&#xc5;" horiz-adv-x="521" 
d="M68 0h-56l220 667h58l219 -667h-59l-57 186h-267zM260 611l-119 -375h236zM203 792q0 -24 17 -40.5t41 -16.5t40 16.5t16 40.5t-16 40.5t-40 16.5q-23 0 -40.5 -17t-17.5 -40zM196 728q-27 26 -27 64t27 64t65 26t64 -26t26 -64t-26 -64t-64 -26q-37 0 -65 26z" />
    <glyph glyph-name="AE" unicode="&#xc6;" horiz-adv-x="696" 
d="M54 0h-62l336 667h311v-52h-222v-243h211v-50h-211v-270h233v-52h-289v186h-216zM361 623l-191 -387h191v387z" />
    <glyph glyph-name="Ccedilla" unicode="&#xc7;" horiz-adv-x="474" 
d="M203 -161l11 32q34 -14 69 -14q22 0 34.5 9.5t12.5 24.5q0 31 -35 31q-19 0 -37 -6l-12 18l43 58q-118 15 -177.5 112t-59.5 229q0 91 28 166.5t93.5 126.5t160.5 51q57 0 107 -23l-6 -62q-42 31 -108 31q-58 0 -101.5 -26t-67.5 -69.5t-35.5 -93t-11.5 -102.5
q0 -52 12 -101t36 -92.5t67.5 -69.5t99.5 -26q55 0 110 28l6 -62q-60 -20 -113 -20q-1 0 -4 0.5t-4 0.5l-33 -44q9 3 29 3q27 0 45 -15.5t18 -39.5q0 -33 -25.5 -51.5t-68.5 -18.5q-47 0 -83 15z" />
    <glyph glyph-name="Egrave" unicode="&#xc8;" horiz-adv-x="421" 
d="M375 0h-289v667h278v-52h-222v-243h211v-50h-211v-270h233v-52zM259 724h-46l-93 136h64z" />
    <glyph glyph-name="Eacute" unicode="&#xc9;" horiz-adv-x="421" 
d="M375 0h-289v667h278v-52h-222v-243h211v-50h-211v-270h233v-52zM238 724h-46l75 136h64z" />
    <glyph glyph-name="Ecircumflex" unicode="&#xca;" horiz-adv-x="421" 
d="M375 0h-289v667h278v-52h-222v-243h211v-50h-211v-270h233v-52zM161 724h-54l91 136h53l92 -136h-54l-65 99z" />
    <glyph glyph-name="Edieresis" unicode="&#xcb;" horiz-adv-x="421" 
d="M375 0h-289v667h278v-52h-222v-243h211v-50h-211v-270h233v-52zM182 750h-52v79h52v-79zM320 750h-52v79h52v-79z" />
    <glyph glyph-name="Igrave" unicode="&#xcc;" horiz-adv-x="228" 
d="M142 0h-56v667h56v-667zM150 724h-46l-93 136h64z" />
    <glyph glyph-name="Iacute" unicode="&#xcd;" horiz-adv-x="228" 
d="M142 0h-56v667h56v-667zM124 724h-46l75 136h64z" />
    <glyph glyph-name="Icircumflex" unicode="&#xce;" horiz-adv-x="228" 
d="M142 0h-56v667h56v-667zM51 724h-54l91 136h53l92 -136h-54l-65 99z" />
    <glyph glyph-name="Idieresis" unicode="&#xcf;" horiz-adv-x="228" 
d="M142 0h-56v667h56v-667zM71 750h-52v79h52v-79zM209 750h-52v79h52v-79z" />
    <glyph glyph-name="Eth" unicode="&#xd0;" horiz-adv-x="542" 
d="M173 0h-87v314h-59v49h59v304h102q154 0 228 -85.5t74 -241.5q0 -161 -80.5 -250.5t-236.5 -89.5zM142 314v-262h45q64 0 112.5 22t76.5 62t41.5 91t13.5 113q0 123 -56 199t-174 76h-59v-252h144v-49h-144z" />
    <glyph glyph-name="Ntilde" unicode="&#xd1;" horiz-adv-x="579" 
d="M140 0h-54v667h80l273 -599v599h54v-667h-80l-273 597v-597zM204 742h-37q0 37 20.5 65t56.5 28q22 0 56.5 -20.5t45.5 -20.5q16 0 25.5 15.5t9.5 31.5h38q0 -33 -21 -63t-53 -30q-25 0 -55 20.5t-46 20.5t-28 -15t-12 -32z" />
    <glyph glyph-name="Ograve" unicode="&#xd2;" horiz-adv-x="563" 
d="M164 21q-112 84 -112 312q0 61 11 117t35.5 109.5t71.5 85.5t111 32q46 0 83.5 -14.5t62 -41t41.5 -59t26 -73t13 -78t4 -78.5q0 -61 -10.5 -117t-35 -109.5t-72 -85.5t-112.5 -32q-71 0 -117 32zM170 92q40 -50 111 -50q43 0 75 20t50 49.5t29 71t14 76.5t3 74
q0 291 -171 291q-53 0 -89 -28.5t-52.5 -76.5t-22.5 -92t-6 -94q0 -169 59 -241zM309 724h-46l-93 136h64z" />
    <glyph glyph-name="Oacute" unicode="&#xd3;" horiz-adv-x="563" 
d="M164 21q-112 84 -112 312q0 61 11 117t35.5 109.5t71.5 85.5t111 32q46 0 83.5 -14.5t62 -41t41.5 -59t26 -73t13 -78t4 -78.5q0 -61 -10.5 -117t-35 -109.5t-72 -85.5t-112.5 -32q-71 0 -117 32zM170 92q40 -50 111 -50q43 0 75 20t50 49.5t29 71t14 76.5t3 74
q0 291 -171 291q-53 0 -89 -28.5t-52.5 -76.5t-22.5 -92t-6 -94q0 -169 59 -241zM299 724h-46l75 136h64z" />
    <glyph glyph-name="Ocircumflex" unicode="&#xd4;" horiz-adv-x="563" 
d="M164 21q-112 84 -112 312q0 61 11 117t35.5 109.5t71.5 85.5t111 32q46 0 83.5 -14.5t62 -41t41.5 -59t26 -73t13 -78t4 -78.5q0 -61 -10.5 -117t-35 -109.5t-72 -85.5t-112.5 -32q-71 0 -117 32zM170 92q40 -50 111 -50q43 0 75 20t50 49.5t29 71t14 76.5t3 74
q0 291 -171 291q-53 0 -89 -28.5t-52.5 -76.5t-22.5 -92t-6 -94q0 -169 59 -241zM217 724h-54l91 136h53l92 -136h-54l-65 99z" />
    <glyph glyph-name="Otilde" unicode="&#xd5;" horiz-adv-x="563" 
d="M164 21q-112 84 -112 312q0 61 11 117t35.5 109.5t71.5 85.5t111 32q46 0 83.5 -14.5t62 -41t41.5 -59t26 -73t13 -78t4 -78.5q0 -61 -10.5 -117t-35 -109.5t-72 -85.5t-112.5 -32q-71 0 -117 32zM170 92q40 -50 111 -50q43 0 75 20t50 49.5t29 71t14 76.5t3 74
q0 291 -171 291q-53 0 -89 -28.5t-52.5 -76.5t-22.5 -92t-6 -94q0 -169 59 -241zM193 742h-37q0 37 20.5 65t56.5 28q22 0 56.5 -20.5t45.5 -20.5q16 0 25.5 15.5t9.5 31.5h38q0 -33 -21 -63t-53 -30q-26 0 -55 20.5t-46 20.5q-16 0 -28 -15t-12 -32z" />
    <glyph glyph-name="Odieresis" unicode="&#xd6;" horiz-adv-x="563" 
d="M164 21q-112 84 -112 312q0 61 11 117t35.5 109.5t71.5 85.5t111 32q46 0 83.5 -14.5t62 -41t41.5 -59t26 -73t13 -78t4 -78.5q0 -61 -10.5 -117t-35 -109.5t-72 -85.5t-112.5 -32q-71 0 -117 32zM170 92q40 -50 111 -50q43 0 75 20t50 49.5t29 71t14 76.5t3 74
q0 291 -171 291q-53 0 -89 -28.5t-52.5 -76.5t-22.5 -92t-6 -94q0 -169 59 -241zM238 750h-52v79h52v-79zM376 750h-52v79h52v-79z" />
    <glyph glyph-name="multiply" unicode="&#xd7;" horiz-adv-x="530" 
d="M69 8l-37 36l197 197l-197 197l36 37l197 -198l197 197l37 -36l-197 -197l197 -197l-37 -37l-196 198z" />
    <glyph glyph-name="Oslash" unicode="&#xd8;" horiz-adv-x="563" 
d="M40 -21l-26 22l79 107q-41 87 -41 225q0 61 11 117t35.5 109.5t71.5 85.5t111 32q112 0 169 -83l76 104l26 -22l-84 -114q43 -89 43 -229q0 -61 -10.5 -117t-35 -109.5t-72 -85.5t-112.5 -32q-111 0 -170 87zM133 163l280 382q-42 79 -132 79q-53 0 -89 -28.5
t-52.5 -76.5t-22.5 -92t-6 -94q0 -105 22 -170zM429 508l-281 -382q43 -84 133 -84q43 0 75 20t50 49.5t29 71t14 76.5t3 74q0 107 -23 175z" />
    <glyph glyph-name="Ugrave" unicode="&#xd9;" horiz-adv-x="543" 
d="M134 667v-424q0 -34 2.5 -59.5t10.5 -53.5t22.5 -46.5t40 -30.5t61.5 -12q43 0 72 17t42.5 48.5t18.5 63t5 73.5v424h56v-425q0 -52 -9.5 -94.5t-30.5 -79.5t-60.5 -58t-93.5 -21q-57 0 -96 20t-59.5 57t-29 79.5t-8.5 96.5v425h56zM315 724h-46l-93 136h64z" />
    <glyph glyph-name="Uacute" unicode="&#xda;" horiz-adv-x="543" 
d="M134 667v-424q0 -34 2.5 -59.5t10.5 -53.5t22.5 -46.5t40 -30.5t61.5 -12q43 0 72 17t42.5 48.5t18.5 63t5 73.5v424h56v-425q0 -52 -9.5 -94.5t-30.5 -79.5t-60.5 -58t-93.5 -21q-57 0 -96 20t-59.5 57t-29 79.5t-8.5 96.5v425h56zM274 724h-46l75 136h64z" />
    <glyph glyph-name="Ucircumflex" unicode="&#xdb;" horiz-adv-x="543" 
d="M134 667v-424q0 -34 2.5 -59.5t10.5 -53.5t22.5 -46.5t40 -30.5t61.5 -12q43 0 72 17t42.5 48.5t18.5 63t5 73.5v424h56v-425q0 -52 -9.5 -94.5t-30.5 -79.5t-60.5 -58t-93.5 -21q-57 0 -96 20t-59.5 57t-29 79.5t-8.5 96.5v425h56zM207 724h-54l91 136h53l92 -136h-54
l-65 99z" />
    <glyph glyph-name="Udieresis" unicode="&#xdc;" horiz-adv-x="543" 
d="M134 667v-424q0 -34 2.5 -59.5t10.5 -53.5t22.5 -46.5t40 -30.5t61.5 -12q43 0 72 17t42.5 48.5t18.5 63t5 73.5v424h56v-425q0 -52 -9.5 -94.5t-30.5 -79.5t-60.5 -58t-93.5 -21q-57 0 -96 20t-59.5 57t-29 79.5t-8.5 96.5v425h56zM228 750h-52v79h52v-79zM366 750h-52
v79h52v-79z" />
    <glyph glyph-name="Yacute" unicode="&#xdd;" horiz-adv-x="394" 
d="M225 0h-56v291l-167 376h60l137 -327l137 327h56l-167 -376v-291zM204 724h-46l75 136h64z" />
    <glyph glyph-name="Thorn" unicode="&#xde;" horiz-adv-x="443" 
d="M142 0h-56v667h56v-139h67q96 0 150 -47t54 -141q0 -87 -49 -137t-136 -50h-86v-153zM142 476v-271h67q73 0 109 31.5t36 103.5q0 74 -40.5 105t-119.5 31h-52z" />
    <glyph glyph-name="germandbls" unicode="&#xdf;" horiz-adv-x="452" 
d="M124 0h-50v482q0 116 40.5 182.5t126.5 66.5q151 0 151 -203q0 -44 -4 -64q-61 0 -91 -19t-30 -68q0 -27 16 -50t38.5 -42l45.5 -39.5t39 -50.5t16 -66q0 -60 -36.5 -100t-100.5 -40q-48 0 -82 15l6 49q37 -16 74 -16q43 0 64 24t21 63q0 28 -16 53t-38 45l-44.5 41.5
t-38.5 50.5t-16 63q0 55 34.5 89t90.5 36q2 18 2 31q0 63 -23 106t-78 43q-117 0 -117 -200v-482z" />
    <glyph glyph-name="agrave" unicode="&#xe0;" horiz-adv-x="428" 
d="M304 251h-28q-187 0 -187 -118q0 -44 23 -70.5t64 -26.5q60 0 94 45.5t34 113.5v56zM360 0h-49l-4 74q-17 -37 -52.5 -61t-81.5 -24q-64 0 -101.5 38t-37.5 109q0 46 21 79t56.5 50t74 24.5t82.5 7.5h36v37q0 61 -22.5 92.5t-81.5 31.5q-63 0 -117 -34l-6 52
q60 31 126 31q151 0 151 -161v-238q0 -36 6 -108zM240 585h-46l-93 136h64z" />
    <glyph glyph-name="aacute" unicode="&#xe1;" horiz-adv-x="428" 
d="M304 251h-28q-187 0 -187 -118q0 -44 23 -70.5t64 -26.5q60 0 94 45.5t34 113.5v56zM360 0h-49l-4 74q-17 -37 -52.5 -61t-81.5 -24q-64 0 -101.5 38t-37.5 109q0 46 21 79t56.5 50t74 24.5t82.5 7.5h36v37q0 61 -22.5 92.5t-81.5 31.5q-63 0 -117 -34l-6 52
q60 31 126 31q151 0 151 -161v-238q0 -36 6 -108zM212 585h-46l75 136h64z" />
    <glyph glyph-name="acircumflex" unicode="&#xe2;" horiz-adv-x="428" 
d="M304 251h-28q-187 0 -187 -118q0 -44 23 -70.5t64 -26.5q60 0 94 45.5t34 113.5v56zM360 0h-49l-4 74q-17 -37 -52.5 -61t-81.5 -24q-64 0 -101.5 38t-37.5 109q0 46 21 79t56.5 50t74 24.5t82.5 7.5h36v37q0 61 -22.5 92.5t-81.5 31.5q-63 0 -117 -34l-6 52
q60 31 126 31q151 0 151 -161v-238q0 -36 6 -108zM138 585h-54l91 136h53l92 -136h-54l-65 99z" />
    <glyph glyph-name="atilde" unicode="&#xe3;" horiz-adv-x="428" 
d="M304 251h-28q-187 0 -187 -118q0 -44 23 -70.5t64 -26.5q60 0 94 45.5t34 113.5v56zM360 0h-49l-4 74q-17 -37 -52.5 -61t-81.5 -24q-64 0 -101.5 38t-37.5 109q0 46 21 79t56.5 50t74 24.5t82.5 7.5h36v37q0 61 -22.5 92.5t-81.5 31.5q-63 0 -117 -34l-6 52
q60 31 126 31q151 0 151 -161v-238q0 -36 6 -108zM116 603h-37q0 37 20.5 65t56.5 28q22 0 56.5 -20.5t45.5 -20.5q16 0 25.5 15.5t9.5 31.5h38q0 -33 -21 -63t-53 -30q-25 0 -55 20.5t-46 20.5t-28 -15t-12 -32z" />
    <glyph glyph-name="adieresis" unicode="&#xe4;" horiz-adv-x="428" 
d="M304 251h-28q-187 0 -187 -118q0 -44 23 -70.5t64 -26.5q60 0 94 45.5t34 113.5v56zM360 0h-49l-4 74q-17 -37 -52.5 -61t-81.5 -24q-64 0 -101.5 38t-37.5 109q0 46 21 79t56.5 50t74 24.5t82.5 7.5h36v37q0 61 -22.5 92.5t-81.5 31.5q-63 0 -117 -34l-6 52
q60 31 126 31q151 0 151 -161v-238q0 -36 6 -108zM298 611h-52v79h52v-79zM160 611h-52v79h52v-79z" />
    <glyph glyph-name="aring" unicode="&#xe5;" horiz-adv-x="428" 
d="M304 251h-28q-187 0 -187 -118q0 -44 23 -70.5t64 -26.5q60 0 94 45.5t34 113.5v56zM360 0h-49l-4 74q-17 -37 -52.5 -61t-81.5 -24q-64 0 -101.5 38t-37.5 109q0 46 21 79t56.5 50t74 24.5t82.5 7.5h36v37q0 61 -22.5 92.5t-81.5 31.5q-63 0 -117 -34l-6 52
q60 31 126 31q151 0 151 -161v-238q0 -36 6 -108zM139 589q-27 25 -27 64q0 38 27 64t65 26t64 -26t26 -64t-26 -64t-64 -26q-37 0 -65 26zM146 653q0 -24 17 -40.5t41 -16.5t40 16.5t16 40.5t-16 40.5t-40 16.5q-23 0 -40.5 -17t-17.5 -40z" />
    <glyph glyph-name="ae" unicode="&#xe6;" horiz-adv-x="647" 
d="M287 245h-28q-29 0 -51.5 -2t-46 -9t-38.5 -19t-25 -33.5t-10 -51.5q0 -44 21.5 -69t61.5 -25q58 0 87 44.5t29 112.5v52zM338 291h216q-1 36 -5.5 62.5t-14 52.5t-29.5 40t-49 14q-56 0 -84.5 -51.5t-33.5 -117.5zM78 424l-6 52q60 31 126 31q105 0 126 -90
q18 41 53.5 65.5t81.5 24.5t77.5 -21t46 -59.5t20 -77.5t5.5 -91v-13h-270q0 -39 7.5 -73.5t24.5 -65.5t47.5 -49.5t71.5 -18.5q58 0 98 27l4 -54q-47 -22 -103 -22q-132 0 -175 112q-17 -54 -54.5 -83t-90.5 -29q-64 0 -99.5 36.5t-35.5 107.5q0 158 218 158h36v32
q0 64 -19.5 99.5t-72.5 35.5q-63 0 -117 -34z" />
    <glyph glyph-name="ccedilla" unicode="&#xe7;" horiz-adv-x="366" 
d="M134 -161l11 32q34 -14 69 -14q22 0 34.5 9.5t12.5 24.5q0 31 -35 31q-19 0 -37 -6l-12 18l42 57q-88 13 -131.5 87t-43.5 172q0 109 56.5 183t147.5 74q46 0 83 -16l-6 -56q-32 23 -77 23q-40 0 -70 -19.5t-46.5 -51t-24.5 -66.5t-8 -71q0 -86 37.5 -149t119.5 -63
q45 0 76 19l4 -52q-35 -16 -83 -16h-2l-32 -43q9 3 29 3q27 0 45 -15.5t18 -39.5q0 -33 -25.5 -51.5t-68.5 -18.5q-47 0 -83 15z" />
    <glyph glyph-name="egrave" unicode="&#xe8;" horiz-adv-x="406" 
d="M97 286h216q-1 36 -5.5 63t-14 54.5t-29.5 42t-49 14.5q-56 0 -84.5 -53.5t-33.5 -120.5zM367 240h-270q0 -53 13 -96t48.5 -74.5t89.5 -31.5q58 0 98 27l4 -54q-47 -22 -103 -22t-97.5 22.5t-64 60.5t-33.5 82.5t-11 95.5q0 63 16.5 118.5t58 97t102.5 41.5
q46 0 77.5 -21.5t46 -61.5t20 -79.5t5.5 -91.5v-13zM245 585h-46l-93 136h64z" />
    <glyph glyph-name="eacute" unicode="&#xe9;" horiz-adv-x="406" 
d="M97 286h216q-1 36 -5.5 63t-14 54.5t-29.5 42t-49 14.5q-56 0 -84.5 -53.5t-33.5 -120.5zM367 240h-270q0 -53 13 -96t48.5 -74.5t89.5 -31.5q58 0 98 27l4 -54q-47 -22 -103 -22t-97.5 22.5t-64 60.5t-33.5 82.5t-11 95.5q0 63 16.5 118.5t58 97t102.5 41.5
q46 0 77.5 -21.5t46 -61.5t20 -79.5t5.5 -91.5v-13zM225 585h-46l75 136h64z" />
    <glyph glyph-name="ecircumflex" unicode="&#xea;" horiz-adv-x="406" 
d="M97 286h216q-1 36 -5.5 63t-14 54.5t-29.5 42t-49 14.5q-56 0 -84.5 -53.5t-33.5 -120.5zM367 240h-270q0 -53 13 -96t48.5 -74.5t89.5 -31.5q58 0 98 27l4 -54q-47 -22 -103 -22t-97.5 22.5t-64 60.5t-33.5 82.5t-11 95.5q0 63 16.5 118.5t58 97t102.5 41.5
q46 0 77.5 -21.5t46 -61.5t20 -79.5t5.5 -91.5v-13zM142 585h-54l91 136h53l92 -136h-54l-65 99z" />
    <glyph glyph-name="edieresis" unicode="&#xeb;" horiz-adv-x="406" 
d="M97 286h216q-1 36 -5.5 63t-14 54.5t-29.5 42t-49 14.5q-56 0 -84.5 -53.5t-33.5 -120.5zM367 240h-270q0 -53 13 -96t48.5 -74.5t89.5 -31.5q58 0 98 27l4 -54q-47 -22 -103 -22t-97.5 22.5t-64 60.5t-33.5 82.5t-11 95.5q0 63 16.5 118.5t58 97t102.5 41.5
q46 0 77.5 -21.5t46 -61.5t20 -79.5t5.5 -91.5v-13zM303 611h-52v79h52v-79zM165 611h-52v79h52v-79z" />
    <glyph glyph-name="igrave" unicode="&#xec;" 
d="M124 0h-50v497h50v-497zM138 585h-46l-93 136h64z" />
    <glyph glyph-name="iacute" unicode="&#xed;" 
d="M124 0h-50v497h50v-497zM106 585h-46l75 136h64z" />
    <glyph glyph-name="icircumflex" unicode="&#xee;" 
d="M124 0h-50v497h50v-497zM35 585h-54l91 136h53l92 -136h-54l-65 99z" />
    <glyph glyph-name="idieresis" unicode="&#xef;" 
d="M124 0h-50v497h50v-497zM194 611h-52v79h52v-79zM56 611h-52v79h52v-79z" />
    <glyph glyph-name="eth" unicode="&#xf0;" horiz-adv-x="444" 
d="M136 570l-28 24l89 57q-66 40 -110 55l34 25q77 -29 115 -56l89 56l27 -22l-87 -57q67 -54 101 -158t34 -207q0 -298 -178 -298q-49 0 -85 23.5t-55.5 62t-28.5 81t-9 87.5q0 47 9 89t28.5 80t56 60.5t86.5 22.5q56 0 109 -60q-21 67 -44.5 113.5t-63.5 80.5zM122 111
q34 -73 100 -73q36 0 61.5 20.5t38 53.5t18 65.5t5.5 65.5q0 35 -4.5 66t-16.5 64.5t-38 53t-64 19.5t-64 -19.5t-38 -53t-16.5 -64.5t-4.5 -66q0 -77 23 -132z" />
    <glyph glyph-name="ntilde" unicode="&#xf1;" horiz-adv-x="450" 
d="M124 0h-50v342q0 30 -2 83.5t-2 71.5h47l2 -71q17 35 49.5 58t74.5 23q69 0 101 -46t32 -117v-344h-50v345q0 50 -22 81.5t-68 31.5q-52 0 -82 -44.5t-30 -96.5v-317zM137 603h-37q0 37 20.5 65t56.5 28q22 0 56.5 -20.5t45.5 -20.5q16 0 25.5 15.5t9.5 31.5h38
q0 -33 -21 -63t-53 -30q-25 0 -55 20.5t-46 20.5t-28 -15t-12 -32z" />
    <glyph glyph-name="ograve" unicode="&#xf2;" horiz-adv-x="444" 
d="M135 13q-91 67 -91 237q0 46 9.5 89t29 82t55.5 62.5t84 23.5q51 0 88 -23t55.5 -62.5t26.5 -81.5t8 -90q0 -47 -8.5 -90t-27.5 -83t-55.5 -64t-86.5 -24q-52 0 -87 24zM121 114q30 -76 101 -76q37 0 63 21t38 56t17 67.5t5 67.5q0 208 -123 208q-36 0 -61.5 -21t-38 -55
t-18 -66.5t-5.5 -65.5q0 -80 22 -136zM258 585h-46l-93 136h64z" />
    <glyph glyph-name="oacute" unicode="&#xf3;" horiz-adv-x="444" 
d="M135 13q-91 67 -91 237q0 46 9.5 89t29 82t55.5 62.5t84 23.5q51 0 88 -23t55.5 -62.5t26.5 -81.5t8 -90q0 -47 -8.5 -90t-27.5 -83t-55.5 -64t-86.5 -24q-52 0 -87 24zM121 114q30 -76 101 -76q37 0 63 21t38 56t17 67.5t5 67.5q0 208 -123 208q-36 0 -61.5 -21t-38 -55
t-18 -66.5t-5.5 -65.5q0 -80 22 -136zM232 585h-46l75 136h64z" />
    <glyph glyph-name="ocircumflex" unicode="&#xf4;" horiz-adv-x="444" 
d="M135 13q-91 67 -91 237q0 46 9.5 89t29 82t55.5 62.5t84 23.5q51 0 88 -23t55.5 -62.5t26.5 -81.5t8 -90q0 -47 -8.5 -90t-27.5 -83t-55.5 -64t-86.5 -24q-52 0 -87 24zM121 114q30 -76 101 -76q37 0 63 21t38 56t17 67.5t5 67.5q0 208 -123 208q-36 0 -61.5 -21t-38 -55
t-18 -66.5t-5.5 -65.5q0 -80 22 -136zM158 585h-54l91 136h53l92 -136h-54l-65 99z" />
    <glyph glyph-name="otilde" unicode="&#xf5;" horiz-adv-x="444" 
d="M135 13q-91 67 -91 237q0 46 9.5 89t29 82t55.5 62.5t84 23.5q51 0 88 -23t55.5 -62.5t26.5 -81.5t8 -90q0 -47 -8.5 -90t-27.5 -83t-55.5 -64t-86.5 -24q-52 0 -87 24zM121 114q30 -76 101 -76q37 0 63 21t38 56t17 67.5t5 67.5q0 208 -123 208q-36 0 -61.5 -21t-38 -55
t-18 -66.5t-5.5 -65.5q0 -80 22 -136zM135 603h-37q0 37 20.5 65t56.5 28q22 0 56.5 -20.5t45.5 -20.5q16 0 25.5 15.5t9.5 31.5h38q0 -33 -21 -63t-53 -30q-25 0 -55 20.5t-46 20.5t-28 -15t-12 -32z" />
    <glyph glyph-name="odieresis" unicode="&#xf6;" horiz-adv-x="444" 
d="M135 13q-91 67 -91 237q0 46 9.5 89t29 82t55.5 62.5t84 23.5q51 0 88 -23t55.5 -62.5t26.5 -81.5t8 -90q0 -47 -8.5 -90t-27.5 -83t-55.5 -64t-86.5 -24q-52 0 -87 24zM121 114q30 -76 101 -76q37 0 63 21t38 56t17 67.5t5 67.5q0 208 -123 208q-36 0 -61.5 -21t-38 -55
t-18 -66.5t-5.5 -65.5q0 -80 22 -136zM317 611h-52v79h52v-79zM179 611h-52v79h52v-79z" />
    <glyph glyph-name="divide" unicode="&#xf7;" horiz-adv-x="530" 
d="M265 371q-19 0 -32.5 13.5t-13.5 33.5t13 33.5t33 13.5t33.5 -13.5t13.5 -33.5t-13.5 -33.5t-33.5 -13.5zM514 216h-497v49h497v-49zM265 16q-20 0 -33 13.5t-13 33.5t13.5 33.5t32.5 13.5q20 0 33.5 -13.5t13.5 -33.5t-13.5 -33.5t-33.5 -13.5z" />
    <glyph glyph-name="oslash" unicode="&#xf8;" horiz-adv-x="444" 
d="M29 -24l-24 20l71 91q-32 68 -32 163q0 46 9.5 89t29 82t55.5 62.5t84 23.5q86 0 131 -65l60 78l24 -20l-68 -87q31 -65 31 -163q0 -47 -8.5 -90t-27.5 -83t-55.5 -64t-86.5 -24q-84 0 -130 68zM114 135l205 263q-33 60 -97 60q-36 0 -61.5 -21t-38 -55t-18 -66.5
t-5.5 -65.5q0 -62 15 -115zM331 364l-204 -262q33 -64 95 -64q37 0 63 21t38 56t17 67.5t5 67.5q0 67 -14 114z" />
    <glyph glyph-name="ugrave" unicode="&#xf9;" horiz-adv-x="446" 
d="M122 497v-345q0 -50 22 -82t67 -32q52 0 81.5 45t29.5 97v317h50v-342q0 -30 2 -83.5t2 -71.5h-47l-2 70q-40 -81 -123 -81q-69 0 -100.5 46t-31.5 118v344h50zM260 585h-46l-93 136h64z" />
    <glyph glyph-name="uacute" unicode="&#xfa;" horiz-adv-x="446" 
d="M122 497v-345q0 -50 22 -82t67 -32q52 0 81.5 45t29.5 97v317h50v-342q0 -30 2 -83.5t2 -71.5h-47l-2 70q-40 -81 -123 -81q-69 0 -100.5 46t-31.5 118v344h50zM230 585h-46l75 136h64z" />
    <glyph glyph-name="ucircumflex" unicode="&#xfb;" horiz-adv-x="446" 
d="M122 497v-345q0 -50 22 -82t67 -32q52 0 81.5 45t29.5 97v317h50v-342q0 -30 2 -83.5t2 -71.5h-47l-2 70q-40 -81 -123 -81q-69 0 -100.5 46t-31.5 118v344h50zM158 585h-54l91 136h53l92 -136h-54l-65 99z" />
    <glyph glyph-name="udieresis" unicode="&#xfc;" horiz-adv-x="446" 
d="M122 497v-345q0 -50 22 -82t67 -32q52 0 81.5 45t29.5 97v317h50v-342q0 -30 2 -83.5t2 -71.5h-47l-2 70q-40 -81 -123 -81q-69 0 -100.5 46t-31.5 118v344h50zM317 611h-52v79h52v-79zM179 611h-52v79h52v-79z" />
    <glyph glyph-name="yacute" unicode="&#xfd;" horiz-adv-x="352" 
d="M35 -222l5 50q11 -5 27 -5q24 0 38.5 15t27.5 62l24 89l-141 508h55l112 -419l104 419h53l-155 -588q-7 -29 -14.5 -49.5t-20.5 -42t-33 -32.5t-46 -11q-24 0 -36 4zM190 585h-46l75 136h64z" />
    <glyph glyph-name="thorn" unicode="&#xfe;" horiz-adv-x="451" 
d="M124 -216h-50v937h50v-292q46 78 118 78q47 0 81.5 -24.5t51.5 -65t24.5 -82t7.5 -85.5q0 -43 -8 -85t-25 -83.5t-51.5 -67t-80.5 -25.5q-77 0 -118 76v-281zM141 110q28 -72 98 -72q34 0 58.5 22t35 58t15 67.5t4.5 64.5q0 208 -113 208q-35 0 -60 -19t-36.5 -52
t-16.5 -66t-5 -71q0 -86 20 -140z" />
    <glyph glyph-name="ydieresis" unicode="&#xff;" horiz-adv-x="352" 
d="M35 -222l5 50q11 -5 27 -5q24 0 38.5 15t27.5 62l24 89l-141 508h55l112 -419l104 419h53l-155 -588q-7 -29 -14.5 -49.5t-20.5 -42t-33 -32.5t-46 -11q-24 0 -36 4zM273 611h-52v79h52v-79zM135 611h-52v79h52v-79z" />
    <glyph glyph-name="Amacron" unicode="&#x100;" horiz-adv-x="521" 
d="M373 771h-226v43h226v-43zM68 0h-56l220 667h58l219 -667h-59l-57 186h-267zM260 611l-119 -375h236z" />
    <glyph glyph-name="amacron" unicode="&#x101;" horiz-adv-x="428" 
d="M304 251h-28q-187 0 -187 -118q0 -44 23 -70.5t64 -26.5q60 0 94 45.5t34 113.5v56zM360 0h-49l-4 74q-17 -37 -52.5 -61t-81.5 -24q-64 0 -101.5 38t-37.5 109q0 46 21 79t56.5 50t74 24.5t82.5 7.5h36v37q0 61 -22.5 92.5t-81.5 31.5q-63 0 -117 -34l-6 52
q60 31 126 31q151 0 151 -161v-238q0 -36 6 -108zM316 632h-226v43h226v-43z" />
    <glyph glyph-name="Abreve" unicode="&#x102;" horiz-adv-x="521" 
d="M153 847h37q4 -33 23 -52.5t49 -19.5t49 19.5t23 52.5h37q0 -11 -4.5 -27t-15 -37t-34 -35t-55.5 -14t-55.5 14t-34 35t-15 37t-4.5 27zM68 0h-56l220 667h58l219 -667h-59l-57 186h-267zM260 611l-119 -375h236z" />
    <glyph glyph-name="abreve" unicode="&#x103;" horiz-adv-x="428" 
d="M95 708h37q4 -33 23 -52.5t49 -19.5t49 19.5t23 52.5h37q0 -11 -4.5 -27t-15 -37t-34 -35t-55.5 -14t-55.5 14t-34 35t-15 37t-4.5 27zM304 251h-28q-187 0 -187 -118q0 -44 23 -70.5t64 -26.5q60 0 94 45.5t34 113.5v56zM360 0h-49l-4 74q-17 -37 -52.5 -61t-81.5 -24
q-64 0 -101.5 38t-37.5 109q0 46 21 79t56.5 50t74 24.5t82.5 7.5h36v37q0 61 -22.5 92.5t-81.5 31.5q-63 0 -117 -34l-6 52q60 31 126 31q151 0 151 -161v-238q0 -36 6 -108z" />
    <glyph glyph-name="Aogonek" unicode="&#x104;" horiz-adv-x="521" 
d="M260 611l-119 -375h236zM68 0h-56l220 667h58l219 -667h-8q-73 -48 -73 -97q0 -24 13.5 -34t31.5 -10q22 0 45 11l10 -30q-28 -16 -63 -16q-39 0 -62.5 18.5t-23.5 55.5q0 62 78 102h-7l-57 186h-267z" />
    <glyph glyph-name="aogonek" unicode="&#x105;" horiz-adv-x="428" 
d="M304 251h-28q-187 0 -187 -118q0 -44 23 -70.5t64 -26.5q60 0 94 45.5t34 113.5v56zM383 -130l10 -30q-28 -16 -63 -16q-39 0 -62.5 18.5t-23.5 55.5q0 55 71 102h-4l-4 74q-17 -37 -52.5 -61t-81.5 -24q-64 0 -101.5 38t-37.5 109q0 46 21 79t56.5 50t74 24.5t82.5 7.5
h36v37q0 61 -22.5 92.5t-81.5 31.5q-63 0 -117 -34l-6 52q60 31 126 31q151 0 151 -161v-238q0 -36 6 -108h-1q-66 -49 -66 -97q0 -24 13.5 -34t31.5 -10q22 0 45 11z" />
    <glyph glyph-name="Cacute" unicode="&#x106;" horiz-adv-x="474" 
d="M318 724h-46l75 136h64zM436 71l6 -62q-60 -20 -113 -20q-94 0 -158.5 51t-91.5 126.5t-27 166.5t28 166.5t93.5 126.5t160.5 51q57 0 107 -23l-6 -62q-42 31 -108 31q-58 0 -101.5 -26t-67.5 -69.5t-35.5 -93t-11.5 -102.5q0 -52 12 -101t36 -92.5t67.5 -69.5t99.5 -26
q55 0 110 28z" />
    <glyph glyph-name="cacute" unicode="&#x107;" horiz-adv-x="366" 
d="M229 585h-46l75 136h64zM332 57l4 -52q-35 -16 -85 -16q-71 0 -119.5 40t-68 97t-19.5 124q0 109 56.5 183t147.5 74q46 0 83 -16l-6 -56q-32 23 -77 23q-40 0 -70 -19.5t-46.5 -51t-24.5 -66.5t-8 -71q0 -86 37.5 -149t119.5 -63q45 0 76 19z" />
    <glyph glyph-name="Ccircumflex" unicode="&#x108;" horiz-adv-x="474" 
d="M436 71l6 -62q-60 -20 -113 -20q-94 0 -158.5 51t-91.5 126.5t-27 166.5t28 166.5t93.5 126.5t160.5 51q57 0 107 -23l-6 -62q-42 31 -108 31q-58 0 -101.5 -26t-67.5 -69.5t-35.5 -93t-11.5 -102.5q0 -52 12 -101t36 -92.5t67.5 -69.5t99.5 -26q55 0 110 28zM245 724
h-54l91 136h53l92 -136h-54l-65 99z" />
    <glyph glyph-name="ccircumflex" unicode="&#x109;" horiz-adv-x="366" 
d="M332 57l4 -52q-35 -16 -85 -16q-71 0 -119.5 40t-68 97t-19.5 124q0 109 56.5 183t147.5 74q46 0 83 -16l-6 -56q-32 23 -77 23q-40 0 -70 -19.5t-46.5 -51t-24.5 -66.5t-8 -71q0 -86 37.5 -149t119.5 -63q45 0 76 19zM159 585h-54l91 136h53l92 -136h-54l-65 99z" />
    <glyph glyph-name="Cdotaccent" unicode="&#x10a;" horiz-adv-x="474" 
d="M436 71l6 -62q-60 -20 -113 -20q-94 0 -158.5 51t-91.5 126.5t-27 166.5t28 166.5t93.5 126.5t160.5 51q57 0 107 -23l-6 -62q-42 31 -108 31q-58 0 -101.5 -26t-67.5 -69.5t-35.5 -93t-11.5 -102.5q0 -52 12 -101t36 -92.5t67.5 -69.5t99.5 -26q55 0 110 28zM334 750
h-54v79h54v-79z" />
    <glyph glyph-name="cdotaccent" unicode="&#x10b;" horiz-adv-x="366" 
d="M332 57l4 -52q-35 -16 -85 -16q-71 0 -119.5 40t-68 97t-19.5 124q0 109 56.5 183t147.5 74q46 0 83 -16l-6 -56q-32 23 -77 23q-40 0 -70 -19.5t-46.5 -51t-24.5 -66.5t-8 -71q0 -86 37.5 -149t119.5 -63q45 0 76 19zM253 611h-54v79h54v-79z" />
    <glyph glyph-name="Ccaron" unicode="&#x10c;" horiz-adv-x="474" 
d="M334 724h-53l-92 136h54l65 -99l63 99h54zM436 71l6 -62q-60 -20 -113 -20q-94 0 -158.5 51t-91.5 126.5t-27 166.5t28 166.5t93.5 126.5t160.5 51q57 0 107 -23l-6 -62q-42 31 -108 31q-58 0 -101.5 -26t-67.5 -69.5t-35.5 -93t-11.5 -102.5q0 -52 12 -101t36 -92.5
t67.5 -69.5t99.5 -26q55 0 110 28z" />
    <glyph glyph-name="ccaron" unicode="&#x10d;" horiz-adv-x="366" 
d="M254 585h-53l-92 136h54l65 -99l63 99h54zM332 57l4 -52q-35 -16 -85 -16q-71 0 -119.5 40t-68 97t-19.5 124q0 109 56.5 183t147.5 74q46 0 83 -16l-6 -56q-32 23 -77 23q-40 0 -70 -19.5t-46.5 -51t-24.5 -66.5t-8 -71q0 -86 37.5 -149t119.5 -63q45 0 76 19z" />
    <glyph glyph-name="Dcaron" unicode="&#x10e;" horiz-adv-x="542" 
d="M269 724h-53l-92 136h54l65 -99l63 99h54zM183 0h-97v667h102q154 0 228 -85.5t74 -241.5q0 -159 -80.5 -249.5t-226.5 -90.5zM142 615v-563h45q64 0 112.5 22t76.5 62t41.5 91t13.5 113q0 123 -56 199t-174 76h-59z" />
    <glyph glyph-name="dcaron" unicode="&#x10f;" horiz-adv-x="451" 
d="M470 565h-38l17 156h58zM381 0h-46l-3 72q-44 -83 -123 -83q-46 0 -80.5 25.5t-51.5 67t-25 83.5t-8 85q0 44 7.5 85.5t25 82t51.5 65t82 24.5q71 0 117 -78v292h50v-567v-41q0 -25 4 -113zM153 61q23 -23 59 -23q118 0 118 212q0 36 -5 69t-16.5 66t-36.5 53t-60 20
q-113 0 -113 -208q0 -133 54 -189z" />
    <glyph glyph-name="Dcroat" unicode="&#x110;" horiz-adv-x="542" 
d="M173 0h-87v314h-59v49h59v304h102q154 0 228 -85.5t74 -241.5q0 -161 -80.5 -250.5t-236.5 -89.5zM142 314v-262h45q64 0 112.5 22t76.5 62t41.5 91t13.5 113q0 123 -56 199t-174 76h-59v-252h144v-49h-144z" />
    <glyph glyph-name="dcroat" unicode="&#x111;" horiz-adv-x="451" 
d="M153 61q23 -23 59 -23q118 0 118 212q0 36 -5 69t-16.5 66t-36.5 53t-60 20q-113 0 -113 -208q0 -133 54 -189zM381 0h-46l-3 72q-44 -83 -123 -83q-46 0 -80.5 25.5t-51.5 67t-25 83.5t-8 85q0 44 7.5 85.5t25 82t51.5 65t82 24.5q71 0 117 -78v166h-124v41h124v85h50
v-85h69v-41h-69v-441q0 -75 4 -154z" />
    <glyph glyph-name="Emacron" unicode="&#x112;" horiz-adv-x="421" 
d="M338 771h-226v43h226v-43zM375 0h-289v667h278v-52h-222v-243h211v-50h-211v-270h233v-52z" />
    <glyph glyph-name="emacron" unicode="&#x113;" horiz-adv-x="406" 
d="M97 286h216q-1 36 -5.5 63t-14 54.5t-29.5 42t-49 14.5q-56 0 -84.5 -53.5t-33.5 -120.5zM367 240h-270q0 -53 13 -96t48.5 -74.5t89.5 -31.5q58 0 98 27l4 -54q-47 -22 -103 -22t-97.5 22.5t-64 60.5t-33.5 82.5t-11 95.5q0 63 16.5 118.5t58 97t102.5 41.5
q46 0 77.5 -21.5t46 -61.5t20 -79.5t5.5 -91.5v-13zM327 632h-226v43h226v-43z" />
    <glyph glyph-name="Ebreve" unicode="&#x114;" horiz-adv-x="421" 
d="M375 0h-289v667h278v-52h-222v-243h211v-50h-211v-270h233v-52zM116 847h37q4 -33 23 -52.5t49 -19.5t49 19.5t23 52.5h37q0 -11 -4.5 -27t-15 -37t-34 -35t-55.5 -14t-55.5 14t-34 35t-15 37t-4.5 27z" />
    <glyph glyph-name="ebreve" unicode="&#x115;" horiz-adv-x="406" 
d="M97 286h216q-1 36 -5.5 63t-14 54.5t-29.5 42t-49 14.5q-56 0 -84.5 -53.5t-33.5 -120.5zM367 240h-270q0 -53 13 -96t48.5 -74.5t89.5 -31.5q58 0 98 27l4 -54q-47 -22 -103 -22t-97.5 22.5t-64 60.5t-33.5 82.5t-11 95.5q0 63 16.5 118.5t58 97t102.5 41.5
q46 0 77.5 -21.5t46 -61.5t20 -79.5t5.5 -91.5v-13zM105 708h37q4 -33 23 -52.5t49 -19.5t49 19.5t23 52.5h37q0 -11 -4.5 -27t-15 -37t-34 -35t-55.5 -14t-55.5 14t-34 35t-15 37t-4.5 27z" />
    <glyph glyph-name="Edotaccent" unicode="&#x116;" horiz-adv-x="421" 
d="M253 750h-54v79h54v-79zM375 0h-289v667h278v-52h-222v-243h211v-50h-211v-270h233v-52z" />
    <glyph glyph-name="edotaccent" unicode="&#x117;" horiz-adv-x="406" 
d="M240 611h-54v79h54v-79zM97 286h216q-1 36 -5.5 63t-14 54.5t-29.5 42t-49 14.5q-56 0 -84.5 -53.5t-33.5 -120.5zM367 240h-270q0 -53 13 -96t48.5 -74.5t89.5 -31.5q58 0 98 27l4 -54q-47 -22 -103 -22t-97.5 22.5t-64 60.5t-33.5 82.5t-11 95.5q0 63 16.5 118.5t58 97
t102.5 41.5q46 0 77.5 -21.5t46 -61.5t20 -79.5t5.5 -91.5v-13z" />
    <glyph glyph-name="Eogonek" unicode="&#x118;" horiz-adv-x="421" 
d="M306 0h-220v667h278v-52h-222v-243h211v-50h-211v-270h233v-52h-25q-73 -48 -73 -97q0 -24 13.5 -34t31.5 -10q22 0 45 11l10 -30q-28 -16 -63 -16q-39 0 -62.5 18.5t-23.5 55.5q0 62 78 102z" />
    <glyph glyph-name="eogonek" unicode="&#x119;" horiz-adv-x="406" 
d="M97 286h216q-1 36 -5.5 63t-14 54.5t-29.5 42t-49 14.5q-56 0 -84.5 -53.5t-33.5 -120.5zM307 -130l10 -30q-28 -16 -63 -16q-39 0 -62.5 18.5t-23.5 55.5q0 53 56 92q-94 8 -138.5 82.5t-44.5 177.5q0 63 16.5 118.5t58 97t102.5 41.5q46 0 77.5 -21.5t46 -61.5
t20 -79.5t5.5 -91.5v-13h-270q0 -53 13 -96t48.5 -74.5t89.5 -31.5q58 0 98 27l4 -54q-38 -17 -78 -21q-55 -41 -55 -87q0 -24 13.5 -34t31.5 -10q22 0 45 11z" />
    <glyph glyph-name="Ecaron" unicode="&#x11a;" horiz-adv-x="421" 
d="M253 724h-53l-92 136h54l65 -99l63 99h54zM375 0h-289v667h278v-52h-222v-243h211v-50h-211v-270h233v-52z" />
    <glyph glyph-name="ecaron" unicode="&#x11b;" horiz-adv-x="406" 
d="M240 585h-53l-92 136h54l65 -99l63 99h54zM97 286h216q-1 36 -5.5 63t-14 54.5t-29.5 42t-49 14.5q-56 0 -84.5 -53.5t-33.5 -120.5zM367 240h-270q0 -53 13 -96t48.5 -74.5t89.5 -31.5q58 0 98 27l4 -54q-47 -22 -103 -22t-97.5 22.5t-64 60.5t-33.5 82.5t-11 95.5
q0 63 16.5 118.5t58 97t102.5 41.5q46 0 77.5 -21.5t46 -61.5t20 -79.5t5.5 -91.5v-13z" />
    <glyph glyph-name="Gcircumflex" unicode="&#x11c;" horiz-adv-x="544" 
d="M482 354v-327q-66 -38 -147 -38q-58 0 -106 19.5t-80.5 52t-54.5 77t-32 93.5t-10 102q0 88 30 164.5t95.5 128t154.5 51.5q77 0 138 -34l-6 -63q-26 20 -65 31.5t-73 11.5q-45 0 -82 -17.5t-61 -46t-40.5 -67t-24 -78.5t-7.5 -81q0 -55 13 -105t39 -92.5t71 -67.5
t104 -25q52 0 90 22v237h-119v52h173zM253 724h-54l91 136h53l92 -136h-54l-65 99z" />
    <glyph glyph-name="gcircumflex" unicode="&#x11d;" horiz-adv-x="451" 
d="M66 -199l6 59q63 -37 129 -37q30 0 52.5 9.5t36 29t21.5 38t11 48.5t4 48.5t1 49.5v27q-45 -73 -118 -73q-47 0 -81 22.5t-51 61t-25 79.5t-8 87q0 44 8 85.5t25.5 82t51.5 65t81 24.5q77 0 120 -78v68h47v-488q0 -48 -8.5 -88t-28 -74t-54.5 -53.5t-84 -19.5
q-55 0 -136 27zM117 120q27 -71 93 -71q120 0 120 201q0 36 -5 69t-16.5 66t-36.5 53t-60 20q-113 0 -113 -208q0 -81 18 -130zM160 585h-54l91 136h53l92 -136h-54l-65 99z" />
    <glyph glyph-name="Gbreve" unicode="&#x11e;" horiz-adv-x="544" 
d="M209 847h37q4 -33 23 -52.5t49 -19.5t49 19.5t23 52.5h37q0 -11 -4.5 -27t-15 -37t-34 -35t-55.5 -14t-55.5 14t-34 35t-15 37t-4.5 27zM482 354v-327q-66 -38 -147 -38q-58 0 -106 19.5t-80.5 52t-54.5 77t-32 93.5t-10 102q0 88 30 164.5t95.5 128t154.5 51.5
q77 0 138 -34l-6 -63q-26 20 -65 31.5t-73 11.5q-45 0 -82 -17.5t-61 -46t-40.5 -67t-24 -78.5t-7.5 -81q0 -55 13 -105t39 -92.5t71 -67.5t104 -25q52 0 90 22v237h-119v52h173z" />
    <glyph glyph-name="gbreve" unicode="&#x11f;" horiz-adv-x="451" 
d="M116 708h37q4 -33 23 -52.5t49 -19.5t49 19.5t23 52.5h37q0 -11 -4.5 -27t-15 -37t-34 -35t-55.5 -14t-55.5 14t-34 35t-15 37t-4.5 27zM66 -199l6 59q63 -37 129 -37q30 0 52.5 9.5t36 29t21.5 38t11 48.5t4 48.5t1 49.5v27q-45 -73 -118 -73q-47 0 -81 22.5t-51 61
t-25 79.5t-8 87q0 44 8 85.5t25.5 82t51.5 65t81 24.5q77 0 120 -78v68h47v-488q0 -48 -8.5 -88t-28 -74t-54.5 -53.5t-84 -19.5q-55 0 -136 27zM117 120q27 -71 93 -71q120 0 120 201q0 36 -5 69t-16.5 66t-36.5 53t-60 20q-113 0 -113 -208q0 -81 18 -130z" />
    <glyph glyph-name="Gdotaccent" unicode="&#x120;" horiz-adv-x="544" 
d="M482 354v-327q-66 -38 -147 -38q-58 0 -106 19.5t-80.5 52t-54.5 77t-32 93.5t-10 102q0 88 30 164.5t95.5 128t154.5 51.5q77 0 138 -34l-6 -63q-26 20 -65 31.5t-73 11.5q-45 0 -82 -17.5t-61 -46t-40.5 -67t-24 -78.5t-7.5 -81q0 -55 13 -105t39 -92.5t71 -67.5
t104 -25q52 0 90 22v237h-119v52h173zM345 750h-54v79h54v-79z" />
    <glyph glyph-name="gdotaccent" unicode="&#x121;" horiz-adv-x="451" 
d="M66 -199l6 59q63 -37 129 -37q30 0 52.5 9.5t36 29t21.5 38t11 48.5t4 48.5t1 49.5v27q-45 -73 -118 -73q-47 0 -81 22.5t-51 61t-25 79.5t-8 87q0 44 8 85.5t25.5 82t51.5 65t81 24.5q77 0 120 -78v68h47v-488q0 -48 -8.5 -88t-28 -74t-54.5 -53.5t-84 -19.5
q-55 0 -136 27zM117 120q27 -71 93 -71q120 0 120 201q0 36 -5 69t-16.5 66t-36.5 53t-60 20q-113 0 -113 -208q0 -81 18 -130zM251 611h-54v79h54v-79z" />
    <glyph glyph-name="Gcommaaccent" unicode="&#x122;" horiz-adv-x="544" 
d="M308 -227h-41l33 158h56zM482 354v-327q-66 -38 -147 -38q-58 0 -106 19.5t-80.5 52t-54.5 77t-32 93.5t-10 102q0 88 30 164.5t95.5 128t154.5 51.5q77 0 138 -34l-6 -63q-26 20 -65 31.5t-73 11.5q-45 0 -82 -17.5t-61 -46t-40.5 -67t-24 -78.5t-7.5 -81q0 -55 13 -105
t39 -92.5t71 -67.5t104 -25q52 0 90 22v237h-119v52h173z" />
    <glyph glyph-name="gcommaaccent" unicode="&#x123;" horiz-adv-x="451" 
d="M252 585h-57l44 136h41zM66 -199l6 59q63 -37 129 -37q30 0 52.5 9.5t36 29t21.5 38t11 48.5t4 48.5t1 49.5v27q-45 -73 -118 -73q-47 0 -81 22.5t-51 61t-25 79.5t-8 87q0 44 8 85.5t25.5 82t51.5 65t81 24.5q77 0 120 -78v68h47v-488q0 -48 -8.5 -88t-28 -74
t-54.5 -53.5t-84 -19.5q-55 0 -136 27zM117 120q27 -71 93 -71q120 0 120 201q0 36 -5 69t-16.5 66t-36.5 53t-60 20q-113 0 -113 -208q0 -81 18 -130z" />
    <glyph glyph-name="Hcircumflex" unicode="&#x124;" horiz-adv-x="543" 
d="M142 0h-56v667h56v-293h259v293h56v-667h-56v322h-259v-322zM209 724h-54l91 136h53l92 -136h-54l-65 99z" />
    <glyph glyph-name="hcircumflex" unicode="&#x125;" horiz-adv-x="450" 
d="M124 0h-50v721h50v-295q17 35 49 58t70 23q69 0 101 -46t32 -117v-344h-50v345q0 50 -22 81.5t-68 31.5q-50 0 -81 -45t-31 -96v-317zM150 769h-54l91 136h53l92 -136h-54l-65 99z" />
    <glyph glyph-name="Hbar" unicode="&#x126;" horiz-adv-x="543" 
d="M142 464v-120h259v120h-259zM142 0h-56v667h56v-156h259v156h56v-667h-56v292h-259v-292z" />
    <glyph glyph-name="hbar" unicode="&#x127;" horiz-adv-x="450" 
d="M124 0h-50v594h-69v41h69v86h50v-86h124v-41h-124v-168q17 35 49 58t70 23q69 0 101 -46t32 -117v-344h-50v345q0 50 -22 81.5t-68 31.5q-50 0 -81 -45t-31 -96v-317z" />
    <glyph glyph-name="Itilde" unicode="&#x128;" horiz-adv-x="228" 
d="M142 0h-56v667h56v-667zM26 742h-37q0 37 20.5 65t56.5 28q22 0 56.5 -20.5t45.5 -20.5q16 0 25.5 15.5t9.5 31.5h38q0 -33 -21 -63t-53 -30q-25 0 -55 20.5t-46 20.5t-28 -15t-12 -32z" />
    <glyph glyph-name="itilde" unicode="&#x129;" 
d="M124 0h-50v497h50v-497zM11 603h-37q0 37 20.5 65t56.5 28q22 0 56.5 -20.5t45.5 -20.5q16 0 25.5 15.5t9.5 31.5h38q0 -33 -21 -63t-53 -30q-25 0 -55 20.5t-46 20.5t-28 -15t-12 -32z" />
    <glyph glyph-name="Imacron" unicode="&#x12a;" horiz-adv-x="228" 
d="M227 771h-226v43h226v-43zM142 0h-56v667h56v-667z" />
    <glyph glyph-name="imacron" unicode="&#x12b;" 
d="M124 0h-50v497h50v-497zM212 632h-226v43h226v-43z" />
    <glyph glyph-name="Iogonek" unicode="&#x12e;" horiz-adv-x="228" 
d="M175 -130l10 -30q-28 -16 -63 -16q-39 0 -63 18.5t-24 55.5q0 49 63 102h-12v667h56v-667q-58 -46 -58 -97q0 -24 14 -34t32 -10q22 0 45 11z" />
    <glyph glyph-name="iogonek" unicode="&#x12f;" 
d="M126 611h-54v79h54v-79zM160 -130l10 -30q-28 -16 -63 -16q-39 0 -63 18.5t-24 55.5q0 49 60 102h-6v497h50v-497h-1q-54 -44 -54 -97q0 -24 14 -34t32 -10q22 0 45 11z" />
    <glyph glyph-name="Idotaccent" unicode="&#x130;" horiz-adv-x="228" 
d="M141 750h-54v79h54v-79zM142 0h-56v667h56v-667z" />
    <glyph glyph-name="dotlessi" unicode="&#x131;" 
d="M124 0h-50v497h50v-497z" />
    <glyph glyph-name="Jcircumflex" unicode="&#x134;" horiz-adv-x="259" 
d="M0 -2l6 57q26 -12 41 -12q19 0 33 5.5t22 17t13 22.5t7 29.5t2.5 29.5t0.5 31v489h56v-492q0 -42 -5 -72t-18.5 -58t-41.5 -42t-71 -14q-9 0 -45 9zM86 724h-54l91 136h53l92 -136h-54l-65 99z" />
    <glyph glyph-name="jcircumflex" unicode="&#x135;" horiz-adv-x="202" 
d="M-2 -220l6 49q12 -6 23 -6q26 0 38.5 12.5t12.5 53.5v608h50v-600q0 -123 -94 -123q-22 0 -36 6zM37 585h-54l91 136h53l92 -136h-54l-65 99z" />
    <glyph glyph-name="Kcommaaccent" unicode="&#x136;" horiz-adv-x="477" 
d="M258 -227h-41l33 158h56zM142 0h-56v667h56v-304l241 304h68l-260 -317l282 -350h-72l-259 332v-332z" />
    <glyph glyph-name="kcommaaccent" unicode="&#x137;" horiz-adv-x="390" 
d="M197 -227h-41l33 158h56zM124 0h-50v721h50v-430l177 206h63l-194 -219l212 -278h-63l-195 263v-263z" />
    <glyph glyph-name="Lacute" unicode="&#x139;" horiz-adv-x="373" 
d="M142 724h-46l75 136h64zM355 0h-269v667h56v-615h213v-52z" />
    <glyph glyph-name="lacute" unicode="&#x13a;" 
d="M124 0h-50v721h50v-721zM110 769h-46l75 136h64z" />
    <glyph glyph-name="Lcommaaccent" unicode="&#x13b;" horiz-adv-x="373" 
d="M206 -227h-41l33 158h56zM355 0h-269v667h56v-615h213v-52z" />
    <glyph glyph-name="lcommaaccent" unicode="&#x13c;" 
d="M80 -227h-41l33 158h56zM124 0h-50v721h50v-721z" />
    <glyph glyph-name="Lcaron" unicode="&#x13d;" horiz-adv-x="373" 
d="M273 565h-38l17 156h58zM355 0h-269v667h56v-615h213v-52z" />
    <glyph glyph-name="lcaron" unicode="&#x13e;" 
d="M217 565h-38l17 156h58zM124 0h-50v721h50v-721z" />
    <glyph glyph-name="Ldot" unicode="&#x13f;" horiz-adv-x="373" 
d="M355 0h-269v667h56v-615h213v-52zM327 308h-54v79h54v-79z" />
    <glyph glyph-name="ldot" unicode="&#x140;" horiz-adv-x="275" 
d="M124 0h-50v721h50v-721zM266 308h-54v79h54v-79z" />
    <glyph glyph-name="Lslash" unicode="&#x141;" horiz-adv-x="373" 
d="M355 0h-269v293l-58 -70v64l58 70v310h56v-248l107 130v-66l-107 -129v-302h213v-52z" />
    <glyph glyph-name="lslash" unicode="&#x142;" 
d="M124 0h-50v324l-54 -66v64l54 67v332h50v-271l54 67v-65l-54 -66v-386z" />
    <glyph glyph-name="Nacute" unicode="&#x143;" horiz-adv-x="579" 
d="M140 0h-54v667h80l273 -599v599h54v-667h-80l-273 597v-597zM308 724h-46l75 136h64z" />
    <glyph glyph-name="nacute" unicode="&#x144;" horiz-adv-x="450" 
d="M230 585h-46l75 136h64zM124 0h-50v342q0 30 -2 83.5t-2 71.5h47l2 -71q17 35 49.5 58t74.5 23q69 0 101 -46t32 -117v-344h-50v345q0 50 -22 81.5t-68 31.5q-52 0 -82 -44.5t-30 -96.5v-317z" />
    <glyph glyph-name="Ncommaaccent" unicode="&#x145;" horiz-adv-x="579" 
d="M280 -227h-41l33 158h56zM140 0h-54v667h80l273 -599v599h54v-667h-80l-273 597v-597z" />
    <glyph glyph-name="ncommaaccent" unicode="&#x146;" horiz-adv-x="450" 
d="M211 -227h-41l33 158h56zM124 0h-50v342q0 30 -2 83.5t-2 71.5h47l2 -71q17 35 49.5 58t74.5 23q69 0 101 -46t32 -117v-344h-50v345q0 50 -22 81.5t-68 31.5q-52 0 -82 -44.5t-30 -96.5v-317z" />
    <glyph glyph-name="Ncaron" unicode="&#x147;" horiz-adv-x="579" 
d="M324 724h-53l-92 136h54l65 -99l63 99h54zM140 0h-54v667h80l273 -599v599h54v-667h-80l-273 597v-597z" />
    <glyph glyph-name="ncaron" unicode="&#x148;" horiz-adv-x="450" 
d="M253 585h-53l-92 136h54l65 -99l63 99h54zM124 0h-50v342q0 30 -2 83.5t-2 71.5h47l2 -71q17 35 49.5 58t74.5 23q69 0 101 -46t32 -117v-344h-50v345q0 50 -22 81.5t-68 31.5q-52 0 -82 -44.5t-30 -96.5v-317z" />
    <glyph glyph-name="Omacron" unicode="&#x14c;" horiz-adv-x="563" 
d="M394 771h-226v43h226v-43zM164 21q-112 84 -112 312q0 61 11 117t35.5 109.5t71.5 85.5t111 32q46 0 83.5 -14.5t62 -41t41.5 -59t26 -73t13 -78t4 -78.5q0 -61 -10.5 -117t-35 -109.5t-72 -85.5t-112.5 -32q-71 0 -117 32zM170 92q40 -50 111 -50q43 0 75 20t50 49.5
t29 71t14 76.5t3 74q0 291 -171 291q-53 0 -89 -28.5t-52.5 -76.5t-22.5 -92t-6 -94q0 -169 59 -241z" />
    <glyph glyph-name="omacron" unicode="&#x14d;" horiz-adv-x="444" 
d="M135 13q-91 67 -91 237q0 46 9.5 89t29 82t55.5 62.5t84 23.5q51 0 88 -23t55.5 -62.5t26.5 -81.5t8 -90q0 -47 -8.5 -90t-27.5 -83t-55.5 -64t-86.5 -24q-52 0 -87 24zM121 114q30 -76 101 -76q37 0 63 21t38 56t17 67.5t5 67.5q0 208 -123 208q-36 0 -61.5 -21t-38 -55
t-18 -66.5t-5.5 -65.5q0 -80 22 -136zM336 632h-226v43h226v-43z" />
    <glyph glyph-name="Obreve" unicode="&#x14e;" horiz-adv-x="563" 
d="M164 21q-112 84 -112 312q0 61 11 117t35.5 109.5t71.5 85.5t111 32q46 0 83.5 -14.5t62 -41t41.5 -59t26 -73t13 -78t4 -78.5q0 -61 -10.5 -117t-35 -109.5t-72 -85.5t-112.5 -32q-71 0 -117 32zM170 92q40 -50 111 -50q43 0 75 20t50 49.5t29 71t14 76.5t3 74
q0 291 -171 291q-53 0 -89 -28.5t-52.5 -76.5t-22.5 -92t-6 -94q0 -169 59 -241zM172 847h37q4 -33 23 -52.5t49 -19.5t49 19.5t23 52.5h37q0 -11 -4.5 -27t-15 -37t-34 -35t-55.5 -14t-55.5 14t-34 35t-15 37t-4.5 27z" />
    <glyph glyph-name="obreve" unicode="&#x14f;" horiz-adv-x="444" 
d="M135 13q-91 67 -91 237q0 46 9.5 89t29 82t55.5 62.5t84 23.5q51 0 88 -23t55.5 -62.5t26.5 -81.5t8 -90q0 -47 -8.5 -90t-27.5 -83t-55.5 -64t-86.5 -24q-52 0 -87 24zM121 114q30 -76 101 -76q37 0 63 21t38 56t17 67.5t5 67.5q0 208 -123 208q-36 0 -61.5 -21t-38 -55
t-18 -66.5t-5.5 -65.5q0 -80 22 -136zM114 708h37q4 -33 23 -52.5t49 -19.5t49 19.5t23 52.5h37q0 -11 -4.5 -27t-15 -37t-34 -35t-55.5 -14t-55.5 14t-34 35t-15 37t-4.5 27z" />
    <glyph glyph-name="Ohungarumlaut" unicode="&#x150;" horiz-adv-x="563" 
d="M232 724h-47l73 136h66zM361 724h-47l74 136h65zM164 21q-112 84 -112 312q0 61 11 117t35.5 109.5t71.5 85.5t111 32q46 0 83.5 -14.5t62 -41t41.5 -59t26 -73t13 -78t4 -78.5q0 -61 -10.5 -117t-35 -109.5t-72 -85.5t-112.5 -32q-71 0 -117 32zM170 92q40 -50 111 -50
q43 0 75 20t50 49.5t29 71t14 76.5t3 74q0 291 -171 291q-53 0 -89 -28.5t-52.5 -76.5t-22.5 -92t-6 -94q0 -169 59 -241z" />
    <glyph glyph-name="ohungarumlaut" unicode="&#x151;" horiz-adv-x="444" 
d="M307 585h-47l74 136h65zM178 585h-47l73 136h66zM135 13q-91 67 -91 237q0 46 9.5 89t29 82t55.5 62.5t84 23.5q51 0 88 -23t55.5 -62.5t26.5 -81.5t8 -90q0 -47 -8.5 -90t-27.5 -83t-55.5 -64t-86.5 -24q-52 0 -87 24zM121 114q30 -76 101 -76q37 0 63 21t38 56t17 67.5
t5 67.5q0 208 -123 208q-36 0 -61.5 -21t-38 -55t-18 -66.5t-5.5 -65.5q0 -80 22 -136z" />
    <glyph glyph-name="OE" unicode="&#x152;" horiz-adv-x="705" 
d="M659 0h-292q-25 -11 -85 -11q-55 0 -97 21.5t-66.5 55.5t-40 81t-20.5 91.5t-5 94.5q0 61 11 117t35.5 109.5t71.5 85.5t111 32q53 0 85 -10h281v-52h-222v-243h211v-50h-211v-270h233v-52zM370 55v556q-35 13 -88 13t-89 -28.5t-52.5 -76.5t-22.5 -92t-6 -94
q0 -291 170 -291q60 0 88 13z" />
    <glyph glyph-name="oe" unicode="&#x153;" horiz-adv-x="706" 
d="M664 235h-265q0 -197 136 -197q61 0 108 39l6 -60q-49 -28 -119 -28q-115 0 -160 104q-47 -104 -148 -104q-50 0 -86.5 24t-55.5 64t-27.5 83t-8.5 90q0 46 9.5 89t29 82t55.5 62.5t84 23.5q99 0 148 -102q21 47 57.5 74.5t83.5 27.5q45 0 77 -23t47.5 -62t22 -78
t6.5 -83v-26zM399 281h210q0 28 -4.5 55.5t-14.5 56.5t-30.5 47t-49.5 18q-37 0 -63.5 -30t-37 -68.5t-10.5 -78.5zM121 114q30 -76 101 -76q37 0 63 21t38 56t17 67.5t5 67.5q0 208 -123 208q-36 0 -61.5 -21t-38 -55t-18 -66.5t-5.5 -65.5q0 -80 22 -136z" />
    <glyph glyph-name="Racute" unicode="&#x154;" horiz-adv-x="477" 
d="M236 724h-46l75 136h64zM142 0h-56v667h152q79 0 126.5 -46t47.5 -126q0 -66 -33.5 -108t-96.5 -53q28 -5 41.5 -18t23.5 -41l104 -275h-60l-83 230q-8 21 -13 32t-15 24.5t-24 19.5t-34 6h-80v-312zM142 615v-251h84q127 0 127 130q0 121 -131 121h-80z" />
    <glyph glyph-name="racute" unicode="&#x155;" horiz-adv-x="268" 
d="M171 585h-46l75 136h64zM124 0h-50v342q0 30 -2 83.5t-2 71.5h47l2 -74q16 36 46.5 60t66.5 24q11 0 20 -3l-6 -54q-14 2 -15 2q-48 0 -77.5 -44t-29.5 -97v-311z" />
    <glyph glyph-name="Rcommaaccent" unicode="&#x156;" horiz-adv-x="477" 
d="M242 -227h-41l33 158h56zM142 0h-56v667h152q79 0 126.5 -46t47.5 -126q0 -66 -33.5 -108t-96.5 -53q28 -5 41.5 -18t23.5 -41l104 -275h-60l-83 230q-8 21 -13 32t-15 24.5t-24 19.5t-34 6h-80v-312zM142 615v-251h84q127 0 127 130q0 121 -131 121h-80z" />
    <glyph glyph-name="rcommaaccent" unicode="&#x157;" horiz-adv-x="268" 
d="M80 -227h-41l33 158h56zM124 0h-50v342q0 30 -2 83.5t-2 71.5h47l2 -74q16 36 46.5 60t66.5 24q11 0 20 -3l-6 -54q-14 2 -15 2q-48 0 -77.5 -44t-29.5 -97v-311z" />
    <glyph glyph-name="Rcaron" unicode="&#x158;" horiz-adv-x="477" 
d="M252 724h-53l-92 136h54l65 -99l63 99h54zM142 0h-56v667h152q79 0 126.5 -46t47.5 -126q0 -66 -33.5 -108t-96.5 -53q28 -5 41.5 -18t23.5 -41l104 -275h-60l-83 230q-8 21 -13 32t-15 24.5t-24 19.5t-34 6h-80v-312zM142 615v-251h84q127 0 127 130q0 121 -131 121h-80
z" />
    <glyph glyph-name="rcaron" unicode="&#x159;" horiz-adv-x="268" 
d="M193 585h-53l-92 136h54l65 -99l63 99h54zM124 0h-50v342q0 30 -2 83.5t-2 71.5h47l2 -74q16 36 46.5 60t66.5 24q11 0 20 -3l-6 -54q-14 2 -15 2q-48 0 -77.5 -44t-29.5 -97v-311z" />
    <glyph glyph-name="Sacute" unicode="&#x15a;" horiz-adv-x="405" 
d="M218 724h-46l75 136h64zM40 16l6 63q60 -36 123 -36q61 0 94.5 32.5t33.5 94.5q0 47 -23.5 77.5t-81.5 71.5l-37 26q-53 38 -76 72.5t-23 86.5q0 48 18 83.5t46.5 54t56.5 27t56 8.5q59 0 107 -19l-6 -60q-47 25 -104 25q-45 0 -80 -28.5t-35 -83.5q0 -42 19 -66t62 -56
l37 -25q65 -44 95 -85.5t30 -102.5q0 -91 -54 -139t-134 -48q-72 0 -130 27z" />
    <glyph glyph-name="sacute" unicode="&#x15b;" horiz-adv-x="333" 
d="M173 585h-46l75 136h64zM33 7l6 57q54 -26 108 -26q46 0 71.5 23t25.5 65q0 33 -21 57.5t-51 40.5l-59.5 33t-50.5 46t-21 70q0 64 43 99t102 35q51 0 90 -14l-6 -54q-37 19 -83 19q-37 0 -64 -20t-27 -59q0 -33 21 -56t51 -38t59.5 -32t50.5 -46.5t21 -71.5
q0 -68 -43 -107t-111 -39q-62 0 -112 18z" />
    <glyph glyph-name="Scircumflex" unicode="&#x15c;" horiz-adv-x="405" 
d="M40 16l6 63q60 -36 123 -36q61 0 94.5 32.5t33.5 94.5q0 47 -23.5 77.5t-81.5 71.5l-37 26q-53 38 -76 72.5t-23 86.5q0 48 18 83.5t46.5 54t56.5 27t56 8.5q59 0 107 -19l-6 -60q-47 25 -104 25q-45 0 -80 -28.5t-35 -83.5q0 -42 19 -66t62 -56l37 -25q65 -44 95 -85.5
t30 -102.5q0 -91 -54 -139t-134 -48q-72 0 -130 27zM146 724h-54l91 136h53l92 -136h-54l-65 99z" />
    <glyph glyph-name="scircumflex" unicode="&#x15d;" horiz-adv-x="333" 
d="M33 7l6 57q54 -26 108 -26q46 0 71.5 23t25.5 65q0 33 -21 57.5t-51 40.5l-59.5 33t-50.5 46t-21 70q0 64 43 99t102 35q51 0 90 -14l-6 -54q-37 19 -83 19q-37 0 -64 -20t-27 -59q0 -33 21 -56t51 -38t59.5 -32t50.5 -46.5t21 -71.5q0 -68 -43 -107t-111 -39
q-62 0 -112 18zM104 585h-54l91 136h53l92 -136h-54l-65 99z" />
    <glyph glyph-name="Scedilla" unicode="&#x15e;" horiz-adv-x="405" 
d="M95 -161l11 32q34 -14 69 -14q22 0 34.5 9.5t12.5 24.5q0 31 -35 31q-19 0 -37 -6l-12 18l40 55h-8q-72 0 -130 27l6 63q60 -36 123 -36q61 0 94.5 32.5t33.5 94.5q0 47 -23.5 77.5t-81.5 71.5l-37 26q-53 38 -76 72.5t-23 86.5q0 48 18 83.5t46.5 54t56.5 27t56 8.5
q59 0 107 -19l-6 -60q-47 25 -104 25q-45 0 -80 -28.5t-35 -83.5q0 -42 19 -66t62 -56l37 -25q65 -44 95 -85.5t30 -102.5q0 -77 -39.5 -123t-103.5 -59l-35 -48q9 3 29 3q27 0 45 -15.5t18 -39.5q0 -33 -25.5 -51.5t-68.5 -18.5q-47 0 -83 15z" />
    <glyph glyph-name="scedilla" unicode="&#x15f;" horiz-adv-x="333" 
d="M66 -161l11 32q34 -14 69 -14q22 0 34.5 9.5t12.5 24.5q0 31 -35 31q-19 0 -37 -6l-12 18l40 55h-4q-62 0 -112 18l6 57q54 -26 108 -26q46 0 71.5 23t25.5 65q0 33 -21 57.5t-51 40.5l-59.5 33t-50.5 46t-21 70q0 64 43 99t102 35q51 0 90 -14l-6 -54q-37 19 -83 19
q-37 0 -64 -20t-27 -59q0 -33 21 -56t51 -38t59.5 -32t50.5 -46.5t21 -71.5q0 -58 -30.5 -94t-83.5 -48l-34 -47q9 3 29 3q27 0 45 -15.5t18 -39.5q0 -33 -25.5 -51.5t-68.5 -18.5q-47 0 -83 15z" />
    <glyph glyph-name="Scaron" unicode="&#x160;" horiz-adv-x="405" 
d="M40 16l6 63q60 -36 123 -36q61 0 94.5 32.5t33.5 94.5q0 47 -23.5 77.5t-81.5 71.5l-37 26q-53 38 -76 72.5t-23 86.5q0 48 18 83.5t46.5 54t56.5 27t56 8.5q59 0 107 -19l-6 -60q-47 25 -104 25q-45 0 -80 -28.5t-35 -83.5q0 -42 19 -66t62 -56l37 -25q65 -44 95 -85.5
t30 -102.5q0 -91 -54 -139t-134 -48q-72 0 -130 27zM238 724h-53l-92 136h54l65 -99l63 99h54z" />
    <glyph glyph-name="scaron" unicode="&#x161;" horiz-adv-x="333" 
d="M33 7l6 57q54 -26 108 -26q46 0 71.5 23t25.5 65q0 33 -21 57.5t-51 40.5l-59.5 33t-50.5 46t-21 70q0 64 43 99t102 35q51 0 90 -14l-6 -54q-37 19 -83 19q-37 0 -64 -20t-27 -59q0 -33 21 -56t51 -38t59.5 -32t50.5 -46.5t21 -71.5q0 -68 -43 -107t-111 -39
q-62 0 -112 18zM193 585h-53l-92 136h54l65 -99l63 99h54z" />
    <glyph glyph-name="Tcommaaccent" unicode="&#x162;" horiz-adv-x="382" 
d="M172 -227h-41l33 158h56zM219 0h-56v615h-151v52h358v-52h-151v-615z" />
    <glyph glyph-name="tcommaaccent" unicode="&#x163;" horiz-adv-x="259" 
d="M135 -227h-41l33 158h56zM233 54l6 -54q-35 -11 -64 -11q-87 0 -87 103v359h-72v46h72v115l50 18v-133h99v-46h-99v-339q0 -24 2 -37t14 -25t35 -12q14 0 44 16z" />
    <glyph glyph-name="Tcaron" unicode="&#x164;" horiz-adv-x="382" 
d="M218 724h-53l-92 136h54l65 -99l63 99h54zM219 0h-56v615h-151v52h358v-52h-151v-615z" />
    <glyph glyph-name="tcaron" unicode="&#x165;" horiz-adv-x="259" 
d="M232 565h-38l17 156h58zM233 54l6 -54q-35 -11 -64 -11q-87 0 -87 103v359h-72v46h72v115l50 18v-133h99v-46h-99v-339q0 -24 2 -37t14 -25t35 -12q14 0 44 16z" />
    <glyph glyph-name="Tbar" unicode="&#x166;" horiz-adv-x="382" 
d="M219 0h-56v416h-110v48h110v151h-151v52h358v-52h-151v-151h113v-48h-113v-416z" />
    <glyph glyph-name="tbar" unicode="&#x167;" horiz-adv-x="259" 
d="M233 54l6 -54q-35 -11 -64 -11q-87 0 -87 103v213h-63v44h63v102h-72v46h72v115l50 18v-133h99v-46h-99v-102h87v-44h-87v-193q0 -24 2 -37t14 -25t35 -12q14 0 44 16z" />
    <glyph glyph-name="Utilde" unicode="&#x168;" horiz-adv-x="543" 
d="M134 667v-424q0 -34 2.5 -59.5t10.5 -53.5t22.5 -46.5t40 -30.5t61.5 -12q43 0 72 17t42.5 48.5t18.5 63t5 73.5v424h56v-425q0 -52 -9.5 -94.5t-30.5 -79.5t-60.5 -58t-93.5 -21q-57 0 -96 20t-59.5 57t-29 79.5t-8.5 96.5v425h56zM182 742h-37q0 37 20.5 65t56.5 28
q22 0 56.5 -20.5t45.5 -20.5q16 0 25.5 15.5t9.5 31.5h38q0 -33 -21 -63t-53 -30q-25 0 -54.5 20.5t-46.5 20.5q-16 0 -28 -15t-12 -32z" />
    <glyph glyph-name="utilde" unicode="&#x169;" horiz-adv-x="446" 
d="M122 497v-345q0 -50 22 -82t67 -32q52 0 81.5 45t29.5 97v317h50v-342q0 -30 2 -83.5t2 -71.5h-47l-2 70q-40 -81 -123 -81q-69 0 -100.5 46t-31.5 118v344h50zM132 603h-37q0 37 20.5 65t56.5 28q22 0 56.5 -20.5t45.5 -20.5q16 0 25.5 15.5t9.5 31.5h38q0 -33 -21 -63
t-53 -30q-25 0 -55 20.5t-46 20.5t-28 -15t-12 -32z" />
    <glyph glyph-name="Umacron" unicode="&#x16a;" horiz-adv-x="543" 
d="M383 771h-226v43h226v-43zM134 667v-424q0 -34 2.5 -59.5t10.5 -53.5t22.5 -46.5t40 -30.5t61.5 -12q43 0 72 17t42.5 48.5t18.5 63t5 73.5v424h56v-425q0 -52 -9.5 -94.5t-30.5 -79.5t-60.5 -58t-93.5 -21q-57 0 -96 20t-59.5 57t-29 79.5t-8.5 96.5v425h56z" />
    <glyph glyph-name="umacron" unicode="&#x16b;" horiz-adv-x="446" 
d="M122 497v-345q0 -50 22 -82t67 -32q52 0 81.5 45t29.5 97v317h50v-342q0 -30 2 -83.5t2 -71.5h-47l-2 70q-40 -81 -123 -81q-69 0 -100.5 46t-31.5 118v344h50zM335 632h-226v43h226v-43z" />
    <glyph glyph-name="Ubreve" unicode="&#x16c;" horiz-adv-x="543" 
d="M134 667v-424q0 -34 2.5 -59.5t10.5 -53.5t22.5 -46.5t40 -30.5t61.5 -12q43 0 72 17t42.5 48.5t18.5 63t5 73.5v424h56v-425q0 -52 -9.5 -94.5t-30.5 -79.5t-60.5 -58t-93.5 -21q-57 0 -96 20t-59.5 57t-29 79.5t-8.5 96.5v425h56zM162 847h37q4 -33 23 -52.5t49 -19.5
t49 19.5t23 52.5h37q0 -11 -4.5 -27t-15 -37t-34 -35t-55.5 -14t-55.5 14t-34 35t-15 37t-4.5 27z" />
    <glyph glyph-name="ubreve" unicode="&#x16d;" horiz-adv-x="446" 
d="M122 497v-345q0 -50 22 -82t67 -32q52 0 81.5 45t29.5 97v317h50v-342q0 -30 2 -83.5t2 -71.5h-47l-2 70q-40 -81 -123 -81q-69 0 -100.5 46t-31.5 118v344h50zM113 708h37q4 -33 23 -52.5t49 -19.5t49 19.5t23 52.5h37q0 -11 -4.5 -27t-15 -37t-34 -35t-55.5 -14
t-55.5 14t-34 35t-15 37t-4.5 27z" />
    <glyph glyph-name="Uring" unicode="&#x16e;" horiz-adv-x="543" 
d="M214 792q0 -24 17 -40.5t41 -16.5t40 16.5t16 40.5t-16 40.5t-40 16.5q-23 0 -40.5 -17t-17.5 -40zM207 728q-27 26 -27 64t27 64t65 26t64 -26t26 -64t-26 -64t-64 -26q-37 0 -65 26zM134 667v-424q0 -34 2.5 -59.5t10.5 -53.5t22.5 -46.5t40 -30.5t61.5 -12q43 0 72 17
t42.5 48.5t18.5 63t5 73.5v424h56v-425q0 -52 -9.5 -94.5t-30.5 -79.5t-60.5 -58t-93.5 -21q-57 0 -96 20t-59.5 57t-29 79.5t-8.5 96.5v425h56z" />
    <glyph glyph-name="uring" unicode="&#x16f;" horiz-adv-x="446" 
d="M158 589q-27 25 -27 64q0 38 27 64t65 26t64 -26t26 -64t-26 -64t-64 -26q-37 0 -65 26zM165 653q0 -24 17 -40.5t41 -16.5t40 16.5t16 40.5t-16 40.5t-40 16.5q-23 0 -40.5 -17t-17.5 -40zM122 497v-345q0 -50 22 -82t67 -32q52 0 81.5 45t29.5 97v317h50v-342
q0 -30 2 -83.5t2 -71.5h-47l-2 70q-40 -81 -123 -81q-69 0 -100.5 46t-31.5 118v344h50z" />
    <glyph glyph-name="Uhungarumlaut" unicode="&#x170;" horiz-adv-x="543" 
d="M220 724h-47l73 136h66zM349 724h-47l74 136h65zM134 667v-424q0 -34 2.5 -59.5t10.5 -53.5t22.5 -46.5t40 -30.5t61.5 -12q43 0 72 17t42.5 48.5t18.5 63t5 73.5v424h56v-425q0 -52 -9.5 -94.5t-30.5 -79.5t-60.5 -58t-93.5 -21q-57 0 -96 20t-59.5 57t-29 79.5
t-8.5 96.5v425h56z" />
    <glyph glyph-name="uhungarumlaut" unicode="&#x171;" horiz-adv-x="446" 
d="M306 585h-47l74 136h65zM177 585h-47l73 136h66zM122 497v-345q0 -50 22 -82t67 -32q52 0 81.5 45t29.5 97v317h50v-342q0 -30 2 -83.5t2 -71.5h-47l-2 70q-40 -81 -123 -81q-69 0 -100.5 46t-31.5 118v344h50z" />
    <glyph glyph-name="Uogonek" unicode="&#x172;" horiz-adv-x="543" 
d="M353 -130l10 -30q-28 -16 -63 -16q-39 0 -62.5 18.5t-23.5 55.5q0 52 59 91h-2q-57 0 -96 20t-59.5 57t-29 79.5t-8.5 96.5v425h56v-424q0 -34 2.5 -59.5t10.5 -53.5t22.5 -46.5t40 -30.5t61.5 -12q43 0 72 17t42.5 48.5t18.5 63t5 73.5v424h56v-425q0 -92 -31.5 -159.5
t-102.5 -85.5q-68 -46 -68 -94q0 -24 13.5 -34t31.5 -10q22 0 45 11z" />
    <glyph glyph-name="uogonek" unicode="&#x173;" horiz-adv-x="446" 
d="M400 -130l10 -30q-28 -16 -63 -16q-39 0 -62.5 18.5t-23.5 55.5q0 52 69 101l-3 71q-40 -81 -123 -81q-69 0 -100.5 46t-31.5 118v344h50v-345q0 -50 22 -82t67 -32q52 0 81.5 45t29.5 97v317h50v-342q0 -30 2 -83.5t2 -71.5q-66 -49 -66 -97q0 -24 13.5 -34t31.5 -10
q22 0 45 11z" />
    <glyph glyph-name="Wcircumflex" unicode="&#x174;" horiz-adv-x="734" 
d="M233 0h-65l-154 667h59l128 -606l135 606h66l135 -606l127 606h56l-153 -667h-65l-135 606zM305 724h-54l91 136h53l92 -136h-54l-65 99z" />
    <glyph glyph-name="wcircumflex" unicode="&#x175;" horiz-adv-x="608" 
d="M204 0h-63l-127 497h57l102 -443l103 443h62l101 -443l104 443h51l-126 -497h-63l-100 429zM243 585h-54l91 136h53l92 -136h-54l-65 99z" />
    <glyph glyph-name="Ycircumflex" unicode="&#x176;" horiz-adv-x="394" 
d="M225 0h-56v291l-167 376h60l137 -327l137 327h56l-167 -376v-291zM137 724h-54l91 136h53l92 -136h-54l-65 99z" />
    <glyph glyph-name="ycircumflex" unicode="&#x177;" horiz-adv-x="352" 
d="M35 -222l5 50q11 -5 27 -5q24 0 38.5 15t27.5 62l24 89l-141 508h55l112 -419l104 419h53l-155 -588q-7 -29 -14.5 -49.5t-20.5 -42t-33 -32.5t-46 -11q-24 0 -36 4zM118 585h-54l91 136h53l92 -136h-54l-65 99z" />
    <glyph glyph-name="Ydieresis" unicode="&#x178;" horiz-adv-x="394" 
d="M225 0h-56v291l-167 376h60l137 -327l137 327h56l-167 -376v-291zM154 750h-52v79h52v-79zM292 750h-52v79h52v-79z" />
    <glyph glyph-name="Zacute" unicode="&#x179;" horiz-adv-x="407" 
d="M214 724h-46l75 136h64zM377 0h-347v57l283 558h-272v52h330v-54l-284 -561h290v-52z" />
    <glyph glyph-name="zacute" unicode="&#x17a;" horiz-adv-x="340" 
d="M179 585h-46l75 136h64zM312 0h-284v50l228 401h-221v46h274v-50l-226 -401h229v-46z" />
    <glyph glyph-name="Zdotaccent" unicode="&#x17b;" horiz-adv-x="407" 
d="M232 750h-54v79h54v-79zM377 0h-347v57l283 558h-272v52h330v-54l-284 -561h290v-52z" />
    <glyph glyph-name="zdotaccent" unicode="&#x17c;" horiz-adv-x="340" 
d="M199 611h-54v79h54v-79zM312 0h-284v50l228 401h-221v46h274v-50l-226 -401h229v-46z" />
    <glyph glyph-name="Zcaron" unicode="&#x17d;" horiz-adv-x="407" 
d="M377 0h-347v57l283 558h-272v52h330v-54l-284 -561h290v-52zM230 724h-53l-92 136h54l65 -99l63 99h54z" />
    <glyph glyph-name="zcaron" unicode="&#x17e;" horiz-adv-x="340" 
d="M312 0h-284v50l228 401h-221v46h274v-50l-226 -401h229v-46zM201 585h-53l-92 136h54l65 -99l63 99h54z" />
    <glyph glyph-name="florin" unicode="&#x192;" horiz-adv-x="460" 
d="M-14 -220l10 50q22 -8 31 -8q13 0 24.5 7.5t20 22t15.5 29t13 35.5t9.5 35t7.5 33l5 24l73 346h-84v46h93l13 60l8 37.5t9.5 43t11 39.5t16.5 38.5t22 29t30.5 22.5t39.5 7q27 0 54 -13l-10 -51q-20 15 -42 15q-17 0 -30 -11t-22.5 -35t-14 -41t-11 -49.5t-8.5 -39.5
l-12 -52h84v-46h-93l-74 -354q-24 -119 -51 -165q-37 -62 -95 -62q-28 0 -43 7z" />
    <glyph glyph-name="Scommaaccent" unicode="&#x218;" horiz-adv-x="405" 
d="M188 -227h-41l33 158h56zM40 16l6 63q60 -36 123 -36q61 0 94.5 32.5t33.5 94.5q0 47 -23.5 77.5t-81.5 71.5l-37 26q-53 38 -76 72.5t-23 86.5q0 48 18 83.5t46.5 54t56.5 27t56 8.5q59 0 107 -19l-6 -60q-47 25 -104 25q-45 0 -80 -28.5t-35 -83.5q0 -42 19 -66t62 -56
l37 -25q65 -44 95 -85.5t30 -102.5q0 -91 -54 -139t-134 -48q-72 0 -130 27z" />
    <glyph glyph-name="scommaaccent" unicode="&#x219;" horiz-adv-x="333" 
d="M143 -227h-41l33 158h56zM33 7l6 57q54 -26 108 -26q46 0 71.5 23t25.5 65q0 33 -21 57.5t-51 40.5l-59.5 33t-50.5 46t-21 70q0 64 43 99t102 35q51 0 90 -14l-6 -54q-37 19 -83 19q-37 0 -64 -20t-27 -59q0 -33 21 -56t51 -38t59.5 -32t50.5 -46.5t21 -71.5
q0 -68 -43 -107t-111 -39q-62 0 -112 18z" />
    <glyph glyph-name="uni021A" unicode="&#x21a;" horiz-adv-x="382" 
d="M172 -227h-41l33 158h56zM219 0h-56v615h-151v52h358v-52h-151v-615z" />
    <glyph glyph-name="uni021B" unicode="&#x21b;" horiz-adv-x="259" 
d="M135 -227h-41l33 158h56zM233 54l6 -54q-35 -11 -64 -11q-87 0 -87 103v359h-72v46h72v115l50 18v-133h99v-46h-99v-339q0 -24 2 -37t14 -25t35 -12q14 0 44 16z" />
    <glyph glyph-name="dotlessj" unicode="&#x237;" horiz-adv-x="202" 
d="M-2 -220l6 49q12 -6 23 -6q26 0 38.5 12.5t12.5 53.5v608h50v-600q0 -123 -94 -123q-22 0 -36 6z" />
    <glyph glyph-name="apostrophe" unicode="&#x2bc;" horiz-adv-x="230" 
d="M86 561h-34l37 160h50z" />
    <glyph glyph-name="circumflex" unicode="&#x2c6;" 
d="M35 585h-54l91 136h53l92 -136h-54l-65 99z" />
    <glyph glyph-name="caron" unicode="&#x2c7;" 
d="M126 585h-53l-92 136h54l65 -99l63 99h54z" />
    <glyph glyph-name="uni02C9" unicode="&#x2c9;" 
d="M212 632h-226v43h226v-43z" />
    <glyph glyph-name="breve" unicode="&#x2d8;" 
d="M-10 708h37q4 -33 23 -52.5t49 -19.5t49 19.5t23 52.5h37q0 -11 -4.5 -27t-15 -37t-34 -35t-55.5 -14t-55.5 14t-34 35t-15 37t-4.5 27z" />
    <glyph glyph-name="dotaccent" unicode="&#x2d9;" 
d="M126 611h-54v79h54v-79z" />
    <glyph glyph-name="ring" unicode="&#x2da;" 
d="M35 589q-27 25 -27 64q0 38 27 64t65 26t64 -26t26 -64t-26 -64t-64 -26q-37 0 -65 26zM42 653q0 -24 17 -40.5t41 -16.5t40 16.5t16 40.5t-16 40.5t-40 16.5q-23 0 -40.5 -17t-17.5 -40z" />
    <glyph glyph-name="ogonek" unicode="&#x2db;" 
d="M162 -130l10 -30q-28 -16 -63 -16q-39 0 -62.5 18.5t-23.5 55.5q0 62 78 102h44q-73 -48 -73 -97q0 -24 13.5 -34t31.5 -10q22 0 45 11z" />
    <glyph glyph-name="tilde" unicode="&#x2dc;" 
d="M11 603h-37q0 37 20.5 65t56.5 28q22 0 56.5 -20.5t45.5 -20.5q16 0 25.5 15.5t9.5 31.5h38q0 -33 -21 -63t-53 -30q-25 0 -55 20.5t-46 20.5t-28 -15t-12 -32z" />
    <glyph glyph-name="hungarumlaut" unicode="&#x2dd;" 
d="M141 585h-47l74 136h65zM12 585h-47l73 136h66z" />
    <glyph glyph-name="uni0394" unicode="&#x394;" horiz-adv-x="750" 
d="M691 0h-632l283 667h66zM375 613l-240 -565h480z" />
    <glyph glyph-name="uni03A9" unicode="&#x3a9;" horiz-adv-x="750" 
d="M338 0h-259v52h205v80q-91 18 -148 95t-57 171q0 118 88.5 198.5t207.5 80.5t207.5 -80.5t88.5 -198.5q0 -94 -57 -171t-148 -95v-80h205v-52h-259v172q89 0 145 66.5t56 156.5q0 94 -71.5 163t-166.5 69t-166.5 -69t-71.5 -163q0 -91 56 -157t145 -66v-172z" />
    <glyph glyph-name="uni03BC" unicode="&#x3bc;" horiz-adv-x="460" 
d="M128 -216h-50v713h50v-345q0 -50 22 -82t67 -32q52 0 81.5 45t29.5 97v317h50v-342q0 -30 2 -83.5t2 -71.5h-47l-2 70q-40 -81 -123 -81q-50 0 -82 29v-234z" />
    <glyph glyph-name="pi" unicode="&#x3c0;" horiz-adv-x="650" 
d="M229 0h-54v424h-70v52h412v-52h-81v-341q0 -14 1.5 -22t8 -15t19.5 -7t52 18v-50q-33 -18 -63 -18q-40 0 -56 22.5t-16 64.5v348h-153v-424z" />
    <glyph glyph-name="endash" unicode="&#x2013;" horiz-adv-x="500" 
d="M500 287h-500v46h500v-46z" />
    <glyph glyph-name="emdash" unicode="&#x2014;" horiz-adv-x="1000" 
d="M1000 287h-1000v46h1000v-46z" />
    <glyph glyph-name="quoteleft" unicode="&#x2018;" horiz-adv-x="230" 
d="M114 513h-64l68 208h45z" />
    <glyph glyph-name="quoteright" unicode="&#x2019;" horiz-adv-x="230" 
d="M112 513h-45l49 208h64z" />
    <glyph glyph-name="quotesinglbase" unicode="&#x201a;" horiz-adv-x="230" 
d="M83 -128h-46l49 208h64z" />
    <glyph glyph-name="quotedblleft" unicode="&#x201c;" horiz-adv-x="362" 
d="M247 513h-65l68 208h45zM114 513h-64l68 208h45z" />
    <glyph glyph-name="quotedblright" unicode="&#x201d;" horiz-adv-x="362" 
d="M244 513h-45l49 208h64zM112 513h-45l49 208h64z" />
    <glyph glyph-name="quotedblbase" unicode="&#x201e;" horiz-adv-x="362" 
d="M215 -128h-46l49 208h64zM83 -128h-46l49 208h64z" />
    <glyph glyph-name="dagger" unicode="&#x2020;" horiz-adv-x="460" 
d="M258 -128h-56v563h-131v52h131v234h56v-234h131v-52h-131v-563z" />
    <glyph glyph-name="daggerdbl" unicode="&#x2021;" horiz-adv-x="460" 
d="M258 -128h-56v234h-131v52h131v277h-131v52h131v234h56v-234h131v-52h-131v-277h131v-52h-131v-234z" />
    <glyph glyph-name="bullet" unicode="&#x2022;" horiz-adv-x="460" 
d="M188 211q-65 32 -65 99q0 44 31.5 75.5t75.5 31.5t75.5 -31.5t31.5 -75.5t-31.5 -75.5t-75.5 -31.5q-21 0 -42 8z" />
    <glyph glyph-name="ellipsis" unicode="&#x2026;" horiz-adv-x="1000" 
d="M868 0h-70v80h70v-80zM535 0h-70v80h70v-80zM202 0h-70v80h70v-80z" />
    <glyph glyph-name="perthousand" unicode="&#x2030;" horiz-adv-x="1025" 
d="M788 11q-58 53 -58 184q0 33 4.5 64t16.5 65.5t38.5 55.5t63.5 21q31 0 53.5 -14.5t35 -36t20.5 -51.5t10 -54t2 -50t-2 -50t-10 -54t-20.5 -51.5t-35 -36t-53.5 -14.5q-40 0 -65 22zM493 11q-58 53 -58 184q0 33 4.5 64t16.5 65.5t38.5 55.5t63.5 21q31 0 53.5 -14.5
t35 -36t20.5 -51.5t10 -54t2 -50t-2 -50t-10 -54t-20.5 -51.5t-35 -36t-53.5 -14.5q-40 0 -65 22zM252 -24h-48l276 715h48zM109 287q-58 53 -58 184q0 33 4.5 64t16.5 65.5t38.5 55.5t63.5 21q31 0 53.5 -14.5t35 -36t20.5 -51.5t10 -54t2 -50t-2 -50t-10 -54t-20.5 -51.5
t-35 -36t-53.5 -14.5q-40 0 -65 22zM813 52q15 -17 40 -17q69 0 69 160t-69 160q-71 0 -71 -160q0 -103 31 -143zM518 52q15 -17 40 -17q69 0 69 160t-69 160q-71 0 -71 -160q0 -103 31 -143zM134 328q15 -17 40 -17q69 0 69 160t-69 160q-71 0 -71 -160q0 -103 31 -143z
" />
    <glyph glyph-name="guilsinglleft" unicode="&#x2039;" horiz-adv-x="232" 
d="M190 55h-49l-109 198l109 199h49l-102 -199z" />
    <glyph glyph-name="guilsinglright" unicode="&#x203a;" horiz-adv-x="232" 
d="M91 55h-49l102 199l-102 198h49l109 -198z" />
    <glyph glyph-name="fraction" unicode="&#x2044;" horiz-adv-x="166" 
d="M-31 -24h-48l276 715h48z" />
    <glyph glyph-name="zero.superior" unicode="&#x2070;" horiz-adv-x="350" 
d="M123 454q17 -46 53 -46q66 0 66 163q0 162 -68 162q-66 0 -66 -162q0 -77 15 -117zM120 378q-65 48 -65 193q0 90 30 149.5t89 59.5q62 0 91.5 -59t29.5 -150t-29.5 -150.5t-89.5 -59.5q-33 0 -56 17z" />
    <glyph glyph-name="uni2071" unicode="&#x2071;" horiz-adv-x="141" 
d="M95 729h-49v63h49v-63zM94 368h-48v305h48v-305z" />
    <glyph glyph-name="four.superior" unicode="&#x2074;" horiz-adv-x="350" 
d="M213 717l-121 -216h121v216zM212 457h-165v49l153 268h59v-273h44v-44h-44v-89h-47v89z" />
    <glyph glyph-name="five.superior" unicode="&#x2075;" horiz-adv-x="350" 
d="M70 377l5 49q32 -17 71 -17q43 0 63.5 23.5t20.5 62.5q0 82 -85 82q-29 0 -63 -13l6 210h174v-45h-129l-4 -112q19 5 38 5q55 0 85.5 -33.5t30.5 -90.5q0 -62 -36 -99.5t-98 -37.5q-38 0 -79 16z" />
    <glyph glyph-name="six.superior" unicode="&#x2076;" horiz-adv-x="350" 
d="M126 438q19 -30 53 -30q35 0 51.5 27t16.5 62q0 83 -66 83q-35 0 -51.5 -25t-16.5 -58q0 -34 13 -59zM277 771l-4 -49q-30 11 -59 11q-96 0 -108 -162q30 56 84 56q52 0 80 -37.5t28 -91.5q0 -57 -32.5 -97t-86.5 -40q-36 0 -61 17.5t-37.5 47t-18 59t-5.5 61.5
q0 55 12 104.5t48.5 89.5t92.5 40q37 0 67 -9z" />
    <glyph glyph-name="seven.superior" unicode="&#x2077;" horiz-adv-x="350" 
d="M151 368h-53l126 361h-157v45h208v-44z" />
    <glyph glyph-name="eight.superior" unicode="&#x2078;" horiz-adv-x="350" 
d="M128 636q13 -14 53 -35q56 33 56 79q0 24 -16.5 38.5t-45.5 14.5t-45 -15t-16 -39q0 -26 14 -43zM225 525q-24 21 -55 35q-67 -33 -67 -88q0 -28 19.5 -46t52.5 -18t52.5 18.5t19.5 47.5q0 32 -22 51zM75 536q23 25 56 45q-68 36 -68 100q0 44 33.5 71.5t78.5 27.5
t78.5 -27t33.5 -71q0 -60 -68 -100q38 -21 59 -46t21 -63q0 -50 -36 -81t-88 -31q-54 0 -89 30t-35 80q0 39 24 65z" />
    <glyph glyph-name="nine.superior" unicode="&#x2079;" horiz-adv-x="350" 
d="M117 587q19 -26 53 -26q35 0 51.5 25t16.5 58q0 35 -15.5 62t-50.5 27t-51.5 -27t-16.5 -62q0 -34 13 -57zM74 370l4 49q30 -11 59 -11q96 0 108 162q-30 -56 -84 -56q-52 0 -80 37.5t-28 91.5q0 57 32.5 97t86.5 40q36 0 61 -17.5t37.5 -47t18 -59t5.5 -61.5
q0 -55 -12 -104.5t-48.5 -89.5t-92.5 -40q-37 0 -67 9z" />
    <glyph glyph-name="plus.superior" unicode="&#x207a;" horiz-adv-x="350" 
d="M155 498h-139v41h139v127h40v-127h139v-41h-139v-127h-40v127z" />
    <glyph glyph-name="plus.superior" unicode="&#xe1e1;" horiz-adv-x="350" 
d="M155 498h-139v41h139v127h40v-127h139v-41h-139v-127h-40v127z" />
    <glyph glyph-name="minus.superior" unicode="&#x207b;" horiz-adv-x="350" 
d="M334 498h-318v41h318v-41z" />
    <glyph glyph-name="minus.superior" unicode="&#xe1e5;" horiz-adv-x="350" 
d="M334 498h-318v41h318v-41z" />
    <glyph glyph-name="uni207F" unicode="&#x207f;" horiz-adv-x="303" 
d="M94 368h-48v216q0 37 -1 89h44l1 -45q12 22 33.5 36.5t47.5 14.5q85 0 85 -104v-207h-47v205q0 59 -52 59q-29 0 -46 -23t-17 -49v-192z" />
    <glyph glyph-name="zero.inferior" unicode="&#x2080;" horiz-adv-x="350" 
d="M123 -79q17 -46 53 -46q66 0 66 163q0 162 -68 162q-66 0 -66 -162q0 -77 15 -117zM120 -155q-65 48 -65 193q0 90 30 149.5t89 59.5q62 0 91.5 -59t29.5 -150t-29.5 -150.5t-89.5 -59.5q-33 0 -56 17z" />
    <glyph glyph-name="one.inferior" unicode="&#x2081;" horiz-adv-x="350" 
d="M216 -165h-49v347l-65 -57l-26 34l96 82h44v-406z" />
    <glyph glyph-name="two.inferior" unicode="&#x2082;" horiz-adv-x="350" 
d="M273 -165h-210v44l60 73q96 115 96 184q0 64 -64 64q-30 0 -74 -25l-4 49q40 23 89 23q51 0 78.5 -31.5t27.5 -76.5q0 -88 -105 -208l-44 -51h150v-45z" />
    <glyph glyph-name="three.inferior" unicode="&#x2083;" horiz-adv-x="350" 
d="M59 -158l4 49q35 -15 74 -15q41 0 62.5 20.5t21.5 56.5q0 35 -25.5 52.5t-66.5 17.5h-22v46h21q90 0 90 71q0 29 -20.5 44.5t-53.5 15.5q-38 0 -69 -18l-3 49q37 16 81 16q48 0 82.5 -28.5t34.5 -76.5q0 -69 -67 -94q31 -8 50.5 -34t19.5 -61q0 -58 -37.5 -91.5
t-100.5 -33.5q-43 0 -76 14z" />
    <glyph glyph-name="four.inferior" unicode="&#x2084;" horiz-adv-x="350" 
d="M213 184l-121 -216h121v216zM212 -76h-165v49l153 268h59v-273h44v-44h-44v-89h-47v89z" />
    <glyph glyph-name="five.inferior" unicode="&#x2085;" horiz-adv-x="350" 
d="M70 -156l5 49q32 -17 71 -17q43 0 63.5 23.5t20.5 62.5q0 82 -85 82q-29 0 -63 -13l6 210h174v-45h-129l-4 -112q19 5 38 5q55 0 85.5 -33.5t30.5 -90.5q0 -62 -36 -99.5t-98 -37.5q-38 0 -79 16z" />
    <glyph glyph-name="six.inferior" unicode="&#x2086;" horiz-adv-x="350" 
d="M126 -95q19 -30 53 -30q35 0 51.5 27t16.5 62q0 83 -66 83q-35 0 -51.5 -25t-16.5 -58q0 -34 13 -59zM277 238l-4 -49q-30 11 -59 11q-96 0 -108 -162q30 56 84 56q52 0 80 -37.5t28 -91.5q0 -57 -32.5 -97t-86.5 -40q-36 0 -61 17.5t-37.5 47t-18 59t-5.5 61.5
q0 55 12 104.5t48.5 89.5t92.5 40q37 0 67 -9z" />
    <glyph glyph-name="seven.inferior" unicode="&#x2087;" horiz-adv-x="350" 
d="M151 -165h-53l126 361h-157v45h208v-44z" />
    <glyph glyph-name="eight.inferior" unicode="&#x2088;" horiz-adv-x="350" 
d="M128 103q13 -14 53 -35q56 33 56 79q0 24 -16.5 38.5t-45.5 14.5t-45 -15t-16 -39q0 -26 14 -43zM225 -8q-24 21 -55 35q-67 -33 -67 -88q0 -28 19.5 -46t52.5 -18t52.5 18.5t19.5 47.5q0 32 -22 51zM75 3q23 25 56 45q-68 36 -68 100q0 44 33.5 71.5t78.5 27.5t78.5 -27
t33.5 -71q0 -60 -68 -100q38 -21 59 -46t21 -63q0 -50 -36 -81t-88 -31q-54 0 -89 30t-35 80q0 40 24 65z" />
    <glyph glyph-name="nine.inferior" unicode="&#x2089;" horiz-adv-x="350" 
d="M117 54q19 -26 53 -26q35 0 51.5 25t16.5 58q0 35 -15.5 62t-50.5 27t-51.5 -27t-16.5 -62q0 -34 13 -57zM74 -163l4 49q30 -11 59 -11q96 0 108 162q-30 -56 -84 -56q-52 0 -80 37.5t-28 91.5q0 57 32.5 97t86.5 40q36 0 61 -17.5t37.5 -47t18 -59t5.5 -61.5
q0 -55 -12 -104.5t-48.5 -89.5t-92.5 -40q-37 0 -67 9z" />
    <glyph glyph-name="plus.inferior" unicode="&#x208a;" horiz-adv-x="350" 
d="M155 -35h-139v41h139v127h40v-127h139v-41h-139v-127h-40v127z" />
    <glyph glyph-name="plus.inferior" unicode="&#xe194;" horiz-adv-x="350" 
d="M155 -35h-139v41h139v127h40v-127h139v-41h-139v-127h-40v127z" />
    <glyph glyph-name="minus.inferior" unicode="&#x208b;" horiz-adv-x="350" 
d="M334 -35h-318v41h318v-41z" />
    <glyph glyph-name="minus.inferior" unicode="&#xe198;" horiz-adv-x="350" 
d="M334 -35h-318v41h318v-41z" />
    <glyph glyph-name="a.inferior" unicode="&#x2090;" horiz-adv-x="288" 
d="M196 -16h-10q-113 0 -113 -64q0 -21 13 -34.5t37 -13.5q35 0 54 25t19 58v29zM246 -165h-46l-3 45q-33 -52 -85 -52q-40 0 -64 25.5t-24 64.5q0 57 44.5 81t106.5 24h21v15q0 64 -63 64q-41 0 -81 -24l-4 49q46 19 92 19q102 0 102 -103v-139q0 -42 4 -69z" />
    <glyph glyph-name="a.inferior" unicode="&#xe150;" horiz-adv-x="288" 
d="M196 -16h-10q-113 0 -113 -64q0 -21 13 -34.5t37 -13.5q35 0 54 25t19 58v29zM246 -165h-46l-3 45q-33 -52 -85 -52q-40 0 -64 25.5t-24 64.5q0 57 44.5 81t106.5 24h21v15q0 64 -63 64q-41 0 -81 -24l-4 49q46 19 92 19q102 0 102 -103v-139q0 -42 4 -69z" />
    <glyph glyph-name="e.inferior" unicode="&#x2091;" horiz-adv-x="274" 
d="M77 14h125q0 89 -58 89q-31 0 -49 -28t-18 -61zM249 -26h-172q0 -42 20.5 -71.5t65.5 -29.5q34 0 71 21l3 -51q-33 -15 -77 -15q-69 0 -100.5 46t-31.5 116q0 61 30 108.5t86 47.5q58 0 81.5 -41t23.5 -101v-30z" />
    <glyph glyph-name="e.inferior" unicode="&#xe154;" horiz-adv-x="274" 
d="M77 14h125q0 89 -58 89q-31 0 -49 -28t-18 -61zM249 -26h-172q0 -42 20.5 -71.5t65.5 -29.5q34 0 71 21l3 -51q-33 -15 -77 -15q-69 0 -100.5 46t-31.5 116q0 61 30 108.5t86 47.5q58 0 81.5 -41t23.5 -101v-30z" />
    <glyph glyph-name="o.inferior" unicode="&#x2092;" horiz-adv-x="300" 
d="M92 -85q20 -41 58 -41q28 0 44.5 21t21 44t4.5 50q0 111 -70 111q-28 0 -44.5 -20.5t-21 -43t-4.5 -47.5q0 -42 12 -74zM92 -158q-63 41 -63 147q0 62 30 109.5t91 47.5q63 0 92 -46t29 -111t-29.5 -113t-91.5 -48q-35 0 -58 14z" />
    <glyph glyph-name="o.inferior" unicode="&#xe15e;" horiz-adv-x="300" 
d="M92 -85q20 -41 58 -41q28 0 44.5 21t21 44t4.5 50q0 111 -70 111q-28 0 -44.5 -20.5t-21 -43t-4.5 -47.5q0 -42 12 -74zM92 -158q-63 41 -63 147q0 62 30 109.5t91 47.5q63 0 92 -46t29 -111t-29.5 -113t-91.5 -48q-35 0 -58 14z" />
    <glyph glyph-name="x.inferior" unicode="&#x2093;" horiz-adv-x="259" 
d="M61 -165h-54l92 161l-85 145h57l59 -115l60 115h55l-87 -147l95 -159h-58l-67 128z" />
    <glyph glyph-name="x.inferior" unicode="&#xe167;" horiz-adv-x="259" 
d="M61 -165h-54l92 161l-85 145h57l59 -115l60 115h55l-87 -147l95 -159h-58l-67 128z" />
    <glyph glyph-name="schwa.inferior" unicode="&#x2094;" horiz-adv-x="274" 
d="M200 -40h-125q0 -89 58 -89q31 0 49 28t18 61zM28 -30v30h172q0 42 -20.5 71.5t-65.5 29.5q-34 0 -71 -21l-3 51q33 15 77 15q69 0 100.5 -46t31.5 -116q0 -62 -30 -109t-86 -47q-58 0 -81.5 41t-23.5 101z" />
    <glyph glyph-name="Euro" unicode="&#x20ac;" horiz-adv-x="460" 
d="M107 244h-71l7 46h60q-2 30 -2 43t2 43h-67l7 46h65q6 48 21 91t40 81t65 60.5t90 22.5q49 0 88 -23l-9 -59q-10 13 -35 21t-44 8q-37 0 -66.5 -19t-47.5 -51.5t-28.5 -64.5t-16.5 -67h214l-7 -46h-212q-1 -7 -1 -22v-21v-22q0 -14 1 -21h199l-7 -46h-187q6 -48 22.5 -91
t52.5 -77t84 -34q42 0 79 26l6 -61q-40 -18 -86 -18q-51 0 -90.5 22t-64.5 60t-40 81t-21 92z" />
    <glyph glyph-name="afii61289" unicode="&#x2113;" horiz-adv-x="500" 
d="M218 558v-233q123 143 123 268q0 40 -16.5 65.5t-40.5 25.5q-28 0 -47 -32t-19 -94zM108 176h-2l-21 27l82 84v264q0 81 33.5 125.5t84.5 44.5q45 0 72 -32.5t27 -90.5q0 -141 -166 -321v-159q0 -50 23 -71t55 -21q46 0 88 39h2l20 -27q-52 -52 -120 -52q-53 0 -86 31
t-33 93v130z" />
    <glyph glyph-name="trademark" unicode="&#x2122;" horiz-adv-x="741" 
d="M362 266h-46v401h76l109 -339l109 339h75v-401h-48v359l-117 -359h-41l-117 359v-359zM155 266h-50v361h-97v40h244v-40h-97v-361z" />
    <glyph glyph-name="Omega" unicode="&#x2126;" horiz-adv-x="750" 
d="M338 0h-259v52h205v80q-91 18 -148 95t-57 171q0 118 88.5 198.5t207.5 80.5t207.5 -80.5t88.5 -198.5q0 -94 -57 -171t-148 -95v-80h205v-52h-259v172q89 0 145 66.5t56 156.5q0 94 -71.5 163t-166.5 69t-166.5 -69t-71.5 -163q0 -91 56 -157t145 -66v-172z" />
    <glyph glyph-name="estimated" unicode="&#x212e;" horiz-adv-x="600" 
d="M157 440v-145h291v145q-63 60 -147 60t-144 -60zM157 259v-181q59 -59 145 -59q63 0 109 28.5t84 91.5l35 -21q-46 -73 -98 -104t-130 -31q-115 0 -186.5 79t-71.5 197q0 119 71 197.5t187 78.5q115 0 187 -77t72 -199h-404z" />
    <glyph glyph-name="partialdiff" unicode="&#x2202;" horiz-adv-x="530" 
d="M142 82q40 -58 108 -58q30 0 54.5 13.5t41 39.5t27.5 51t19 62.5t11 58.5t7 54q-78 80 -154 80q-72 0 -111 -52t-39 -127q0 -70 36 -122zM121 629l-30 38q65 53 139 53q67 0 115.5 -33.5t74 -89t37 -113.5t11.5 -120q0 -46 -5.5 -93t-21 -99.5t-39 -92.5t-64 -66
t-91.5 -26q-88 0 -140.5 68.5t-52.5 158.5q0 89 51 147.5t139 58.5q90 0 168 -78v30q0 50 -6.5 97t-23.5 98.5t-53.5 82.5t-88.5 31q-73 0 -119 -52z" />
    <glyph glyph-name="Delta" unicode="&#x2206;" horiz-adv-x="750" 
d="M691 0h-632l283 667h66zM375 613l-240 -565h480z" />
    <glyph glyph-name="product" unicode="&#x220f;" horiz-adv-x="750" 
d="M168 -200h-54v1000h523v-1000h-54v948h-415v-948z" />
    <glyph glyph-name="summation" unicode="&#x2211;" horiz-adv-x="750" 
d="M684 -200h-601v51l273 457l-253 445v47h563v-46h-501l256 -446l-276 -456h539v-52z" />
    <glyph glyph-name="minus" unicode="&#x2212;" horiz-adv-x="530" 
d="M514 217h-497v48h497v-48z" />
    <glyph glyph-name="uni2215" unicode="&#x2215;" horiz-adv-x="166" 
d="M-31 -24h-48l276 715h48z" />
    <glyph glyph-name="uni2219" unicode="&#x2219;" horiz-adv-x="230" 
d="M150 270h-70v80h70v-80z" />
    <glyph glyph-name="radical" unicode="&#x221a;" horiz-adv-x="530" 
d="M310 -200h-48l-160 352l-45 -21l-19 36l91 41l154 -343l161 935h42z" />
    <glyph glyph-name="infinity" unicode="&#x221e;" horiz-adv-x="750" 
d="M134 171q31 -31 73 -31q23 0 44.5 12.5t34.5 26t32.5 38t27.5 33.5q-24 32 -38 48.5t-42.5 35.5t-56.5 19q-44 0 -74.5 -31.5t-30.5 -75.5q0 -43 30 -75zM432 272l-27 -34q18 -25 27.5 -36.5t28 -30.5t38.5 -27.5t43 -8.5q43 0 73.5 32.5t30.5 75.5q0 42 -29.5 73.5
t-71.5 31.5q-49 0 -113 -76zM410 160l-18 24.5t-14 19.5q-38 -52 -75.5 -80t-90.5 -28q-63 0 -107 42.5t-44 105.5q0 64 42.5 108t106.5 44q51 0 88.5 -30t74.5 -83q21 28 33.5 42t33.5 32.5t44.5 26.5t51.5 8q65 0 109.5 -42t44.5 -106q0 -63 -43 -107.5t-106 -44.5
q-77 0 -131 68z" />
    <glyph glyph-name="integral" unicode="&#x222b;" horiz-adv-x="460" 
d="M77 -217l6 54q20 -10 47 -10q44 0 58.5 29.5t14.5 83.5v678q0 24 1.5 42.5t9 43.5t20 41t37.5 28t59 12q36 0 55 -10l-6 -54q-20 10 -47 10q-40 0 -56.5 -27.5t-16.5 -85.5v-678q0 -24 -1.5 -42.5t-9 -43.5t-20 -41t-37.5 -28t-59 -12q-36 0 -55 10z" />
    <glyph glyph-name="approxequal" unicode="&#x2248;" horiz-adv-x="530" 
d="M43 252h-39q21 131 121 131q48 0 144.5 -37t137.5 -37q62 0 83 81h36q-4 -55 -34 -92t-84 -37q-49 0 -146.5 37t-136.5 37q-33 0 -54.5 -24t-27.5 -59zM43 91h-39q21 131 121 131q48 0 144.5 -37t137.5 -37q62 0 83 81h36q-4 -55 -34 -92t-84 -37q-49 0 -146.5 37
t-136.5 37q-33 0 -54.5 -24t-27.5 -59z" />
    <glyph glyph-name="notequal" unicode="&#x2260;" horiz-adv-x="530" 
d="M151 -16l-42 23l64 118h-156v48h182l71 135h-253v48h280l77 145l42 -22l-66 -123h164v-48h-190l-72 -135h262v-48h-288z" />
    <glyph glyph-name="lessequal" unicode="&#x2264;" horiz-adv-x="530" 
d="M512 68l-497 192v54l497 193v-54l-431 -166l431 -166v-53zM512 -25h-497v48h497v-48z" />
    <glyph glyph-name="greaterequal" unicode="&#x2265;" horiz-adv-x="530" 
d="M515 260l-497 -192v53l430 166l-430 166v54l497 -193v-54zM515 -25h-497v48h497v-48z" />
    <glyph glyph-name="lozenge" unicode="&#x25ca;" horiz-adv-x="530" 
d="M291 0h-53l-167 400l167 400h53l169 -400zM124 400l141 -344l141 344l-141 344z" />
    <glyph glyph-name="exclam.sc" unicode="&#xe000;" horiz-adv-x="230" 
d="M147 0h-64v76h64v-76zM139 159h-46l-7 374h59z" />
    <glyph glyph-name="dollar.sc" unicode="&#xe001;" horiz-adv-x="380" 
d="M204 -86h-38v75q-58 2 -107 26l5 60q38 -36 100 -36q47 0 73.5 25.5t26.5 68.5q0 37 -16.5 57.5t-60.5 52.5l-47 33q-42 31 -62 61.5t-20 73.5q0 50 31 85t83 44v79h37v-76q44 -1 89 -17l-5 -58q-44 25 -89 25q-41 0 -66 -21t-25 -57q0 -32 15.5 -52.5t48.5 -44.5l47 -33
q55 -41 75 -70t20 -77q0 -57 -30.5 -96t-84.5 -50v-78z" />
    <glyph glyph-name="percent.sc" unicode="&#xe002;" horiz-adv-x="625" 
d="M220 -19h-41l226 571h41zM470 -11q-99 0 -99 165t99 165t99 -165t-99 -165zM428 64q12 -34 42 -36q53 0 53 126t-53 126t-53 -126q0 -52 11 -90zM157 213q-99 0 -99 165t99 165t99 -165t-99 -165zM115 288q12 -34 42 -36q53 0 53 126t-53 126t-53 -126q0 -52 11 -90z" />
    <glyph glyph-name="ampersand.sc" unicode="&#xe003;" horiz-adv-x="427" 
d="M293 253h-76q-50 0 -83 -30.5t-33 -80.5q0 -46 28.5 -75t75.5 -29q49 0 88 13v202zM344 253v-241q-69 -23 -140 -23q-73 0 -115.5 39.5t-42.5 112.5q0 54 35 91.5t90 42.5q-54 7 -83 40t-29 87q0 63 42 102t104 39q51 0 101 -18l-5 -56q-47 23 -97 23q-39 0 -64.5 -26
t-25.5 -65q0 -48 27.5 -74.5t75.5 -26.5h76v65h51v-65h64v-47h-64z" />
    <glyph glyph-name="question.sc" unicode="&#xe004;" horiz-adv-x="290" 
d="M151 0h-64v76h64v-76zM145 159h-52q0 43 16.5 80t36 58t36 50t16.5 60q0 39 -24 62.5t-63 23.5q-41 0 -78 -24l-5 55q43 19 85 19q65 0 103 -33.5t38 -97.5q0 -37 -17 -70t-37.5 -54t-37.5 -55t-17 -74z" />
    <glyph glyph-name="a.sc" unicode="&#xe005;" horiz-adv-x="437" 
d="M218 480l-91 -289h183zM70 0h-56l176 533h58l175 -533h-56l-45 146h-207z" />
    <glyph glyph-name="b.sc" unicode="&#xe006;" horiz-adv-x="411" 
d="M127 254v-207h77q103 0 103 101q0 49 -26.5 77.5t-75.5 28.5h-78zM127 486v-187h73q44 0 69 26t25 71q0 44 -24.5 67t-69.5 23h-73zM194 0h-119v533h131q64 0 103 -36t39 -99q0 -44 -24 -75.5t-63 -43.5q46 -9 73 -45t27 -87q0 -75 -44.5 -111t-122.5 -36z" />
    <glyph glyph-name="c.sc" unicode="&#xe007;" horiz-adv-x="396" 
d="M362 62l5 -57q-55 -16 -97 -16q-74 0 -126.5 40.5t-75.5 101.5t-23 135q0 116 60 196.5t168 80.5q48 0 93 -20l-5 -55q-35 25 -88 25q-85 0 -128.5 -68t-43.5 -159q0 -90 44 -159t127 -69q44 0 90 24z" />
    <glyph glyph-name="d.sc" unicode="&#xe008;" horiz-adv-x="457" 
d="M127 485v-437h51q93 0 136 61t43 157q0 99 -46 159t-142 60h-42zM169 0h-94v533h76q261 0 261 -267q0 -124 -61.5 -195t-181.5 -71z" />
    <glyph glyph-name="e.sc" unicode="&#xe009;" horiz-adv-x="360" 
d="M319 0h-244v533h235v-48h-183v-185h173v-46h-173v-206h192v-48z" />
    <glyph glyph-name="f.sc" unicode="&#xe00a;" horiz-adv-x="337" 
d="M127 0h-52v533h229v-48h-177v-189h168v-46h-168v-250z" />
    <glyph glyph-name="g.sc" unicode="&#xe00b;" horiz-adv-x="455" 
d="M401 285v-265q-58 -31 -127 -31q-113 0 -171 80.5t-58 196.5q0 113 61.5 195t169.5 82q63 0 114 -27l-4 -55q-51 33 -113 33q-57 0 -97.5 -35.5t-58 -85.5t-17.5 -107q0 -92 45 -160t133 -68q44 0 72 16v185h-94v46h145z" />
    <glyph glyph-name="h.sc" unicode="&#xe00c;" horiz-adv-x="459" 
d="M127 0h-52v533h52v-232h205v232h52v-533h-52v254h-205v-254z" />
    <glyph glyph-name="i.sc" unicode="&#xe00d;" horiz-adv-x="202" 
d="M127 0h-52v533h52v-533z" />
    <glyph glyph-name="j.sc" unicode="&#xe00e;" horiz-adv-x="232" 
d="M6 -3l5 52q19 -10 36 -10q34 0 48.5 23.5t14.5 79.5v391h52v-390q0 -79 -27 -116.5t-87 -37.5q-21 0 -42 8z" />
    <glyph glyph-name="k.sc" unicode="&#xe00f;" horiz-adv-x="402" 
d="M127 0h-52v533h52v-243l193 243h62l-208 -252l226 -281h-66l-207 266v-266z" />
    <glyph glyph-name="l.sc" unicode="&#xe010;" horiz-adv-x="319" 
d="M302 0h-227v533h52v-485h175v-48z" />
    <glyph glyph-name="m.sc" unicode="&#xe011;" horiz-adv-x="601" 
d="M125 0h-50v533h84l142 -468l145 468h80v-533h-50v486l-155 -486h-44l-152 486v-486z" />
    <glyph glyph-name="n.sc" unicode="&#xe012;" horiz-adv-x="488" 
d="M126 0h-51v533h74l213 -471v471h51v-533h-74l-213 469v-469z" />
    <glyph glyph-name="o.sc" unicode="&#xe013;" horiz-adv-x="469" 
d="M125 117q35 -79 109 -79q41 0 69.5 22t42 59.5t18.5 72.5t5 74q0 228 -135 228q-40 0 -68 -22.5t-41.5 -59.5t-19 -72.5t-5.5 -73.5q0 -90 25 -149zM139 15q-94 66 -94 251q0 50 9.5 96t29.5 88t59 67.5t91 25.5q56 0 95.5 -25t59 -68t27.5 -87.5t8 -96.5q0 -50 -9 -95.5
t-29.5 -88t-59.5 -68t-92 -25.5q-57 0 -95 26z" />
    <glyph glyph-name="p.sc" unicode="&#xe014;" horiz-adv-x="382" 
d="M127 486v-212h57q56 0 83.5 25t27.5 81q0 106 -121 106h-47zM127 0h-52v533h108q78 0 123 -38.5t45 -114.5q0 -72 -41 -112.5t-113 -40.5h-70v-227z" />
    <glyph glyph-name="q.sc" unicode="&#xe015;" horiz-adv-x="469" 
d="M125 117q35 -79 109 -79q41 0 69.5 22t42 59.5t18.5 72.5t5 74q0 228 -135 228q-40 0 -68 -22.5t-41.5 -59.5t-19 -72.5t-5.5 -73.5q0 -90 25 -149zM413 -102h-69l-83 94q-12 -3 -27 -3q-56 0 -95 25t-58.5 68t-27.5 87.5t-8 96.5q0 50 9.5 96t29.5 88t59 67.5t91 25.5
q56 0 95.5 -25t59 -68t27.5 -87.5t8 -96.5q0 -84 -26 -155t-85 -102z" />
    <glyph glyph-name="r.sc" unicode="&#xe016;" horiz-adv-x="406" 
d="M127 486v-193h70q99 0 99 99q0 47 -27 70.5t-74 23.5h-68zM127 0h-52v533h132q64 0 104 -36.5t40 -100.5q0 -51 -29 -85.5t-77 -42.5q37 -6 56 -55l79 -213h-55l-64 179q-12 35 -28.5 51t-45.5 16h-60v-246z" />
    <glyph glyph-name="s.sc" unicode="&#xe017;" horiz-adv-x="342" 
d="M42 10l5 58q47 -29 101 -29q47 0 73.5 25.5t26.5 68.5q0 37 -16.5 57.5t-60.5 52.5l-47 33q-42 31 -62 61.5t-20 73.5q0 59 41 95.5t105 36.5q53 0 94 -16l-5 -56q-39 22 -89 22q-41 0 -66 -21t-25 -57q0 -32 15.5 -52.5t48.5 -44.5l47 -33q55 -41 75 -70t20 -77
q0 -65 -41.5 -107t-111.5 -42q-58 0 -108 21z" />
    <glyph glyph-name="t.sc" unicode="&#xe018;" horiz-adv-x="323" 
d="M187 0h-52v485h-122v48h297v-48h-123v-485z" />
    <glyph glyph-name="u.sc" unicode="&#xe019;" horiz-adv-x="461" 
d="M122 533v-343q0 -151 109 -151q108 0 108 151v343h52v-340q0 -90 -38 -147t-123 -57q-160 0 -160 204v340h52z" />
    <glyph glyph-name="v.sc" unicode="&#xe01a;" horiz-adv-x="392" 
d="M229 0h-63l-156 533h58l131 -477l130 477h53z" />
    <glyph glyph-name="w.sc" unicode="&#xe01b;" horiz-adv-x="609" 
d="M202 0h-67l-122 533h57l101 -478l102 478h67l103 -478l99 478h53l-121 -533h-65l-104 481z" />
    <glyph glyph-name="x.sc" unicode="&#xe01c;" horiz-adv-x="399" 
d="M70 0h-59l158 283l-143 250h61l115 -209l116 209h55l-142 -250l157 -283h-60l-130 243z" />
    <glyph glyph-name="y.sc" unicode="&#xe01d;" horiz-adv-x="338" 
d="M196 0h-52v227l-141 306h58l110 -259l110 259h55l-140 -306v-227z" />
    <glyph glyph-name="z.sc" unicode="&#xe01e;" horiz-adv-x="344" 
d="M315 0h-289v51l231 434h-222v48h276v-50l-231 -435h235v-48z" />
    <glyph glyph-name="agrave.sc" unicode="&#xe01f;" horiz-adv-x="437" 
d="M218 480l-91 -289h183zM70 0h-56l176 533h58l175 -533h-56l-45 146h-207zM250 611h-46l-93 136h64z" />
    <glyph glyph-name="aacute.sc" unicode="&#xe020;" horiz-adv-x="437" 
d="M218 480l-91 -289h183zM70 0h-56l176 533h58l175 -533h-56l-45 146h-207zM232 611h-46l75 136h64z" />
    <glyph glyph-name="acircumflex.sc" unicode="&#xe021;" horiz-adv-x="437" 
d="M218 480l-91 -289h183zM70 0h-56l176 533h58l175 -533h-56l-45 146h-207zM153 611h-54l91 136h53l92 -136h-54l-65 99z" />
    <glyph glyph-name="atilde.sc" unicode="&#xe022;" horiz-adv-x="437" 
d="M218 480l-91 -289h183zM70 0h-56l176 533h58l175 -533h-56l-45 146h-207zM128 629h-37q0 37 20.5 65t56.5 28q22 0 56.5 -20.5t45.5 -20.5q16 0 25.5 15.5t9.5 31.5h38q0 -33 -21 -63t-53 -30q-25 0 -55 20.5t-46 20.5t-28 -15t-12 -32z" />
    <glyph glyph-name="adieresis.sc" unicode="&#xe023;" horiz-adv-x="437" 
d="M218 480l-91 -289h183zM70 0h-56l176 533h58l175 -533h-56l-45 146h-207zM175 637h-52v79h52v-79zM313 637h-52v79h52v-79z" />
    <glyph glyph-name="aring.sc" unicode="&#xe024;" horiz-adv-x="437" 
d="M218 480l-91 -289h183zM70 0h-56l176 533h58l175 -533h-56l-45 146h-207zM161 679q0 -24 17 -40.5t41 -16.5t40 16.5t16 40.5t-16 40.5t-40 16.5q-23 0 -40.5 -17t-17.5 -40zM154 615q-27 25 -27 64q0 38 27 64t65 26t64 -26t26 -64t-26 -64t-64 -26q-37 0 -65 26z" />
    <glyph glyph-name="amacron.sc" unicode="&#xe025;" horiz-adv-x="437" 
d="M331 658h-226v43h226v-43zM218 480l-91 -289h183zM70 0h-56l176 533h58l175 -533h-56l-45 146h-207z" />
    <glyph glyph-name="abreve.sc" unicode="&#xe026;" horiz-adv-x="437" 
d="M109 734h37q4 -33 23 -52.5t49 -19.5t49 19.5t23 52.5h37q0 -11 -4.5 -27t-15 -37t-34 -35t-55.5 -14t-55.5 14t-34 35t-15 37t-4.5 27zM218 480l-91 -289h183zM70 0h-56l176 533h58l175 -533h-56l-45 146h-207z" />
    <glyph glyph-name="aogonek.sc" unicode="&#xe027;" horiz-adv-x="437" 
d="M218 480l-91 -289h183zM70 0h-56l176 533h58l175 -533h-7q-73 -48 -73 -97q0 -24 13.5 -34t31.5 -10q22 0 45 11l10 -30q-28 -16 -63 -16q-39 0 -62.5 18.5t-23.5 55.5q0 62 78 102h-5l-45 146h-207z" />
    <glyph glyph-name="ae.sc" unicode="&#xe028;" horiz-adv-x="573" 
d="M297 496l-151 -305h151v305zM54 0h-56l270 533h255v-48h-177v-185h167v-46h-167v-206h186v-48h-235v147h-172z" />
    <glyph glyph-name="cacute.sc" unicode="&#xe029;" horiz-adv-x="396" 
d="M258 611h-46l75 136h64zM362 62l5 -57q-55 -16 -97 -16q-74 0 -126.5 40.5t-75.5 101.5t-23 135q0 116 60 196.5t168 80.5q48 0 93 -20l-5 -55q-35 25 -88 25q-85 0 -128.5 -68t-43.5 -159q0 -90 44 -159t127 -69q44 0 90 24z" />
    <glyph glyph-name="ccircumflex.sc" unicode="&#xe02a;" horiz-adv-x="396" 
d="M362 62l5 -57q-55 -16 -97 -16q-74 0 -126.5 40.5t-75.5 101.5t-23 135q0 116 60 196.5t168 80.5q48 0 93 -20l-5 -55q-35 25 -88 25q-85 0 -128.5 -68t-43.5 -159q0 -90 44 -159t127 -69q44 0 90 24zM184 611h-54l91 136h53l92 -136h-54l-65 99z" />
    <glyph glyph-name="ccaron.sc" unicode="&#xe02b;" horiz-adv-x="396" 
d="M278 611h-53l-92 136h54l65 -99l63 99h54zM362 62l5 -57q-55 -16 -97 -16q-74 0 -126.5 40.5t-75.5 101.5t-23 135q0 116 60 196.5t168 80.5q48 0 93 -20l-5 -55q-35 25 -88 25q-85 0 -128.5 -68t-43.5 -159q0 -90 44 -159t127 -69q44 0 90 24z" />
    <glyph glyph-name="cdotaccent.sc" unicode="&#xe02c;" horiz-adv-x="396" 
d="M362 62l5 -57q-55 -16 -97 -16q-74 0 -126.5 40.5t-75.5 101.5t-23 135q0 116 60 196.5t168 80.5q48 0 93 -20l-5 -55q-35 25 -88 25q-85 0 -128.5 -68t-43.5 -159q0 -90 44 -159t127 -69q44 0 90 24zM279 636h-54v79h54v-79z" />
    <glyph glyph-name="ccedilla.sc" unicode="&#xe02d;" horiz-adv-x="396" 
d="M148 -161l11 32q34 -14 69 -14q22 0 34.5 9.5t12.5 24.5q0 31 -35 31q-19 0 -37 -6l-12 18l42 58q-93 13 -140.5 90.5t-47.5 183.5q0 116 60 196.5t168 80.5q48 0 93 -20l-5 -55q-35 25 -88 25q-85 0 -128 -68t-43 -159q0 -90 43.5 -159t126.5 -69q44 0 90 24l5 -57
q-55 -16 -97 -16h-4l-33 -43q9 3 29 3q27 0 45 -15.5t18 -39.5q0 -33 -25.5 -51.5t-68.5 -18.5q-47 0 -83 15z" />
    <glyph glyph-name="dcaron.sc" unicode="&#xe02e;" horiz-adv-x="457" 
d="M237 611h-53l-92 136h54l65 -99l63 99h54zM127 485v-437h51q93 0 136 61t43 157q0 99 -46 159t-142 60h-42zM169 0h-94v533h76q261 0 261 -267q0 -124 -61.5 -195t-181.5 -71z" />
    <glyph glyph-name="dcroat.sc" unicode="&#xe02f;" horiz-adv-x="457" 
d="M128 248v-200h50q92 0 135 61t43 157q0 100 -45 159.5t-142 59.5h-41v-195h112v-42h-112zM169 0h-92v248h-49v42h49v243h74q261 0 261 -267q0 -124 -61.5 -195t-181.5 -71z" />
    <glyph glyph-name="eth.sc" unicode="&#xe030;" horiz-adv-x="457" 
d="M128 248v-200h50q92 0 135 61t43 157q0 100 -45 159.5t-142 59.5h-41v-195h112v-42h-112zM169 0h-92v248h-49v42h49v243h74q261 0 261 -267q0 -124 -61.5 -195t-181.5 -71z" />
    <glyph glyph-name="egrave.sc" unicode="&#xe031;" horiz-adv-x="360" 
d="M319 0h-244v533h235v-48h-183v-185h173v-46h-173v-206h192v-48zM229 611h-46l-93 136h64z" />
    <glyph glyph-name="eacute.sc" unicode="&#xe032;" horiz-adv-x="360" 
d="M319 0h-244v533h235v-48h-183v-185h173v-46h-173v-206h192v-48zM205 611h-46l75 136h64z" />
    <glyph glyph-name="ecircumflex.sc" unicode="&#xe033;" horiz-adv-x="360" 
d="M319 0h-244v533h235v-48h-183v-185h173v-46h-173v-206h192v-48zM130 611h-54l91 136h53l92 -136h-54l-65 99z" />
    <glyph glyph-name="ecaron.sc" unicode="&#xe034;" horiz-adv-x="360" 
d="M221 611h-53l-92 136h54l65 -99l63 99h54zM319 0h-244v533h235v-48h-183v-185h173v-46h-173v-206h192v-48z" />
    <glyph glyph-name="edieresis.sc" unicode="&#xe035;" horiz-adv-x="360" 
d="M319 0h-244v533h235v-48h-183v-185h173v-46h-173v-206h192v-48zM151 637h-52v79h52v-79zM289 637h-52v79h52v-79z" />
    <glyph glyph-name="edotaccent.sc" unicode="&#xe036;" horiz-adv-x="360" 
d="M221 637h-54v79h54v-79zM319 0h-244v533h235v-48h-183v-185h173v-46h-173v-206h192v-48z" />
    <glyph glyph-name="emacron.sc" unicode="&#xe037;" horiz-adv-x="360" 
d="M307 658h-226v43h226v-43zM319 0h-244v533h235v-48h-183v-185h173v-46h-173v-206h192v-48z" />
    <glyph glyph-name="ebreve.sc" unicode="&#xe038;" horiz-adv-x="360" 
d="M319 0h-244v533h235v-48h-183v-185h173v-46h-173v-206h192v-48zM86 734h37q4 -33 23 -52.5t49 -19.5t49 19.5t23 52.5h37q0 -11 -4.5 -27t-15 -37t-34 -35t-55.5 -14t-55.5 14t-34 35t-15 37t-4.5 27z" />
    <glyph glyph-name="eogonek.sc" unicode="&#xe039;" horiz-adv-x="360" 
d="M252 0h-177v533h235v-48h-183v-185h173v-46h-173v-206h192v-48h-23q-73 -48 -73 -97q0 -24 13.5 -34t31.5 -10q22 0 45 11l10 -30q-28 -16 -63 -16q-39 0 -62.5 18.5t-23.5 55.5q0 62 78 102z" />
    <glyph glyph-name="gcircumflex.sc" unicode="&#xe03a;" horiz-adv-x="455" 
d="M401 285v-265q-58 -31 -127 -31q-113 0 -171 80.5t-58 196.5q0 113 61.5 195t169.5 82q63 0 114 -27l-4 -55q-51 33 -113 33q-57 0 -97.5 -35.5t-58 -85.5t-17.5 -107q0 -92 45 -160t133 -68q44 0 72 16v185h-94v46h145zM191 611h-54l91 136h53l92 -136h-54l-65 99z" />
    <glyph glyph-name="gdotaccent.sc" unicode="&#xe03b;" horiz-adv-x="455" 
d="M401 285v-265q-58 -31 -127 -31q-113 0 -171 80.5t-58 196.5q0 113 61.5 195t169.5 82q63 0 114 -27l-4 -55q-51 33 -113 33q-57 0 -97.5 -35.5t-58 -85.5t-17.5 -107q0 -92 45 -160t133 -68q44 0 72 16v185h-94v46h145zM288 637h-54v79h54v-79z" />
    <glyph glyph-name="gbreve.sc" unicode="&#xe03c;" horiz-adv-x="455" 
d="M153 734h37q4 -33 23 -52.5t49 -19.5t49 19.5t23 52.5h37q0 -11 -4.5 -27t-15 -37t-34 -35t-55.5 -14t-55.5 14t-34 35t-15 37t-4.5 27zM401 285v-265q-58 -31 -127 -31q-113 0 -171 80.5t-58 196.5q0 113 61.5 195t169.5 82q63 0 114 -27l-4 -55q-51 33 -113 33
q-57 0 -97.5 -35.5t-58 -85.5t-17.5 -107q0 -92 45 -160t133 -68q44 0 72 16v185h-94v46h145z" />
    <glyph glyph-name="gcommaaccent.sc" unicode="&#xe03d;" horiz-adv-x="455" 
d="M401 285v-265q-58 -31 -127 -31q-113 0 -171 80.5t-58 196.5q0 113 61.5 195t169.5 82q63 0 114 -27l-4 -55q-51 33 -113 33q-57 0 -97.5 -35.5t-58 -85.5t-17.5 -107q0 -92 45 -160t133 -68q44 0 72 16v185h-94v46h145zM246 -227h-41l33 158h56z" />
    <glyph glyph-name="hcircumflex.sc" unicode="&#xe03e;" horiz-adv-x="459" 
d="M127 0h-52v533h52v-232h205v232h52v-533h-52v254h-205v-254zM165 611h-54l91 136h53l92 -136h-54l-65 99z" />
    <glyph glyph-name="hbar.sc" unicode="&#xe03f;" horiz-adv-x="459" 
d="M127 374v-100h205v100h-205zM127 0h-52v533h52v-119h205v119h52v-533h-52v229h-205v-229z" />
    <glyph glyph-name="igrave.sc" unicode="&#xe040;" horiz-adv-x="202" 
d="M140 611h-46l-93 136h64zM127 0h-52v533h52v-533z" />
    <glyph glyph-name="iacute.sc" unicode="&#xe041;" horiz-adv-x="202" 
d="M108 611h-46l75 136h64zM127 0h-52v533h52v-533z" />
    <glyph glyph-name="icircumflex.sc" unicode="&#xe042;" horiz-adv-x="202" 
d="M37 611h-54l91 136h53l92 -136h-54l-65 99zM127 0h-52v533h52v-533z" />
    <glyph glyph-name="itilde.sc" unicode="&#xe043;" horiz-adv-x="202" 
d="M13 629h-37q0 37 20.5 65t56.5 28q22 0 56.5 -20.5t45.5 -20.5q16 0 25.5 15.5t9.5 31.5h38q0 -33 -21 -63t-53 -30q-25 0 -55 20.5t-46 20.5t-28 -15t-12 -32zM127 0h-52v533h52v-533z" />
    <glyph glyph-name="idieresis.sc" unicode="&#xe044;" horiz-adv-x="202" 
d="M58 637h-52v79h52v-79zM196 637h-52v79h52v-79zM127 0h-52v533h52v-533z" />
    <glyph glyph-name="imacron.sc" unicode="&#xe045;" horiz-adv-x="202" 
d="M214 658h-226v43h226v-43zM127 0h-52v533h52v-533z" />
    <glyph glyph-name="idotaccent.sc" unicode="&#xe046;" horiz-adv-x="202" 
d="M128 637h-54v79h54v-79zM127 0h-52v533h52v-533z" />
    <glyph glyph-name="iogonek.sc" unicode="&#xe047;" horiz-adv-x="202" 
d="M162 -130l10 -30q-28 -16 -63 -16q-39 0 -63 18.5t-24 55.5q0 50 60 102h-7v533h52v-533h-1q-55 -45 -55 -97q0 -24 14 -34t32 -10q22 0 45 11z" />
    <glyph glyph-name="jcircumflex.sc" unicode="&#xe048;" horiz-adv-x="232" 
d="M69 611h-54l91 136h53l92 -136h-54l-65 99zM6 -3l5 52q19 -10 36 -10q34 0 48.5 23.5t14.5 79.5v391h52v-390q0 -79 -27 -116.5t-87 -37.5q-21 0 -42 8z" />
    <glyph glyph-name="kcommaaccent.sc" unicode="&#xe049;" horiz-adv-x="402" 
d="M127 0h-52v533h52v-243l193 243h62l-208 -252l226 -281h-66l-207 266v-266zM216 -227h-41l33 158h56z" />
    <glyph glyph-name="lacute.sc" unicode="&#xe04a;" horiz-adv-x="319" 
d="M302 0h-227v533h52v-485h175v-48zM128 611h-46l75 136h64z" />
    <glyph glyph-name="lcaron.sc" unicode="&#xe04b;" horiz-adv-x="319" 
d="M302 0h-227v533h52v-485h175v-48zM227 447h-38l17 156h58z" />
    <glyph glyph-name="lcommaaccent.sc" unicode="&#xe04c;" horiz-adv-x="319" 
d="M302 0h-227v533h52v-485h175v-48zM172 -227h-41l33 158h56z" />
    <glyph glyph-name="ldot.sc" unicode="&#xe04d;" horiz-adv-x="319" 
d="M302 0h-227v533h52v-485h175v-48zM281 265h-54v79h54v-79z" />
    <glyph glyph-name="lslash.sc" unicode="&#xe04e;" horiz-adv-x="319" 
d="M302 0h-227v231l-47 -53v56l47 53v246h52v-191l86 98v-58l-86 -97v-237h175v-48z" />
    <glyph glyph-name="nacute.sc" unicode="&#xe04f;" horiz-adv-x="488" 
d="M254 611h-46l75 136h64zM126 0h-51v533h74l213 -471v471h51v-533h-74l-213 469v-469z" />
    <glyph glyph-name="ncaron.sc" unicode="&#xe050;" horiz-adv-x="488" 
d="M274 611h-53l-92 136h54l65 -99l63 99h54zM126 0h-51v533h74l213 -471v471h51v-533h-74l-213 469v-469z" />
    <glyph glyph-name="ntilde.sc" unicode="&#xe051;" horiz-adv-x="488" 
d="M126 0h-51v533h74l213 -471v471h51v-533h-74l-213 469v-469zM158 629h-37q0 37 20.5 65t56.5 28q22 0 56.5 -20.5t45.5 -20.5q16 0 25.5 15.5t9.5 31.5h38q0 -33 -21 -63t-53 -30q-25 0 -55 20.5t-46 20.5t-28 -15t-12 -32z" />
    <glyph glyph-name="ncommaaccent.sc" unicode="&#xe052;" horiz-adv-x="488" 
d="M126 0h-51v533h74l213 -471v471h51v-533h-74l-213 469v-469zM232 -227h-41l33 158h56z" />
    <glyph glyph-name="ograve.sc" unicode="&#xe054;" horiz-adv-x="469" 
d="M125 117q35 -79 109 -79q41 0 69.5 22t42 59.5t18.5 72.5t5 74q0 228 -135 228q-40 0 -68 -22.5t-41.5 -59.5t-19 -72.5t-5.5 -73.5q0 -90 25 -149zM139 15q-94 66 -94 251q0 50 9.5 96t29.5 88t59 67.5t91 25.5q56 0 95.5 -25t59 -68t27.5 -87.5t8 -96.5q0 -50 -9 -95.5
t-29.5 -88t-59.5 -68t-92 -25.5q-57 0 -95 26zM272 611h-46l-93 136h64z" />
    <glyph glyph-name="oacute.sc" unicode="&#xe055;" horiz-adv-x="469" 
d="M125 117q35 -79 109 -79q41 0 69.5 22t42 59.5t18.5 72.5t5 74q0 228 -135 228q-40 0 -68 -22.5t-41.5 -59.5t-19 -72.5t-5.5 -73.5q0 -90 25 -149zM139 15q-94 66 -94 251q0 50 9.5 96t29.5 88t59 67.5t91 25.5q56 0 95.5 -25t59 -68t27.5 -87.5t8 -96.5q0 -50 -9 -95.5
t-29.5 -88t-59.5 -68t-92 -25.5q-57 0 -95 26zM243 611h-46l75 136h64z" />
    <glyph glyph-name="ocircumflex.sc" unicode="&#xe056;" horiz-adv-x="469" 
d="M125 117q35 -79 109 -79q41 0 69.5 22t42 59.5t18.5 72.5t5 74q0 228 -135 228q-40 0 -68 -22.5t-41.5 -59.5t-19 -72.5t-5.5 -73.5q0 -90 25 -149zM139 15q-94 66 -94 251q0 50 9.5 96t29.5 88t59 67.5t91 25.5q56 0 95.5 -25t59 -68t27.5 -87.5t8 -96.5q0 -50 -9 -95.5
t-29.5 -88t-59.5 -68t-92 -25.5q-57 0 -95 26zM171 611h-54l91 136h53l92 -136h-54l-65 99z" />
    <glyph glyph-name="otilde.sc" unicode="&#xe057;" horiz-adv-x="469" 
d="M125 117q35 -79 109 -79q41 0 69.5 22t42 59.5t18.5 72.5t5 74q0 228 -135 228q-40 0 -68 -22.5t-41.5 -59.5t-19 -72.5t-5.5 -73.5q0 -90 25 -149zM139 15q-94 66 -94 251q0 50 9.5 96t29.5 88t59 67.5t91 25.5q56 0 95.5 -25t59 -68t27.5 -87.5t8 -96.5q0 -50 -9 -95.5
t-29.5 -88t-59.5 -68t-92 -25.5q-57 0 -95 26zM147 629h-37q0 37 20.5 65t56.5 28q22 0 56.5 -20.5t45.5 -20.5q16 0 25.5 15.5t9.5 31.5h38q0 -33 -21 -63t-53 -30q-25 0 -55 20.5t-46 20.5t-28 -15t-12 -32z" />
    <glyph glyph-name="odieresis.sc" unicode="&#xe058;" horiz-adv-x="469" 
d="M125 117q35 -79 109 -79q41 0 69.5 22t42 59.5t18.5 72.5t5 74q0 228 -135 228q-40 0 -68 -22.5t-41.5 -59.5t-19 -72.5t-5.5 -73.5q0 -90 25 -149zM139 15q-94 66 -94 251q0 50 9.5 96t29.5 88t59 67.5t91 25.5q56 0 95.5 -25t59 -68t27.5 -87.5t8 -96.5q0 -50 -9 -95.5
t-29.5 -88t-59.5 -68t-92 -25.5q-57 0 -95 26zM192 637h-52v79h52v-79zM330 637h-52v79h52v-79z" />
    <glyph glyph-name="omacron.sc" unicode="&#xe059;" horiz-adv-x="469" 
d="M348 658h-226v43h226v-43zM125 117q35 -79 109 -79q41 0 69.5 22t42 59.5t18.5 72.5t5 74q0 228 -135 228q-40 0 -68 -22.5t-41.5 -59.5t-19 -72.5t-5.5 -73.5q0 -90 25 -149zM139 15q-94 66 -94 251q0 50 9.5 96t29.5 88t59 67.5t91 25.5q56 0 95.5 -25t59 -68
t27.5 -87.5t8 -96.5q0 -50 -9 -95.5t-29.5 -88t-59.5 -68t-92 -25.5q-57 0 -95 26z" />
    <glyph glyph-name="obreve.sc" unicode="&#xe05a;" horiz-adv-x="469" 
d="M125 117q35 -79 109 -79q41 0 69.5 22t42 59.5t18.5 72.5t5 74q0 228 -135 228q-40 0 -68 -22.5t-41.5 -59.5t-19 -72.5t-5.5 -73.5q0 -90 25 -149zM139 15q-94 66 -94 251q0 50 9.5 96t29.5 88t59 67.5t91 25.5q56 0 95.5 -25t59 -68t27.5 -87.5t8 -96.5q0 -50 -9 -95.5
t-29.5 -88t-59.5 -68t-92 -25.5q-57 0 -95 26zM126 734h37q4 -33 23 -52.5t49 -19.5t49 19.5t23 52.5h37q0 -11 -4.5 -27t-15 -37t-34 -35t-55.5 -14t-55.5 14t-34 35t-15 37t-4.5 27z" />
    <glyph glyph-name="ohungarumlaut.sc" unicode="&#xe05b;" horiz-adv-x="469" 
d="M184 611h-47l73 136h66zM313 611h-47l74 136h65zM125 117q35 -79 109 -79q41 0 69.5 22t42 59.5t18.5 72.5t5 74q0 228 -135 228q-40 0 -68 -22.5t-41.5 -59.5t-19 -72.5t-5.5 -73.5q0 -90 25 -149zM139 15q-94 66 -94 251q0 50 9.5 96t29.5 88t59 67.5t91 25.5
q56 0 95.5 -25t59 -68t27.5 -87.5t8 -96.5q0 -50 -9 -95.5t-29.5 -88t-59.5 -68t-92 -25.5q-57 0 -95 26z" />
    <glyph glyph-name="oslash.sc" unicode="&#xe05c;" horiz-adv-x="469" 
d="M117 137l220 295q-34 62 -103 62q-40 0 -68 -22.5t-41.5 -59.5t-19 -72.5t-5.5 -73.5q0 -75 17 -129zM351 400l-220 -295q34 -67 103 -67q41 0 69.5 22t42 59.5t18.5 72.5t5 74q0 82 -18 134zM40 -17l-23 19l62 83q-34 67 -34 181q0 50 9.5 96t29.5 88t59 67.5t91 25.5
q88 0 137 -66l60 81l24 -19l-67 -89q36 -71 36 -184q0 -50 -9 -95.5t-29.5 -88t-59.5 -68t-92 -25.5q-91 0 -139 68z" />
    <glyph glyph-name="oe.sc" unicode="&#xe05d;" horiz-adv-x="581" 
d="M315 49v434q-24 11 -66 11q-41 0 -72 -22.5t-46.5 -58.5t-23 -73t-7.5 -74q0 -38 7.5 -75t24 -73t47.5 -58t73 -22q38 0 63 11zM540 0h-218q-42 -11 -71 -11q-57 0 -99.5 25t-64.5 67.5t-32 88t-10 96.5q0 49 11 95.5t33.5 88.5t63.5 67.5t95 25.5q46 0 73 -10h210v-48
h-167v-185h157v-46h-157v-206h176v-48z" />
    <glyph glyph-name="racute.sc" unicode="&#xe05e;" horiz-adv-x="406" 
d="M203 611h-46l75 136h64zM127 486v-193h70q99 0 99 99q0 47 -27 70.5t-74 23.5h-68zM127 0h-52v533h132q64 0 104 -36.5t40 -100.5q0 -51 -29 -85.5t-77 -42.5q37 -6 56 -55l79 -213h-55l-64 179q-12 35 -28.5 51t-45.5 16h-60v-246z" />
    <glyph glyph-name="rcommaaccent.sc" unicode="&#xe05f;" horiz-adv-x="406" 
d="M127 486v-193h70q99 0 99 99q0 47 -27 70.5t-74 23.5h-68zM127 0h-52v533h132q64 0 104 -36.5t40 -100.5q0 -51 -29 -85.5t-77 -42.5q37 -6 56 -55l79 -213h-55l-64 179q-12 35 -28.5 51t-45.5 16h-60v-246zM208 -227h-41l33 158h56z" />
    <glyph glyph-name="rcaron.sc" unicode="&#xe060;" horiz-adv-x="406" 
d="M225 611h-53l-92 136h54l65 -99l63 99h54zM127 486v-193h70q99 0 99 99q0 47 -27 70.5t-74 23.5h-68zM127 0h-52v533h132q64 0 104 -36.5t40 -100.5q0 -51 -29 -85.5t-77 -42.5q37 -6 56 -55l79 -213h-55l-64 179q-12 35 -28.5 51t-45.5 16h-60v-246z" />
    <glyph glyph-name="sacute.sc" unicode="&#xe061;" horiz-adv-x="342" 
d="M183 611h-46l75 136h64zM42 10l5 58q47 -29 101 -29q47 0 73.5 25.5t26.5 68.5q0 37 -16.5 57.5t-60.5 52.5l-47 33q-42 31 -62 61.5t-20 73.5q0 59 41 95.5t105 36.5q53 0 94 -16l-5 -56q-39 22 -89 22q-41 0 -66 -21t-25 -57q0 -32 15.5 -52.5t48.5 -44.5l47 -33
q55 -41 75 -70t20 -77q0 -65 -41.5 -107t-111.5 -42q-58 0 -108 21z" />
    <glyph glyph-name="scircumflex.sc" unicode="&#xe062;" horiz-adv-x="342" 
d="M42 10l5 58q47 -29 101 -29q47 0 73.5 25.5t26.5 68.5q0 37 -16.5 57.5t-60.5 52.5l-47 33q-42 31 -62 61.5t-20 73.5q0 59 41 95.5t105 36.5q53 0 94 -16l-5 -56q-39 22 -89 22q-41 0 -66 -21t-25 -57q0 -32 15.5 -52.5t48.5 -44.5l47 -33q55 -41 75 -70t20 -77
q0 -65 -41.5 -107t-111.5 -42q-58 0 -108 21zM107 611h-54l91 136h53l92 -136h-54l-65 99z" />
    <glyph glyph-name="scaron.sc" unicode="&#xe063;" horiz-adv-x="342" 
d="M42 10l5 58q47 -29 101 -29q47 0 73.5 25.5t26.5 68.5q0 37 -16.5 57.5t-60.5 52.5l-47 33q-42 31 -62 61.5t-20 73.5q0 59 41 95.5t105 36.5q53 0 94 -16l-5 -56q-39 22 -89 22q-41 0 -66 -21t-25 -57q0 -32 15.5 -52.5t48.5 -44.5l47 -33q55 -41 75 -70t20 -77
q0 -65 -41.5 -107t-111.5 -42q-58 0 -108 21zM203 611h-53l-92 136h54l65 -99l63 99h54z" />
    <glyph glyph-name="scedilla.sc" unicode="&#xe064;" horiz-adv-x="342" 
d="M68 -161l11 32q34 -14 69 -14q22 0 34.5 9.5t12.5 24.5q0 31 -35 31q-19 0 -37 -6l-12 18l40 55h-1q-58 0 -108 21l5 58q47 -29 101 -29q47 0 73.5 25.5t26.5 68.5q0 37 -16.5 57.5t-60.5 52.5l-47 33q-42 31 -62 61.5t-20 73.5q0 59 41 95.5t105 36.5q53 0 94 -16
l-5 -56q-39 22 -89 22q-41 0 -66 -21t-25 -57q0 -32 15.5 -52.5t48.5 -44.5l47 -33q55 -41 75 -70t20 -77q0 -57 -30 -95.5t-86 -49.5l-34 -47q9 3 29 3q27 0 45 -15.5t18 -39.5q0 -33 -25.5 -51.5t-68.5 -18.5q-47 0 -83 15z" />
    <glyph glyph-name="scommaaccent.sc" unicode="&#xe065;" horiz-adv-x="342" 
d="M42 10l5 58q47 -29 101 -29q47 0 73.5 25.5t26.5 68.5q0 37 -16.5 57.5t-60.5 52.5l-47 33q-42 31 -62 61.5t-20 73.5q0 59 41 95.5t105 36.5q53 0 94 -16l-5 -56q-39 22 -89 22q-41 0 -66 -21t-25 -57q0 -32 15.5 -52.5t48.5 -44.5l47 -33q55 -41 75 -70t20 -77
q0 -65 -41.5 -107t-111.5 -42q-58 0 -108 21zM157 -227h-41l33 158h56z" />
    <glyph glyph-name="germandbls.sc" unicode="&#xe066;" horiz-adv-x="676" 
d="M376 10l5 58q47 -29 101 -29q47 0 73.5 25.5t26.5 68.5q0 37 -16.5 57.5t-60.5 52.5l-47 33q-42 31 -62 61.5t-20 73.5q0 59 41 95.5t105 36.5q53 0 94 -16l-5 -56q-39 22 -89 22q-41 0 -66 -21t-25 -57q0 -32 15.5 -52.5t48.5 -44.5l47 -33q55 -41 75 -70t20 -77
q0 -65 -41.5 -107t-111.5 -42q-58 0 -108 21zM42 10l5 58q47 -29 101 -29q47 0 73.5 25.5t26.5 68.5q0 37 -16.5 57.5t-60.5 52.5l-47 33q-42 31 -62 61.5t-20 73.5q0 59 41 95.5t105 36.5q53 0 94 -16l-5 -56q-39 22 -89 22q-41 0 -66 -21t-25 -57q0 -32 15.5 -52.5
t48.5 -44.5l47 -33q55 -41 75 -70t20 -77q0 -65 -41.5 -107t-111.5 -42q-58 0 -108 21z" />
    <glyph glyph-name="tcaron.sc" unicode="&#xe067;" horiz-adv-x="323" 
d="M189 611h-53l-92 136h54l65 -99l63 99h54zM187 0h-52v485h-122v48h297v-48h-123v-485z" />
    <glyph glyph-name="tcommaaccent.sc" unicode="&#xe068;" horiz-adv-x="323" 
d="M187 0h-52v485h-122v48h297v-48h-123v-485zM142 -227h-41l33 158h56z" />
    <glyph glyph-name="tbar.sc" unicode="&#xe069;" horiz-adv-x="323" 
d="M187 0h-52v322h-91v42h91v121h-122v48h297v-48h-123v-121h92v-42h-92v-322z" />
    <glyph glyph-name="thorn.sc" unicode="&#xe06a;" horiz-adv-x="382" 
d="M127 378v-212h57q56 0 83.5 25t27.5 80q0 57 -30.5 82t-90.5 25h-47zM127 0h-52v533h52v-108h56q79 0 123.5 -38t44.5 -116q0 -71 -41.5 -111.5t-112.5 -40.5h-70v-119z" />
    <glyph glyph-name="ugrave.sc" unicode="&#xe06b;" horiz-adv-x="461" 
d="M122 533v-343q0 -151 109 -151q108 0 108 151v343h52v-340q0 -90 -38 -147t-123 -57q-160 0 -160 204v340h52zM267 611h-46l-93 136h64z" />
    <glyph glyph-name="uacute.sc" unicode="&#xe06c;" horiz-adv-x="461" 
d="M122 533v-343q0 -151 109 -151q108 0 108 151v343h52v-340q0 -90 -38 -147t-123 -57q-160 0 -160 204v340h52zM240 611h-46l75 136h64z" />
    <glyph glyph-name="ucircumflex.sc" unicode="&#xe06d;" horiz-adv-x="461" 
d="M122 533v-343q0 -151 109 -151q108 0 108 151v343h52v-340q0 -90 -38 -147t-123 -57q-160 0 -160 204v340h52zM167 611h-54l91 136h53l92 -136h-54l-65 99z" />
    <glyph glyph-name="utilde.sc" unicode="&#xe06e;" horiz-adv-x="461" 
d="M122 533v-343q0 -151 109 -151q108 0 108 151v343h52v-340q0 -90 -38 -147t-123 -57q-160 0 -160 204v340h52zM141 629h-37q0 37 20.5 65t56.5 28q22 0 56.5 -20.5t45.5 -20.5q16 0 25.5 15.5t9.5 31.5h38q0 -33 -21 -63t-53 -30q-25 0 -55 20.5t-46 20.5t-28 -15
t-12 -32z" />
    <glyph glyph-name="udieresis.sc" unicode="&#xe06f;" horiz-adv-x="461" 
d="M122 533v-343q0 -151 109 -151q108 0 108 151v343h52v-340q0 -90 -38 -147t-123 -57q-160 0 -160 204v340h52zM188 637h-52v79h52v-79zM326 637h-52v79h52v-79z" />
    <glyph glyph-name="umacron.sc" unicode="&#xe070;" horiz-adv-x="461" 
d="M344 658h-226v43h226v-43zM122 533v-343q0 -151 109 -151q108 0 108 151v343h52v-340q0 -90 -38 -147t-123 -57q-160 0 -160 204v340h52z" />
    <glyph glyph-name="ubreve.sc" unicode="&#xe071;" horiz-adv-x="461" 
d="M122 533v-343q0 -151 109 -151q108 0 108 151v343h52v-340q0 -90 -38 -147t-123 -57q-160 0 -160 204v340h52zM122 734h37q4 -33 23 -52.5t49 -19.5t49 19.5t23 52.5h37q0 -11 -4.5 -27t-15 -37t-34 -35t-55.5 -14t-55.5 14t-34 35t-15 37t-4.5 27z" />
    <glyph glyph-name="uring.sc" unicode="&#xe072;" horiz-adv-x="461" 
d="M174 679q0 -24 17 -40.5t41 -16.5t40 16.5t16 40.5t-16 40.5t-40 16.5q-23 0 -40.5 -17t-17.5 -40zM167 615q-27 25 -27 64q0 38 27 64t65 26t64 -26t26 -64t-26 -64t-64 -26q-37 0 -65 26zM122 533v-343q0 -151 109 -151q108 0 108 151v343h52v-340q0 -90 -38 -147
t-123 -57q-160 0 -160 204v340h52z" />
    <glyph glyph-name="uhungarumlaut.sc" unicode="&#xe073;" horiz-adv-x="461" 
d="M177 611h-47l73 136h66zM306 611h-47l74 136h65zM122 533v-343q0 -151 109 -151q108 0 108 151v343h52v-340q0 -90 -38 -147t-123 -57q-160 0 -160 204v340h52z" />
    <glyph glyph-name="uogonek.sc" unicode="&#xe074;" horiz-adv-x="461" 
d="M310 -130l10 -30q-28 -16 -63 -16q-39 0 -62.5 18.5t-23.5 55.5q0 52 59 91q-160 0 -160 204v340h52v-343q0 -151 109 -151q108 0 108 151v343h52v-340q0 -156 -99 -193q-72 -49 -72 -97q0 -24 13.5 -34t31.5 -10q22 0 45 11z" />
    <glyph glyph-name="wcircumflex.sc" unicode="&#xe075;" horiz-adv-x="609" 
d="M202 0h-67l-122 533h57l101 -478l102 478h67l103 -478l99 478h53l-121 -533h-65l-104 481zM240 611h-54l91 136h53l92 -136h-54l-65 99z" />
    <glyph glyph-name="yacute.sc" unicode="&#xe076;" horiz-adv-x="338" 
d="M196 0h-52v227l-141 306h58l110 -259l110 259h55l-140 -306v-227zM178 611h-46l75 136h64z" />
    <glyph glyph-name="ycircumflex.sc" unicode="&#xe077;" horiz-adv-x="338" 
d="M196 0h-52v227l-141 306h58l110 -259l110 259h55l-140 -306v-227zM107 611h-54l91 136h53l92 -136h-54l-65 99z" />
    <glyph glyph-name="ydieresis.sc" unicode="&#xe078;" horiz-adv-x="338" 
d="M196 0h-52v227l-141 306h58l110 -259l110 259h55l-140 -306v-227zM128 637h-52v79h52v-79zM266 637h-52v79h52v-79z" />
    <glyph glyph-name="zacute.sc" unicode="&#xe079;" horiz-adv-x="344" 
d="M184 611h-46l75 136h64zM315 0h-289v51l231 434h-222v48h276v-50l-231 -435h235v-48z" />
    <glyph glyph-name="zcaron.sc" unicode="&#xe07a;" horiz-adv-x="344" 
d="M315 0h-289v51l231 434h-222v48h276v-50l-231 -435h235v-48zM205 611h-53l-92 136h54l65 -99l63 99h54z" />
    <glyph glyph-name="zdotaccent.sc" unicode="&#xe07b;" horiz-adv-x="344" 
d="M205 637h-54v79h54v-79zM315 0h-289v51l231 434h-222v48h276v-50l-231 -435h235v-48z" />
    <glyph glyph-name="fi.sc" unicode="&#xe07c;" horiz-adv-x="531" 
d="M127 0h-52v533h229v-48h-177v-189h168v-46h-168v-250zM456 0h-52v533h52v-533z" />
    <glyph glyph-name="fl.sc" unicode="&#xe07d;" horiz-adv-x="648" 
d="M127 0h-52v533h229v-48h-177v-189h168v-46h-168v-250zM631 0h-227v533h52v-485h175v-48z" />
    <glyph glyph-name="ij.sc" unicode="&#xe07e;" horiz-adv-x="426" 
d="M127 0h-52v533h52v-533zM200 -3l5 52q19 -10 36 -10q34 0 48.5 23.5t14.5 79.5v391h52v-390q0 -79 -27 -116.5t-87 -37.5q-21 0 -42 8z" />
    <glyph glyph-name="exclamdown.sc" unicode="&#xe07f;" horiz-adv-x="230" 
d="M147 457h-64v76h64v-76zM144 0h-59l6 374h46z" />
    <glyph glyph-name="questiondown.sc" unicode="&#xe080;" horiz-adv-x="290" 
d="M197 457h-64v76h64v-76zM251 64l5 -55q-43 -19 -85 -19q-65 0 -103 33.5t-38 97.5q0 37 17 70t37.5 54t37.5 55t17 74h52q0 -43 -16.5 -80t-35.5 -58t-35.5 -50t-16.5 -60q0 -39 23.5 -62.5t62.5 -23.5q41 0 78 24z" />
    <glyph glyph-name="Euro.sc" unicode="&#xe081;" horiz-adv-x="380" 
d="M78 190h-59l6 40h51q-1 19 -1 36q0 18 1 35h-57l6 40h54q11 85 57.5 143.5t127.5 58.5q51 0 79 -18l-9 -50q-21 20 -67 20q-60 0 -93.5 -42.5t-42.5 -111.5h185l-6 -40h-182q-1 -17 -1 -35q0 -19 1 -36h171l-6 -40h-162q6 -67 40.5 -110t94.5 -43q43 0 68 18l5 -52
q-34 -14 -77 -14q-81 0 -127 56.5t-57 144.5z" />
    <glyph glyph-name="cent.sc" unicode="&#xe082;" horiz-adv-x="380" 
d="M233 0h-36v74q-65 11 -96.5 66.5t-31.5 128.5q0 75 34.5 127.5t93.5 63.5v73h36v-71q26 -1 61 -15l-4 -52q-24 19 -64 19q-53 0 -78.5 -44t-25.5 -101q0 -39 9.5 -70.5t35 -55.5t65.5 -24q30 0 61 22l5 -53q-33 -13 -65 -15v-73z" />
    <glyph glyph-name="sterling.sc" unicode="&#xe083;" horiz-adv-x="380" 
d="M334 0h-288v45h61v222h-58v46h58v67q0 69 39.5 116t107.5 47q52 0 85 -20l-5 -51q-31 23 -75 23q-43 0 -71.5 -31.5t-28.5 -86.5v-64h123v-46h-123v-222h175v-45z" />
    <glyph glyph-name="florin.sc" unicode="&#xe084;" horiz-adv-x="380" 
d="M-9 -175l8 45q16 -6 26 -6q23 0 40 31t34 109l57 274h-70v42h78l16 78q15 77 40 111t69 34q21 0 48 -11l-8 -45q-14 10 -34 10q-42 0 -64 -111l-13 -66h67v-42h-75l-59 -280q-21 -98 -49 -139t-71 -41q-27 0 -40 7z" />
    <glyph glyph-name="yen.sc" unicode="&#xe085;" horiz-adv-x="380" 
d="M214 0h-50v119h-101v38h101v67h-101v38h87l-122 271h54l108 -260l107 260h53l-122 -271h87v-38h-101v-67h101v-38h-101v-119z" />
    <glyph glyph-name="ordfeminine.sc" unicode="&#xe086;" horiz-adv-x="272" 
d="M135 506l-34 -119h68zM78 301h-47l78 237h54l75 -237h-45l-15 51h-85z" />
    <glyph glyph-name="perthousand.sc" unicode="&#xe087;" horiz-adv-x="867" 
d="M220 -19h-41l226 571h41zM712 -11q-99 0 -99 165t99 165t99 -165t-99 -165zM670 64q12 -34 42 -36q53 0 53 126t-53 126t-53 -126q0 -52 11 -90zM470 -11q-99 0 -99 165t99 165t99 -165t-99 -165zM428 64q12 -34 42 -36q53 0 53 126t-53 126t-53 -126q0 -52 11 -90z
M157 213q-99 0 -99 165t99 165t99 -165t-99 -165zM115 288q12 -34 42 -36q53 0 53 126t-53 126t-53 -126q0 -52 11 -90z" />
    <glyph glyph-name="dotlessj.sc" unicode="&#xe090;" horiz-adv-x="232" 
d="M6 -3l5 52q19 -10 36 -10q34 0 48.5 23.5t14.5 79.5v391h52v-390q0 -79 -27 -116.5t-87 -37.5q-21 0 -42 8z" />
    <glyph glyph-name="zero.onum" unicode="&#xe100;" horiz-adv-x="460" 
d="M149 9q-107 64 -107 258q0 124 51 203t137 79q90 0 139 -76t49 -202q0 -124 -51 -203t-137 -79q-46 0 -81 20zM132 106q34 -64 98 -64t96.5 63t32.5 166t-32 164t-97 61q-64 0 -96.5 -63.5t-32.5 -165.5t31 -161z" />
    <glyph glyph-name="one.onum" unicode="&#xe101;" horiz-adv-x="460" 
d="M277 0h-55v487h-115v52h170v-539z" />
    <glyph glyph-name="two.onum" unicode="&#xe102;" horiz-adv-x="460" 
d="M360 0h-280v48l107 129q61 72 82.5 119t21.5 99q0 47 -24 74t-63 27q-45 0 -102 -26l-4 55q51 24 109 24q66 0 104.5 -40t38.5 -114q0 -63 -27.5 -118.5t-97.5 -137.5l-74 -88h209v-51z" />
    <glyph glyph-name="three.onum" unicode="&#xe103;" horiz-adv-x="460" 
d="M77 -160l-6 54q24 -2 37 -2q87 0 136 50t49 138q0 123 -132 123h-31v57h31q59 0 91 36t32 96q0 53 -28.5 78.5t-64.5 25.5q-53 0 -105 -28l-4 56q53 25 113 25q25 0 48.5 -7.5t47 -24t38 -48.5t14.5 -76q0 -62 -33 -104t-86 -54q59 -7 93.5 -45.5t34.5 -108.5
q0 -106 -63.5 -174t-174.5 -68q-26 0 -37 1z" />
    <glyph glyph-name="four.onum" unicode="&#xe104;" horiz-adv-x="460" 
d="M282 0h-225v50l182 489h57l-185 -488h171v316h54v-316h72v-51h-72v-160h-54v160z" />
    <glyph glyph-name="five.onum" unicode="&#xe105;" horiz-adv-x="460" 
d="M106 -160l-6 54q24 -2 37 -2q87 0 136 50t49 142q0 60 -29.5 97.5t-89.5 37.5q-43 0 -97 -15l8 335h245v-52h-193l-7 -219q25 4 52 4q83 0 126.5 -50.5t43.5 -136.5q0 -110 -63.5 -178t-174.5 -68q-26 0 -37 1z" />
    <glyph glyph-name="six.onum" unicode="&#xe106;" horiz-adv-x="460" 
d="M360 697v-54q-24 2 -35 2q-66 0 -113.5 -45.5t-69 -112.5t-23.5 -146q45 87 128 87q72 0 112 -57t40 -157q0 -103 -45.5 -164t-121.5 -61q-167 0 -167 290q0 185 67.5 302t191.5 117q25 0 36 -1zM152 87q28 -45 81 -45q108 0 108 168q0 165 -103 165q-52 0 -83 -42.5
t-31 -116.5q0 -83 28 -129z" />
    <glyph glyph-name="seven.onum" unicode="&#xe107;" horiz-adv-x="460" 
d="M141 -161l-55 10q80 294 230 638h-247v52h303v-51q-162 -380 -231 -649z" />
    <glyph glyph-name="eight.onum" unicode="&#xe108;" horiz-adv-x="460" 
d="M320 258q-26 39 -91 71q-115 -40 -115 -160q0 -59 33.5 -93.5t82.5 -34.5q52 0 84 33.5t32 94.5q0 51 -26 89zM159 435q25 -35 75 -60q52 23 72.5 56.5t20.5 86.5q0 59 -27.5 90t-68.5 31t-68.5 -31.5t-27.5 -88.5q0 -49 24 -84zM90 282q34 46 91 72q-49 30 -75.5 68
t-26.5 98q0 77 44 124t108 47q63 0 107.5 -43t44.5 -124q0 -118 -103 -171q63 -31 93.5 -75t30.5 -111q0 -82 -49.5 -130t-124.5 -48q-74 0 -124 46.5t-50 127.5q0 73 34 119z" />
    <glyph glyph-name="nine.onum" unicode="&#xe109;" horiz-adv-x="460" 
d="M100 -160v54q24 -2 35 -2q67 0 113.5 43t68 109.5t24.5 151.5q-45 -87 -128 -87q-70 0 -111 56.5t-41 157.5q0 103 46 164t121 61q167 0 167 -290q0 -194 -66.5 -306.5t-192.5 -112.5q-25 0 -36 1zM144 204q26 -42 78 -42t83 42.5t31 116.5q0 83 -28.5 128.5t-80.5 45.5
q-108 0 -108 -168q0 -82 25 -123z" />
    <glyph glyph-name="zero.sc" unicode="&#xe10a;" horiz-adv-x="380" 
d="M117 100q23 -62 73 -62q94 0 94 228t-94 228t-94 -228q0 -110 21 -166zM120 10q-79 59 -79 256q0 130 38 203.5t111 73.5q78 0 113.5 -75t35.5 -202q0 -130 -38 -203.5t-111 -73.5q-42 0 -70 21z" />
    <glyph glyph-name="one.sc" unicode="&#xe10b;" horiz-adv-x="380" 
d="M233 0h-52v471l-77 -80l-30 37l109 105h50v-533z" />
    <glyph glyph-name="two.sc" unicode="&#xe10c;" horiz-adv-x="380" 
d="M315 0h-270v45l80 105l51.5 70.5t37.5 58t30.5 65t8.5 58.5q0 43 -22.5 67.5t-63.5 24.5q-40 0 -97 -37l-5 54q51 32 112 32q66 0 98.5 -41t32.5 -99q0 -35 -9 -67.5t-35 -74t-42.5 -64.5l-59.5 -81l-53 -69h206v-47z" />
    <glyph glyph-name="three.sc" unicode="&#xe10d;" horiz-adv-x="380" 
d="M40 10l5 54q52 -25 97 -25q52 0 85 31t33 84q0 48 -38 74.5t-89 26.5h-33v47h31q56 0 91 25t35 78q0 42 -32 65t-75 23q-47 0 -88 -28l-5 53q48 25 103 25q64 0 107.5 -36.5t43.5 -100.5q0 -48 -26.5 -81t-72.5 -46q47 -9 74.5 -43t27.5 -85q0 -77 -47.5 -119.5
t-128.5 -42.5q-63 0 -98 21z" />
    <glyph glyph-name="four.sc" unicode="&#xe10e;" horiz-adv-x="380" 
d="M236 475l-165 -306h165v306zM235 123h-207v53l191 357h68v-364h58v-46h-58v-123h-52v123z" />
    <glyph glyph-name="five.sc" unicode="&#xe10f;" horiz-adv-x="380" 
d="M58 12l5 53q44 -26 93 -26q55 0 86 35t31 91q0 54 -31 85t-86 31q-36 0 -85 -20l7 272h221v-48h-170l-5 -166q24 10 57 10q66 0 106 -43.5t40 -115.5q0 -82 -45 -131.5t-126 -49.5q-51 0 -98 23z" />
    <glyph glyph-name="six.sc" unicode="&#xe110;" horiz-adv-x="380" 
d="M121 81q28 -44 72 -44q48 0 72.5 38t24.5 92q0 49 -23.5 84t-70.5 35q-45 0 -70.5 -37t-25.5 -82q0 -48 21 -86zM322 527l-4 -54q-43 19 -82 19q-28 0 -50 -10t-36.5 -30t-24.5 -39.5t-16.5 -50.5t-9.5 -50t-7 -50q16 33 46.5 52.5t66.5 19.5q68 0 103 -48t35 -118
q0 -74 -39.5 -126.5t-110.5 -52.5q-45 0 -77 22.5t-47 61.5t-21 76.5t-6 81.5q0 52 8.5 101.5t28 99.5t59 80.5t94.5 30.5q48 0 90 -16z" />
    <glyph glyph-name="seven.sc" unicode="&#xe111;" horiz-adv-x="380" 
d="M151 0h-60l168 484h-210v49h267v-52z" />
    <glyph glyph-name="eight.sc" unicode="&#xe112;" horiz-adv-x="380" 
d="M221 236l-38 22q-93 -50 -93 -122q0 -42 27.5 -70.5t71.5 -28.5q42 0 70.5 28.5t28.5 70.5q0 61 -67 100zM162 320q6 -4 18.5 -11t16.5 -9q78 50 78 113q0 33 -25 57.5t-60 24.5q-36 0 -60 -24.5t-24 -57.5q0 -54 56 -93zM66 220q28 33 73 59q-43 26 -64.5 56.5
t-21.5 76.5q0 57 40.5 94t96.5 37q57 0 97 -36t40 -92q0 -75 -90 -136q104 -58 104 -143q0 -65 -43.5 -106t-108.5 -41q-69 0 -110.5 39.5t-41.5 107.5q0 50 29 84z" />
    <glyph glyph-name="nine.sc" unicode="&#xe113;" horiz-adv-x="380" 
d="M111 285q27 -40 73 -40q45 0 70 37t25 83q0 48 -24.5 89t-70.5 41q-48 0 -71.5 -37.5t-23.5 -88.5q0 -49 22 -84zM62 4l4 54q48 -20 85 -20q127 0 135 231q-14 -33 -45 -52.5t-68 -19.5q-67 0 -102 51t-35 121q0 74 39.5 124t109.5 50q37 0 65 -16t44.5 -40t26.5 -57.5
t13.5 -64t3.5 -63.5q0 -53 -7 -100.5t-24.5 -99.5t-56 -82.5t-94.5 -30.5q-54 0 -94 15z" />
    <glyph glyph-name="zero.prop" unicode="&#xe11e;" horiz-adv-x="460" 
d="M161 6q-112 69 -112 327q0 52 7 104t25 110t56.5 94t93.5 36q46 0 80 -25.5t52.5 -61.5t30 -86.5t14.5 -89.5t3 -81q0 -41 -3.5 -81t-15 -89.5t-30.5 -86.5t-53 -62t-78 -25q-39 0 -70 17zM146 99q32 -56 85 -56q121 0 121 290t-121 290q-123 0 -123 -290q0 -159 38 -234
z" />
    <glyph glyph-name="one.prop" unicode="&#xe11f;" horiz-adv-x="324" 
d="M210 0h-56v604l-87 -98l-30 41l115 120h58v-667z" />
    <glyph glyph-name="two.prop" unicode="&#xe120;" horiz-adv-x="460" 
d="M380 0h-324v52l57 73q101 130 150 215t49 162q0 56 -26.5 88.5t-78.5 32.5q-59 0 -120 -41l-6 60q57 35 129 35q46 0 79 -15.5t50 -42t24.5 -54t7.5 -57.5q0 -140 -193 -382l-58 -74h260v-52z" />
    <glyph glyph-name="three.prop" unicode="&#xe121;" horiz-adv-x="460" 
d="M47 11l6 60q57 -28 122 -28q61 0 102.5 37.5t41.5 110.5q0 65 -45.5 98t-110.5 33h-42v52h40q69 0 111.5 35.5t42.5 104.5q0 57 -37.5 83t-90.5 26q-58 0 -111 -32l-6 57q53 29 119 29q81 0 133 -40.5t52 -122.5q0 -123 -120 -163q124 -29 124 -156q0 -98 -60 -152
t-148 -54q-69 0 -123 22z" />
    <glyph glyph-name="four.prop" unicode="&#xe122;" horiz-adv-x="460" 
d="M296 156h-258v57l239 454h75v-459h69v-52h-69v-156h-56v156zM296 606l-208 -398h208v398z" />
    <glyph glyph-name="five.prop" unicode="&#xe123;" horiz-adv-x="460" 
d="M67 12l8 60q53 -29 111 -29q74 0 112.5 47t38.5 120q0 68 -34.5 107t-104.5 39q-49 0 -110 -26l11 337h261v-52h-205l-9 -221q36 14 72 14q87 0 132.5 -53t45.5 -139q0 -99 -56 -163t-158 -64q-57 0 -115 23z" />
    <glyph glyph-name="six.prop" unicode="&#xe124;" horiz-adv-x="460" 
d="M390 659l-6 -60q-51 24 -99 24q-30 0 -55.5 -11.5t-42 -27t-30.5 -44t-21.5 -50t-14 -58.5t-9 -55.5t-6.5 -54.5q46 97 138 97q84 0 129 -61t45 -148q0 -91 -48.5 -156t-135.5 -65q-55 0 -94 28.5t-57 76.5t-25.5 94.5t-7.5 98.5q0 51 5.5 99.5t21 103t40 94.5t66.5 66.5
t97 26.5q51 0 110 -18zM143 99q33 -56 91 -56q61 0 93 51.5t32 115.5q0 65 -30 110t-91 45q-58 0 -88.5 -47t-30.5 -108q0 -64 24 -111z" />
    <glyph glyph-name="seven.prop" unicode="&#xe125;" horiz-adv-x="390" 
d="M138 0h-61l205 615h-259v52h320v-54z" />
    <glyph glyph-name="eight.prop" unicode="&#xe126;" horiz-adv-x="460" 
d="M272 297q-16 10 -50 28q-52 -26 -84.5 -67t-32.5 -92q0 -54 34.5 -88.5t90.5 -34.5q55 0 90 34t35 88q0 79 -83 132zM190 400q20 -13 44 -24q103 53 103 146q0 45 -30 73t-77 28t-77 -30.5t-30 -73.5q0 -72 67 -119zM124 318q22 18 51 34q-57 32 -84 70t-27 97
q0 68 48.5 113t117.5 45q70 0 118 -41.5t48 -111.5q0 -109 -115 -173q68 -37 100.5 -79t32.5 -106q0 -80 -52 -128.5t-132 -48.5q-85 0 -134.5 45.5t-49.5 126.5q0 93 78 157z" />
    <glyph glyph-name="nine.prop" unicode="&#xe127;" horiz-adv-x="460" 
d="M77 7l6 62q62 -26 104 -26q50 0 84.5 29.5t51 80t23.5 94.5t8 95q-40 -96 -138 -96q-84 0 -129 64.5t-45 151.5q0 91 49 153t135 62q55 0 94 -28t57.5 -76t26 -94t7.5 -99q0 -36 -2 -68.5t-7.5 -73t-15 -74.5t-26.5 -67.5t-39.5 -56.5t-55.5 -37t-73 -14q-58 0 -115 18z
M130 352q34 -52 95 -52q57 0 87 47.5t30 108.5q0 65 -28.5 116t-88.5 51q-64 0 -94 -47t-30 -114q0 -65 29 -110z" />
    <glyph glyph-name="zero.scprop" unicode="&#xe128;" horiz-adv-x="380" 
d="M117 100q23 -62 73 -62q94 0 94 228t-94 228t-94 -228q0 -110 21 -166zM120 10q-79 59 -79 256q0 130 38 203.5t111 73.5q78 0 113.5 -75t35.5 -202q0 -130 -38 -203.5t-111 -73.5q-42 0 -70 21z" />
    <glyph glyph-name="one.scprop" unicode="&#xe129;" horiz-adv-x="265" 
d="M176 0h-52v471l-77 -80l-30 37l109 105h50v-533z" />
    <glyph glyph-name="two.scprop" unicode="&#xe12a;" horiz-adv-x="380" 
d="M315 0h-270v45l80 105l51.5 70.5t37.5 58t30.5 65t8.5 58.5q0 43 -22.5 67.5t-63.5 24.5q-40 0 -97 -37l-5 54q51 32 112 32q66 0 98.5 -41t32.5 -99q0 -35 -9 -67.5t-35 -74t-42.5 -64.5l-59.5 -81l-53 -69h206v-47z" />
    <glyph glyph-name="three.scprop" unicode="&#xe12b;" horiz-adv-x="380" 
d="M40 10l5 54q52 -25 97 -25q52 0 85 31t33 84q0 48 -38 74.5t-89 26.5h-33v47h31q56 0 91 25t35 78q0 42 -32 65t-75 23q-47 0 -88 -28l-5 53q48 25 103 25q64 0 107.5 -36.5t43.5 -100.5q0 -48 -26.5 -81t-72.5 -46q47 -9 74.5 -43t27.5 -85q0 -77 -47.5 -119.5
t-128.5 -42.5q-63 0 -98 21z" />
    <glyph glyph-name="four.scprop" unicode="&#xe12c;" horiz-adv-x="380" 
d="M236 475l-165 -306h165v306zM235 123h-207v53l191 357h68v-364h58v-46h-58v-123h-52v123z" />
    <glyph glyph-name="five.scprop" unicode="&#xe12d;" horiz-adv-x="380" 
d="M58 12l5 53q44 -26 93 -26q55 0 86 35t31 91q0 54 -31 85t-86 31q-36 0 -85 -20l7 272h221v-48h-170l-5 -166q24 10 57 10q66 0 106 -43.5t40 -115.5q0 -82 -45 -131.5t-126 -49.5q-51 0 -98 23z" />
    <glyph glyph-name="six.scprop" unicode="&#xe12e;" horiz-adv-x="380" 
d="M121 81q28 -44 72 -44q48 0 72.5 38t24.5 92q0 49 -23.5 84t-70.5 35q-45 0 -70.5 -37t-25.5 -82q0 -48 21 -86zM322 527l-4 -54q-43 19 -82 19q-28 0 -50 -10t-36.5 -30t-24.5 -39.5t-16.5 -50.5t-9.5 -50t-7 -50q16 33 46.5 52.5t66.5 19.5q68 0 103 -48t35 -118
q0 -74 -39.5 -126.5t-110.5 -52.5q-45 0 -77 22.5t-47 61.5t-21 76.5t-6 81.5q0 52 8.5 101.5t28 99.5t59 80.5t94.5 30.5q48 0 90 -16z" />
    <glyph glyph-name="seven.scprop" unicode="&#xe12f;" horiz-adv-x="324" 
d="M117 0h-60l168 484h-210v49h267v-52z" />
    <glyph glyph-name="eight.scprop" unicode="&#xe130;" horiz-adv-x="380" 
d="M221 236l-38 22q-93 -50 -93 -122q0 -42 27.5 -70.5t71.5 -28.5q42 0 70.5 28.5t28.5 70.5q0 61 -67 100zM162 320q6 -4 18.5 -11t16.5 -9q78 50 78 113q0 33 -25 57.5t-60 24.5q-36 0 -60 -24.5t-24 -57.5q0 -54 56 -93zM66 220q28 33 73 59q-43 26 -64.5 56.5
t-21.5 76.5q0 57 40.5 94t96.5 37q57 0 97 -36t40 -92q0 -75 -90 -136q104 -58 104 -143q0 -65 -43.5 -106t-108.5 -41q-69 0 -110.5 39.5t-41.5 107.5q0 50 29 84z" />
    <glyph glyph-name="nine.scprop" unicode="&#xe131;" horiz-adv-x="380" 
d="M111 285q27 -40 73 -40q45 0 70 37t25 83q0 48 -24.5 89t-70.5 41q-48 0 -71.5 -37.5t-23.5 -88.5q0 -49 22 -84zM62 4l4 54q48 -20 85 -20q127 0 135 231q-14 -33 -45 -52.5t-68 -19.5q-67 0 -102 51t-35 121q0 74 39.5 124t109.5 50q37 0 65 -16t44.5 -40t26.5 -57.5
t13.5 -64t3.5 -63.5q0 -53 -7 -100.5t-24.5 -99.5t-56 -82.5t-94.5 -30.5q-54 0 -94 15z" />
    <glyph glyph-name="zero.onumprop" unicode="&#xe132;" horiz-adv-x="482" 
d="M158 9q-110 64 -110 258q0 124 52.5 203t140.5 79q92 0 142.5 -76t50.5 -202q0 -124 -52.5 -203t-140.5 -79q-46 0 -83 20zM139 106q37 -64 102 -64q66 0 100 63.5t34 165.5t-34 163.5t-100 61.5t-100 -63.5t-34 -165.5q0 -100 32 -161z" />
    <glyph glyph-name="one.onumprop" unicode="&#xe133;" horiz-adv-x="278" 
d="M186 0h-55v487h-115v52h170v-539z" />
    <glyph glyph-name="two.onumprop" unicode="&#xe134;" horiz-adv-x="356" 
d="M308 0h-280v48l107 129q61 72 82.5 119t21.5 99q0 47 -24 74t-63 27q-45 0 -102 -26l-4 55q51 24 109 24q66 0 104.5 -40t38.5 -114q0 -63 -27.5 -118.5t-97.5 -137.5l-74 -88h209v-51z" />
    <glyph glyph-name="three.onumprop" unicode="&#xe135;" horiz-adv-x="344" 
d="M19 -160l-6 54q24 -2 37 -2q87 0 136 50t49 138q0 123 -132 123h-31v57h31q59 0 91 36t32 96q0 53 -28.5 78.5t-64.5 25.5q-53 0 -105 -28l-4 56q53 25 113 25q25 0 48.5 -7.5t47 -24t38 -48.5t14.5 -76q0 -62 -33 -104t-86 -54q59 -7 93.5 -45.5t34.5 -108.5
q0 -106 -63.5 -174t-174.5 -68q-26 0 -37 1z" />
    <glyph glyph-name="four.onumprop" unicode="&#xe136;" horiz-adv-x="407" 
d="M255 0h-225v50l182 489h57l-185 -488h171v316h54v-316h72v-51h-72v-160h-54v160z" />
    <glyph glyph-name="five.onumprop" unicode="&#xe137;" horiz-adv-x="401" 
d="M76 -160l-6 54q24 -2 37 -2q87 0 136 50t49 142q0 60 -29.5 97.5t-89.5 37.5q-43 0 -97 -15l8 335h245v-52h-193l-7 -219q25 4 52 4q83 0 126.5 -50.5t43.5 -136.5q0 -110 -63.5 -178t-174.5 -68q-26 0 -37 1z" />
    <glyph glyph-name="six.onumprop" unicode="&#xe138;" horiz-adv-x="433" 
d="M345 697v-54q-24 2 -35 2q-66 0 -113.5 -45.5t-69 -112.5t-23.5 -146q45 87 128 87q72 0 112 -57t40 -157q0 -103 -45.5 -164t-121.5 -61q-167 0 -167 290q0 185 67.5 302t191.5 117q25 0 36 -1zM137 87q29 -45 81 -45q108 0 108 168q0 165 -103 165q-52 0 -83 -42.5
t-31 -116.5q0 -83 28 -129z" />
    <glyph glyph-name="seven.onumprop" unicode="&#xe139;" horiz-adv-x="360" 
d="M91 -161l-55 10q80 294 230 638h-247v52h303v-51q-162 -380 -231 -649z" />
    <glyph glyph-name="eight.onumprop" unicode="&#xe13a;" horiz-adv-x="448" 
d="M314 258q-26 39 -91 71q-115 -40 -115 -160q0 -59 33.5 -93.5t82.5 -34.5q52 0 84 33.5t32 94.5q0 51 -26 89zM153 435q25 -35 75 -60q52 23 72.5 56.5t20.5 86.5q0 59 -27.5 90t-68.5 31t-68.5 -31.5t-27.5 -88.5q0 -49 24 -84zM84 282q34 46 91 72q-49 30 -75.5 68
t-26.5 98q0 77 44 124t108 47q63 0 107.5 -43t44.5 -124q0 -118 -103 -171q63 -31 93.5 -75t30.5 -111q0 -82 -49.5 -130t-124.5 -48q-74 0 -124 46.5t-50 127.5q0 73 34 119z" />
    <glyph glyph-name="nine.onumprop" unicode="&#xe13b;" horiz-adv-x="433" 
d="M88 -160v54q24 -2 35 -2q67 0 113.5 43t68 109.5t24.5 151.5q-45 -87 -128 -87q-70 0 -111 56.5t-41 157.5q0 103 46 164t121 61q167 0 167 -290q0 -194 -66.5 -306.5t-192.5 -112.5q-25 0 -36 1zM132 204q26 -42 78 -42t83 42.5t31 116.5q0 83 -28.5 128.5t-80.5 45.5
q-108 0 -108 -168q0 -82 25 -123z" />
    <glyph glyph-name="one.numerator" unicode="&#xe13c;" horiz-adv-x="350" 
d="M216 265h-49v347l-65 -57l-26 34l96 82h44v-406z" />
    <glyph glyph-name="two.numerator" unicode="&#xe13d;" horiz-adv-x="350" 
d="M273 265h-210v44l60 73q96 115 96 184q0 64 -64 64q-30 0 -74 -25l-4 49q40 23 89 23q51 0 78.5 -31.5t27.5 -76.5q0 -88 -105 -208l-44 -51h150v-45z" />
    <glyph glyph-name="three.numerator" unicode="&#xe13e;" horiz-adv-x="350" 
d="M59 272l4 49q34 -15 74 -15q41 0 62.5 20.5t21.5 56.5q0 35 -25.5 52.5t-66.5 17.5h-22v46h21q90 0 90 71q0 29 -20.5 44.5t-53.5 15.5q-38 0 -69 -18l-3 49q37 16 81 16q48 0 82.5 -28.5t34.5 -76.5q0 -69 -67 -94q31 -8 50.5 -34t19.5 -61q0 -58 -37.5 -91.5
t-100.5 -33.5q-43 0 -76 14z" />
    <glyph glyph-name="four.numerator" unicode="&#xe13f;" horiz-adv-x="350" 
d="M213 614l-121 -216h121v216zM212 354h-165v49l153 268h59v-273h44v-44h-44v-89h-47v89z" />
    <glyph glyph-name="five.numerator" unicode="&#xe140;" horiz-adv-x="350" 
d="M70 274l5 49q32 -17 71 -17q43 0 63.5 23.5t20.5 62.5q0 82 -85 82q-29 0 -63 -13l6 210h174v-45h-129l-4 -112q19 5 38 5q55 0 85.5 -33.5t30.5 -90.5q0 -62 -36 -99.5t-98 -37.5q-38 0 -79 16z" />
    <glyph glyph-name="six.numerator" unicode="&#xe141;" horiz-adv-x="350" 
d="M126 335q19 -30 53 -30q35 0 51.5 27t16.5 62q0 83 -66 83q-35 0 -51.5 -25t-16.5 -58q0 -34 13 -59zM277 668l-4 -49q-30 11 -59 11q-96 0 -108 -162q30 56 84 56q52 0 80 -37.5t28 -91.5q0 -57 -32.5 -97t-86.5 -40q-36 0 -61 17.5t-37.5 47t-18 59t-5.5 61.5
q0 55 12 104.5t48.5 89.5t92.5 40q37 0 67 -9z" />
    <glyph glyph-name="seven.numerator" unicode="&#xe142;" horiz-adv-x="350" 
d="M151 265h-53l126 361h-157v45h208v-44z" />
    <glyph glyph-name="eight.numerator" unicode="&#xe143;" horiz-adv-x="350" 
d="M128 533q13 -14 53 -35q56 33 56 79q0 24 -16.5 38.5t-45.5 14.5t-45 -15t-16 -39q0 -26 14 -43zM225 422q-24 21 -55 35q-67 -33 -67 -88q0 -28 19.5 -46t52.5 -18t52.5 18.5t19.5 47.5q0 32 -22 51zM75 433q23 25 56 45q-68 36 -68 100q0 44 33.5 71.5t78.5 27.5
t78.5 -27t33.5 -71q0 -60 -68 -100q38 -21 59 -46t21 -63q0 -50 -36 -81t-88 -31q-54 0 -89 30t-35 80q0 40 24 65z" />
    <glyph glyph-name="nine.numerator" unicode="&#xe144;" horiz-adv-x="350" 
d="M117 484q19 -26 53 -26q35 0 51.5 25t16.5 58q0 35 -15.5 62t-50.5 27t-51.5 -27t-16.5 -62q0 -34 13 -57zM74 267l4 49q30 -11 59 -11q96 0 108 162q-30 -56 -84 -56q-52 0 -80 37.5t-28 91.5q0 57 32.5 97t86.5 40q36 0 61 -17.5t37.5 -47t18 -59t5.5 -61.5
q0 -55 -12 -104.5t-48.5 -89.5t-92.5 -40q-37 0 -67 9z" />
    <glyph glyph-name="zero.numerator" unicode="&#xe145;" horiz-adv-x="350" 
d="M123 351q17 -46 53 -46q66 0 66 163q0 162 -68 162q-66 0 -66 -162q0 -77 15 -117zM120 275q-65 48 -65 193q0 90 30 149.5t89 59.5q62 0 91.5 -59t29.5 -150t-29.5 -150.5t-89.5 -59.5q-33 0 -56 17z" />
    <glyph glyph-name="one.denominator" unicode="&#xe146;" horiz-adv-x="350" 
d="M216 0h-49v347l-65 -57l-26 34l96 82h44v-406z" />
    <glyph glyph-name="two.denominator" unicode="&#xe147;" horiz-adv-x="350" 
d="M273 0h-210v44l60 73q96 115 96 184q0 64 -64 64q-30 0 -74 -25l-4 49q40 23 89 23q51 0 78.5 -31.5t27.5 -76.5q0 -88 -105 -208l-44 -51h150v-45z" />
    <glyph glyph-name="three.denominator" unicode="&#xe148;" horiz-adv-x="350" 
d="M59 7l4 49q35 -15 74 -15q41 0 62.5 20.5t21.5 56.5q0 35 -25.5 52.5t-66.5 17.5h-22v46h21q90 0 90 71q0 29 -20.5 44.5t-53.5 15.5q-38 0 -69 -18l-3 49q37 16 81 16q48 0 82.5 -28.5t34.5 -76.5q0 -69 -67 -94q31 -8 50.5 -34t19.5 -61q0 -58 -37.5 -91.5
t-100.5 -33.5q-43 0 -76 14z" />
    <glyph glyph-name="four.denominator" unicode="&#xe149;" horiz-adv-x="350" 
d="M213 349l-121 -216h121v216zM212 89h-165v49l153 268h59v-273h44v-44h-44v-89h-47v89z" />
    <glyph glyph-name="five.denominator" unicode="&#xe14a;" horiz-adv-x="350" 
d="M70 9l5 49q32 -17 71 -17q43 0 63.5 23.5t20.5 62.5q0 82 -85 82q-29 0 -63 -13l6 210h174v-45h-129l-4 -112q19 5 38 5q55 0 85.5 -33.5t30.5 -90.5q0 -62 -36 -99.5t-98 -37.5q-38 0 -79 16z" />
    <glyph glyph-name="six.denominator" unicode="&#xe14b;" horiz-adv-x="350" 
d="M126 70q19 -30 53 -30q35 0 51.5 27t16.5 62q0 83 -66 83q-35 0 -51.5 -25t-16.5 -58q0 -34 13 -59zM277 403l-4 -49q-30 11 -59 11q-96 0 -108 -162q30 56 84 56q52 0 80 -37.5t28 -91.5q0 -57 -32.5 -97t-86.5 -40q-36 0 -61 17.5t-37.5 47t-18 59t-5.5 61.5
q0 55 12 104.5t48.5 89.5t92.5 40q37 0 67 -9z" />
    <glyph glyph-name="seven.denominator" unicode="&#xe14c;" horiz-adv-x="350" 
d="M151 0h-53l126 361h-157v45h208v-44z" />
    <glyph glyph-name="eight.denominator" unicode="&#xe14d;" horiz-adv-x="350" 
d="M128 268q13 -14 53 -35q56 33 56 79q0 24 -16.5 38.5t-45.5 14.5t-45 -15t-16 -39q0 -26 14 -43zM225 157q-24 21 -55 35q-67 -33 -67 -88q0 -28 19.5 -46t52.5 -18t52.5 18.5t19.5 47.5q0 32 -22 51zM75 168q23 25 56 45q-68 36 -68 100q0 44 33.5 71.5t78.5 27.5
t78.5 -27t33.5 -71q0 -60 -68 -100q38 -21 59 -46t21 -63q0 -50 -36 -81t-88 -31q-54 0 -89 30t-35 80q0 39 24 65z" />
    <glyph glyph-name="nine.denominator" unicode="&#xe14e;" horiz-adv-x="350" 
d="M117 219q19 -26 53 -26q35 0 51.5 25t16.5 58q0 35 -15.5 62t-50.5 27t-51.5 -27t-16.5 -62q0 -34 13 -57zM74 2l4 49q30 -11 59 -11q96 0 108 162q-30 -56 -84 -56q-52 0 -80 37.5t-28 91.5q0 57 32.5 97t86.5 40q36 0 61 -17.5t37.5 -47t18 -59t5.5 -61.5
q0 -55 -12 -104.5t-48.5 -89.5t-92.5 -40q-37 0 -67 9z" />
    <glyph glyph-name="zero.denominator" unicode="&#xe14f;" horiz-adv-x="350" 
d="M123 86q17 -46 53 -46q66 0 66 163q0 162 -68 162q-66 0 -66 -162q0 -77 15 -117zM120 10q-65 48 -65 193q0 90 30 149.5t89 59.5q62 0 91.5 -59t29.5 -150t-29.5 -150.5t-89.5 -59.5q-33 0 -56 17z" />
    <glyph glyph-name="parenleft.inferior" unicode="&#xe192;" horiz-adv-x="160" 
d="M157 -239h-38q-86 133 -86 255t86 255h38q-75 -131 -75 -255t75 -255z" />
    <glyph glyph-name="parenright.inferior" unicode="&#xe193;" horiz-adv-x="160" 
d="M40 -239h-37q75 131 75 255t-75 255h37q87 -130 87 -255t-87 -255z" />
    <glyph glyph-name="equal.inferior" unicode="&#xe196;" horiz-adv-x="350" 
d="M334 -92h-318v41h318v-41zM334 21h-318v41h318v-41z" />
    <glyph glyph-name="a.superior" unicode="&#xe19f;" horiz-adv-x="288" 
d="M196 414h-10q-113 0 -113 -64q0 -21 13 -34.5t37 -13.5q35 0 54 25t19 58v29zM246 265h-46l-3 45q-33 -52 -85 -52q-40 0 -64 25.5t-24 64.5q0 57 44.5 81t106.5 24h21v15q0 64 -63 64q-41 0 -81 -24l-4 49q46 19 92 19q102 0 102 -103v-139q0 -42 4 -69z" />
    <glyph glyph-name="b.superior" unicode="&#xe1a0;" horiz-adv-x="305" 
d="M103 344q19 -40 57 -40q20 0 34 12t20 31.5t8.5 37t2.5 35.5q0 110 -65 110q-38 0 -53 -33.5t-15 -76.5q0 -47 11 -76zM90 265h-44v439h48v-178q16 25 33 37.5t45 12.5q56 0 80 -47.5t24 -108.5q0 -37 -8 -71t-33 -62.5t-64 -28.5q-49 0 -79 50z" />
    <glyph glyph-name="d.superior" unicode="&#xe1a2;" horiz-adv-x="305" 
d="M91 347q16 -43 54 -43q67 0 67 116q0 43 -15 76.5t-52 33.5q-65 0 -65 -110q0 -40 11 -73zM261 265h-45l-2 45q-31 -52 -79 -52q-30 0 -52 16t-33 41.5t-16 51.5t-5 53q0 37 8 69.5t33 59.5t65 27q49 0 76 -49v177h48v-350q0 -68 2 -89z" />
    <glyph glyph-name="e.superior" unicode="&#xe1a3;" horiz-adv-x="274" 
d="M77 444h125q0 89 -58 89q-31 0 -49 -28t-18 -61zM249 404h-172q0 -42 20.5 -71.5t65.5 -29.5q34 0 71 21l3 -51q-33 -15 -77 -15q-69 0 -100.5 46t-31.5 116q0 61 30 108.5t86 47.5q58 0 81.5 -41t23.5 -101v-30z" />
    <glyph glyph-name="h.superior" unicode="&#xe1a6;" horiz-adv-x="303" 
d="M256 265h-48v207q0 57 -51 57q-29 0 -46 -23.5t-17 -51.5v-189h-48v439h48v-179q12 21 33.5 36t43.5 15q85 0 85 -103v-208z" />
    <glyph glyph-name="l.superior" unicode="&#xe1a9;" horiz-adv-x="141" 
d="M94 265h-48v439h48v-439z" />
    <glyph glyph-name="m.superior" unicode="&#xe1aa;" horiz-adv-x="442" 
d="M94 265h-48v258q0 20 -1 47h44l1 -45q12 22 32 36.5t43 14.5q52 0 72 -50h1q34 50 77 50q80 0 80 -101v-210h-47v205q0 59 -46 59q-25 0 -41.5 -23t-16.5 -49v-192h-46v205q0 59 -47 59q-25 0 -41 -23t-16 -49v-192z" />
    <glyph glyph-name="o.superior" unicode="&#xe1ab;" horiz-adv-x="300" 
d="M92 345q20 -41 58 -41q28 0 44.5 21t21 44t4.5 50q0 111 -70 111q-28 0 -44.5 -20.5t-21 -43t-4.5 -47.5q0 -42 12 -74zM92 272q-63 41 -63 147q0 62 30 109.5t91 47.5q63 0 92 -46t29 -111t-29.5 -113t-91.5 -48q-35 0 -58 14z" />
    <glyph glyph-name="r.superior" unicode="&#xe1ae;" horiz-adv-x="190" 
d="M94 265h-48v216q0 40 -1 89h44l1 -48q12 24 31.5 39t42.5 15q7 0 14 -1l-4 -52h-14q-31 0 -48.5 -25.5t-17.5 -56.5v-176z" />
    <glyph glyph-name="s.superior" unicode="&#xe1af;" horiz-adv-x="230" 
d="M24 272l4 52q35 -20 76 -20q53 0 53 42q0 17 -12.5 28t-44.5 27q-33 15 -52.5 35t-19.5 54q0 42 30 64t71 22q31 0 64 -10l-4 -49q-31 13 -59 13q-21 0 -36.5 -9t-15.5 -28q0 -4 0.5 -8t2.5 -7.5l3.5 -6t5.5 -5.5t6 -5t8 -5l9 -4.5l10.5 -5.5l11.5 -6q17 -8 26 -13.5
t21.5 -16t18.5 -25t6 -34.5q0 -44 -28 -68.5t-72 -24.5q-41 0 -83 14z" />
    <glyph glyph-name="t.superior" unicode="&#xe1b0;" horiz-adv-x="186" 
d="M166 312l6 -45q-22 -9 -49 -9q-64 0 -64 73v194h-45v45h46v67l46 15v-82h62v-45h-62v-182q0 -12 1.5 -19t9 -13t21.5 -6q9 0 28 7z" />
    <glyph glyph-name="n.superior" unicode="&#xe1da;" horiz-adv-x="303" 
d="M94 265h-48v216q0 37 -1 89h44l1 -45q12 22 33.5 36.5t47.5 14.5q85 0 85 -104v-207h-47v205q0 59 -52 59q-29 0 -46 -23t-17 -49v-192z" />
    <glyph glyph-name="period.superior" unicode="&#xe1dc;" horiz-adv-x="178" 
d="M116 265h-54v72h54v-72z" />
    <glyph glyph-name="parenleft.superior" unicode="&#xe1df;" horiz-adv-x="160" 
d="M157 294h-38q-86 133 -86 255t86 255h38q-75 -131 -75 -255t75 -255z" />
    <glyph glyph-name="parenright.superior" unicode="&#xe1e0;" horiz-adv-x="160" 
d="M40 294h-37q75 131 75 255t-75 255h37q87 -130 87 -255t-87 -255z" />
    <glyph glyph-name="equal.superior" unicode="&#xe1e3;" horiz-adv-x="350" 
d="M334 441h-318v41h318v-41zM334 554h-318v41h318v-41z" />
    <glyph glyph-name="grave.cap" unicode="&#xe300;" 
d="M138 724h-46l-93 136h64z" />
    <glyph glyph-name="acute.cap" unicode="&#xe301;" 
d="M106 724h-46l75 136h64z" />
    <glyph glyph-name="circumflex.cap" unicode="&#xe302;" 
d="M35 724h-54l91 136h53l92 -136h-54l-65 99z" />
    <glyph glyph-name="caron.cap" unicode="&#xe303;" 
d="M126 724h-53l-92 136h54l65 -99l63 99h54z" />
    <glyph glyph-name="tilde.cap" unicode="&#xe304;" 
d="M11 742h-37q0 37 20.5 65t56.5 28q22 0 56.5 -20.5t45.5 -20.5q16 0 25.5 15.5t9.5 31.5h38q0 -33 -21 -63t-53 -30q-26 0 -55 20.5t-46 20.5q-16 0 -28 -15t-12 -32z" />
    <glyph glyph-name="dieresis.cap" unicode="&#xe305;" 
d="M56 750h-52v79h52v-79zM194 750h-52v79h52v-79z" />
    <glyph glyph-name="macron.cap" unicode="&#xe306;" 
d="M212 771h-226v43h226v-43z" />
    <glyph glyph-name="breve.cap" unicode="&#xe307;" 
d="M-10 847h37q4 -33 23 -52.5t49 -19.5t49 19.5t23 52.5h37q0 -11 -4.5 -27t-15 -37t-34 -35t-55.5 -14t-55.5 14t-34 35t-15 37t-4.5 27z" />
    <glyph glyph-name="ring.cap" unicode="&#xe308;" 
d="M42 792q0 -24 17 -40.5t41 -16.5t40 16.5t16 40.5t-16 40.5t-40 16.5q-23 0 -40.5 -17t-17.5 -40zM35 728q-27 26 -27 64t27 64t65 26t64 -26t26 -64t-26 -64t-64 -26q-37 0 -65 26z" />
    <glyph glyph-name="hungarumlaut.cap" unicode="&#xe309;" 
d="M12 724h-47l73 136h66zM141 724h-47l74 136h65z" />
    <glyph glyph-name="dotaccent.cap" unicode="&#xe30a;" 
d="M126 750h-54v79h54v-79z" />
    <glyph glyph-name="caron.alt" unicode="&#xe30b;" 
d="M188 565h-38l17 156h58z" />
    <glyph glyph-name="commaaccent" unicode="&#xe30c;" 
d="M80 -227h-41l33 158h56z" />
    <glyph glyph-name="commaaccent.alt" unicode="&#xe30d;" 
d="M240 585h-57l44 136h41z" />
    <glyph glyph-name="grave.sc" unicode="&#xe320;" 
d="M138 611h-46l-93 136h64z" />
    <glyph glyph-name="acute.sc" unicode="&#xe321;" 
d="M106 611h-46l75 136h64z" />
    <glyph glyph-name="circumflex.sc" unicode="&#xe322;" 
d="M35 611h-54l91 136h53l92 -136h-54l-65 99z" />
    <glyph glyph-name="caron.sc" unicode="&#xe323;" 
d="M126 611h-53l-92 136h54l65 -99l63 99h54z" />
    <glyph glyph-name="tilde.sc" unicode="&#xe324;" 
d="M11 629h-37q0 37 20.5 65t56.5 28q22 0 56.5 -20.5t45.5 -20.5q16 0 25.5 15.5t9.5 31.5h38q0 -33 -21 -63t-53 -30q-25 0 -55 20.5t-46 20.5t-28 -15t-12 -32z" />
    <glyph glyph-name="dieresis.sc" unicode="&#xe325;" 
d="M56 637h-52v79h52v-79zM194 637h-52v79h52v-79z" />
    <glyph glyph-name="macron.sc" unicode="&#xe326;" 
d="M212 658h-226v43h226v-43z" />
    <glyph glyph-name="breve.sc" unicode="&#xe327;" 
d="M-10 734h37q4 -33 23 -52.5t49 -19.5t49 19.5t23 52.5h37q0 -11 -4.5 -27t-15 -37t-34 -35t-55.5 -14t-55.5 14t-34 35t-15 37t-4.5 27z" />
    <glyph glyph-name="ring.sc" unicode="&#xe328;" 
d="M42 679q0 -24 17 -40.5t41 -16.5t40 16.5t16 40.5t-16 40.5t-40 16.5q-23 0 -40.5 -17t-17.5 -40zM35 615q-27 25 -27 64q0 38 27 64t65 26t64 -26t26 -64t-26 -64t-64 -26q-37 0 -65 26z" />
    <glyph glyph-name="hungarumlaut.sc" unicode="&#xe329;" 
d="M12 611h-47l73 136h66zM141 611h-47l74 136h65z" />
    <glyph glyph-name="dotaccent.sc" unicode="&#xe32a;" 
d="M126 637h-54v79h54v-79z" />
    <glyph glyph-name="ntilde.superior" unicode="&#xf463;" horiz-adv-x="303" 
d="M85 641h-33q0 33 15.5 55t43.5 22q17 0 43 -15.5t36 -15.5q16 0 22 36h34q-1 -33 -16 -55t-41 -22q-20 0 -43 15.5t-35 15.5q-21 0 -26 -36zM94 265h-48v216q0 37 -1 89h44l1 -45q12 22 33.5 36.5t47.5 14.5q85 0 85 -104v-207h-47v205q0 59 -52 59q-29 0 -46 -23
t-17 -49v-192z" />
    <glyph glyph-name="i.superior" unicode="&#xf464;" horiz-adv-x="141" 
d="M95 626h-49v63h49v-63zM94 265h-48v305h48v-305z" />
    <glyph glyph-name="uniF8FF" unicode="&#xf8ff;" horiz-adv-x="512" 
d="M269 117h-59v64h59v-64zM263 241h-47v9q0 34 11.5 61t28 45.5l33 36t28 41t11.5 52.5q0 34 -22 55.5t-60 21.5q-46 0 -98 -21l-4 47q51 20 102 20q61 0 97.5 -32.5t36.5 -91.5q0 -38 -18.5 -70t-40 -50.5t-40 -48t-18.5 -64.5v-11zM512 0h-512v718h512v-718zM50 667v-617
h412v617h-412z" />
    <glyph glyph-name="napostrophe.sc" horiz-adv-x="488" 
d="M126 0h-51v533h74l213 -471v471h51v-533h-74l-213 469v-469zM73 561h-34l37 160h50z" />
    <glyph glyph-name="revcommaaccent" 
d="M126 585h-56l48 158h41z" />
    <glyph glyph-name="ordmasculine.sc" horiz-adv-x="272" 
d="M90 360q15 -26 44 -26q28 0 42.5 24t14.5 62q0 36 -14 60.5t-43 24.5q-28 0 -42.5 -24t-14.5 -62q0 -36 13 -59zM134 296q-50 0 -76 33.5t-26 89.5q0 55 27.5 89.5t74.5 34.5q50 0 76 -33.5t26 -89.5q0 -55 -27.5 -89.5t-74.5 -34.5z" />
    </font>
</defs>
</svg>
